<?xml version="1.0" standalone="no"?>
<!DOCTYPE svg PUBLIC "-//W3C//DTD SVG 1.1//EN" "http://www.w3.org/Graphics/SVG/1.1/DTD/svg11.dtd" >
<svg>
<metadata>
Created by FontForge 20090914 at Sat Apr 16 14:42:56 2016
 By www-data
Copyright &#194;&#169; 2015 by Svetlin Balezdrov and Svet Simov. All rights reserved.
</metadata>
<defs>
<font id="Simbal-Regular" horiz-adv-x="545" >
  <font-face 
    font-family="Simbal"
    font-weight="400"
    font-stretch="normal"
    units-per-em="1000"
    panose-1="0 0 5 0 0 0 0 0 0 0"
    ascent="750"
    descent="-250"
    x-height="504"
    cap-height="700"
    bbox="-475 -250 1028 967"
    underline-thickness="50"
    underline-position="-50"
    unicode-range="U+0020-U+FB02"
  />
<missing-glyph horiz-adv-x="600" 
d="M37 700h538v-700h-538v700zM316 252c0.666992 10.667 3.33203 20.666 7.99902 29.999c6.66699 13.333 14.167 25 22.5 35s20.5 23.333 36.5 40c23.333 24 40.833 45.667 52.5 65s17.5 43 17.5 71c0 38 -14.333 67.833 -43 89.5s-62.334 32.5 -101.001 32.5
c-23.333 0 -47.166 -3.16699 -71.499 -9.5s-44.166 -16.166 -59.499 -29.499v-63c14.667 13.333 33.5 23.833 56.5 31.5s45.5 11.5 67.5 11.5c26.667 0 47.5 -6.33301 62.5 -19s21.5 -32.334 19.5 -59.001c-0.666992 -16 -5.5 -30.5 -14.5 -43.5s-22.5 -28.833 -40.5 -47.5
c-18.667 -20 -33 -36.833 -43 -50.5s-18 -29.5 -24 -47.5c-2.66699 -8.66699 -4 -19.667 -4 -33l1 -25c0.666992 -5.33301 1 -13 1 -23h55c0 18.667 0.333008 33.334 1 44.001zM318.498 155.999c-5 7.33301 -15.167 11 -30.5 11c-14.667 0 -24.667 -3.83301 -30 -11.5
s-8 -18.5 -8 -32.5s2.83301 -24.833 8.5 -32.5s15.5 -11.5 29.5 -11.5c15.333 0 25.5 3.5 30.5 10.5s7.5 18.167 7.5 33.5c0 14.667 -2.5 25.667 -7.5 33z" />
    <glyph glyph-name="fi" unicode="fi" horiz-adv-x="558" 
d="M202 627.5c12.667 11.667 31.333 17.5 56 17.5c44.667 0 98 -17.333 160 -52v77c-62 30 -119.667 45 -173 45c-43.333 0 -77.333 -11.833 -102 -35.5s-37 -55.5 -37 -95.5v-80h-74v-70h74v-434h77v434h114v70h-114v80c0 17.333 6.33301 31.833 19 43.5zM395.999 504h77
v-504h-77v504z" />
    <glyph glyph-name="fl" unicode="fl" horiz-adv-x="569" 
d="M364.5 699c36.333 -10.667 72.502 -30 108.502 -58v-641h-77v612c-20 12 -40.5 20.5 -61.5 25.5s-46.5 7.5 -76.5 7.5c-24.667 0 -43.334 -5.83301 -56.001 -17.5s-19 -26.167 -19 -43.5v-80h114v-70h-114v-434h-77v434h-74v70h74v80c0 40 12.333 71.833 37 95.5
s58.667 35.5 102 35.5s83.166 -5.33301 119.499 -16z" />
    <glyph glyph-name=".notdef" horiz-adv-x="600" 
d="M37 700h538v-700h-538v700zM316 252c0.666992 10.667 3.33203 20.666 7.99902 29.999c6.66699 13.333 14.167 25 22.5 35s20.5 23.333 36.5 40c23.333 24 40.833 45.667 52.5 65s17.5 43 17.5 71c0 38 -14.333 67.833 -43 89.5s-62.334 32.5 -101.001 32.5
c-23.333 0 -47.166 -3.16699 -71.499 -9.5s-44.166 -16.166 -59.499 -29.499v-63c14.667 13.333 33.5 23.833 56.5 31.5s45.5 11.5 67.5 11.5c26.667 0 47.5 -6.33301 62.5 -19s21.5 -32.334 19.5 -59.001c-0.666992 -16 -5.5 -30.5 -14.5 -43.5s-22.5 -28.833 -40.5 -47.5
c-18.667 -20 -33 -36.833 -43 -50.5s-18 -29.5 -24 -47.5c-2.66699 -8.66699 -4 -19.667 -4 -33l1 -25c0.666992 -5.33301 1 -13 1 -23h55c0 18.667 0.333008 33.334 1 44.001zM318.498 155.999c-5 7.33301 -15.167 11 -30.5 11c-14.667 0 -24.667 -3.83301 -30 -11.5
s-8 -18.5 -8 -32.5s2.83301 -24.833 8.5 -32.5s15.5 -11.5 29.5 -11.5c15.333 0 25.5 3.5 30.5 10.5s7.5 18.167 7.5 33.5c0 14.667 -2.5 25.667 -7.5 33z" />
    <glyph glyph-name="space" unicode=" " horiz-adv-x="300" 
 />
    <glyph glyph-name="exclam" unicode="!" horiz-adv-x="280" 
d="M182 291l3 409h-90l3 -408l6 -121h73zM180.5 14.5c-6.33301 -9.66699 -19.501 -14.5 -39.501 -14.5c-19.333 0.666992 -32.666 6.16699 -39.999 16.5s-11 24.5 -11 42.5s3.66699 32.167 11 42.5s20.333 15.5 39 15.5c20.667 0 34.167 -4.66699 40.5 -14s9.5 -24 9.5 -44
s-3.16699 -34.833 -9.5 -44.5z" />
    <glyph glyph-name="quotedbl" unicode="&#x22;" horiz-adv-x="324" 
d="M129 460h-64v240h64v-240zM259 460h-64v240h64v-240z" />
    <glyph glyph-name="numbersign" unicode="#" horiz-adv-x="628" 
d="M477 428l-21 -156h96l-10 -76h-97l-27 -196h-81l27 196h-147l-27 -196h-80l27 196h-97l10 76h98l21 156h-96l10 76h97l27 196h81l-27 -196h147l27 196h80l-27 -196h97l-10 -76h-98zM397 428h-147l-22 -156h147z" />
    <glyph glyph-name="dollar" unicode="$" horiz-adv-x="543" 
d="M303 394c56.667 -24 102 -52.1689 136 -84.502s51 -72.166 51 -119.499c0 -18 -2.33301 -36 -7 -54c-10 -38.667 -31.5 -71 -64.5 -97s-71.5 -42.333 -115.5 -49v-86h-59v84c-39.333 0.666992 -74 4.83398 -104 12.501s-57.667 18.834 -83 33.501v92
c28 -20.667 57 -35.834 87 -45.501s63.333 -14.5 100 -14.5v263c-58 24.667 -102.333 52.5 -133 83.5s-46 71.167 -46 120.5c0 53.333 16.667 95.166 50 125.499s76.333 47.833 129 52.5v75h59v-75c51.333 -5.33301 96.333 -19.666 135 -42.999l1 -83
c-40.667 26.667 -86 42.667 -136 48v-239zM178 464.498c15.333 -17 37.333 -32.167 66 -45.5v212c-28 -6 -49.833 -17.833 -65.5 -35.5s-23.5 -39.167 -23.5 -64.5c0 -27.333 7.66699 -49.5 23 -66.5zM303 74.998c51.333 15.333 81.667 43.332 91 83.999
c1.33301 6 2 14.667 2 26c0 29.333 -8 52.833 -24 70.5s-39 33.834 -69 48.501v-229z" />
    <glyph glyph-name="percent" unicode="%" horiz-adv-x="730" 
d="M83.5 655.5c-24.333 -32.333 -36.5 -73.833 -36.5 -124.5s12.167 -92 36.5 -124s58.833 -48 103.5 -48s79.167 15.833 103.5 47.5s36.5 73.167 36.5 124.5c0 50.667 -12.333 92.167 -37 124.5s-59 48.5 -103 48.5c-44.667 0 -79.167 -16.167 -103.5 -48.5zM606 700
l-407 -700h-75l407 700h75zM241.5 613c10.333 -24 15.5 -51.334 15.5 -82.001c0 -32 -5.5 -59.5 -16.5 -82.5s-28.833 -34.5 -53.5 -34.5c-24 0 -41.667 11.333 -53 34s-17 50.334 -17 83.001c0 34 5.33301 62.167 16 84.5s28.667 33.5 54 33.5c26 0 44.167 -12 54.5 -36z
M441.5 292.499c-24.333 -32.333 -36.5 -73.833 -36.5 -124.5s12.167 -92.167 36.5 -124.5s58.5 -48.5 102.5 -48.5c44.667 0 79.167 15.833 103.5 47.5s36.5 73.5 36.5 125.5c0 50.667 -12.167 92.167 -36.5 124.5s-58.833 48.5 -103.5 48.5
c-44 0 -78.167 -16.167 -102.5 -48.5zM598.5 248.999c10.333 -24 15.5 -50.999 15.5 -80.999c0 -32.667 -5.33301 -60.5 -16 -83.5s-28.667 -34.5 -54 -34.5c-24 0 -41.667 11.333 -53 34s-17 50.667 -17 84s5.33301 61.166 16 83.499s28.667 33.5 54 33.5
c26 0 44.167 -12 54.5 -36z" />
    <glyph glyph-name="ampersand" unicode="&#x26;" horiz-adv-x="666" 
d="M156 672.5c32.667 27.667 75.333 41.5029 128 41.5029c46 0 84 -11.833 114 -35.5s45 -57.834 45 -102.501c0 -24 -6.83301 -46.333 -20.5 -67s-30 -38.834 -49 -54.501s-46.833 -36.5 -83.5 -62.5l178 -200c18.667 34 33.334 69 44.001 105s16 62.667 16 80h72
c-2 -33.333 -9.83301 -72.333 -23.5 -117s-33.167 -86.334 -58.5 -125.001l121 -135h-102l-67 74c-57.333 -58.667 -126 -88 -206 -88c-40 0 -76.333 7 -109 21s-58.834 35.333 -78.501 64s-29.5 64 -29.5 106c0 48 12.333 88.5 37 121.5s58.667 64.167 102 93.5
c-24.667 28.667 -44 56 -58 82s-21 52.667 -21 80c0 51.333 16.333 90.833 49 118.5zM332.999 502.003c18.667 20.667 28 45 28 73c0 22.667 -8 41.5 -24 56.5s-35.333 22.5 -58 22.5c-25.333 0 -47.333 -8.5 -66 -25.5s-28 -41.5 -28 -73.5c0 -17.333 7 -37 21 -59
s29 -42.333 45 -61c36 24 63.333 46.333 82 67zM157.999 266.503c-16.667 -27 -25 -56.833 -25 -89.5c0 -38.667 12.333 -68.667 37 -90s56.667 -32 96 -32c58.667 0 110.667 24.333 156 73l-194 216c-30 -24.667 -53.333 -50.5 -70 -77.5z" />
    <glyph glyph-name="quotesingle" unicode="'" horiz-adv-x="194" 
d="M129 460h-64v240h64v-240z" />
    <glyph glyph-name="parenleft" unicode="(" horiz-adv-x="266" 
d="M232 -202l-70 -0.00195312c-34 78.667 -59.833 154.834 -77.5 228.501s-26.5 150.167 -26.5 229.5s8.83301 155.833 26.5 229.5s43.5 149.834 77.5 228.501h70c-67.333 -142 -101 -294.667 -101 -458s33.667 -316 101 -458z" />
    <glyph glyph-name="parenright" unicode=")" horiz-adv-x="268" 
d="M35 -202l70 0.00390625c34 79.333 60 155.666 78 228.999s27 149.666 27 228.999s-9 155.666 -27 228.999s-44 149.666 -78 228.999h-70c67.333 -142 101 -294.667 101 -458s-33.667 -316 -101 -458z" />
    <glyph glyph-name="asterisk" unicode="*" horiz-adv-x="365" 
d="M231 580l49 -67l-45 -33l-53 72l-52 -72l-45 33l49 67l-76 24l17 54l79 -27v83h56v-83l80 27l17 -54z" />
    <glyph glyph-name="plus" unicode="+" horiz-adv-x="524" 
d="M302 215h142v75h-142v142h-79v-142h-143v-75h143v-143h79v143z" />
    <glyph glyph-name="comma" unicode="," horiz-adv-x="237" 
d="M165 57c0 21.333 -3.16699 36.999 -9.5 46.999s-19.5 15 -39.5 15s-33.667 -5 -41 -15s-11 -24.667 -11 -44c0 -17.333 2.83301 -31.166 8.5 -41.499s16.167 -16.5 31.5 -18.5c0 -14.667 -3.5 -29.5 -10.5 -44.5s-15.833 -27.833 -26.5 -38.5l45 -14
c35.333 38 53 89.333 53 154z" />
    <glyph glyph-name="hyphen" unicode="-" horiz-adv-x="281" 
d="M0 290v-72h281v72h-281z" />
    <glyph glyph-name="period" unicode="." horiz-adv-x="245" 
d="M163.5 14.5c-6.33301 -9.66699 -19.833 -14.5 -40.5 -14.5c-19.333 0.666992 -32.666 6.16699 -39.999 16.5s-11 24.5 -11 42.5s3.66699 32.167 11 42.5s20.666 15.5 39.999 15.5c20 0 33.333 -4.83301 40 -14.5s10 -24.167 10 -43.5c0 -20 -3.16699 -34.833 -9.5 -44.5z
" />
    <glyph glyph-name="slash" unicode="/" horiz-adv-x="495" 
d="M73 -14h-73l423 728h72z" />
    <glyph glyph-name="zero" unicode="0" horiz-adv-x="627" 
d="M439.5 677c37 -24.667 66.5 -64.167 88.5 -118.5s33 -123.833 33 -208.5s-11 -154.167 -33 -208.5s-51.5 -93.833 -88.5 -118.5s-78.833 -37 -125.5 -37c-73.333 0 -133 29.5 -179 88.5s-69 150.833 -69 275.5s23 216.5 69 275.5s105.667 88.5 179 88.5
c46.667 0 88.5 -12.333 125.5 -37zM200 560.5c-28 -51 -41.999 -121.167 -41.999 -210.5c0 -88.667 14 -158.667 42 -210s66 -77 114 -77c31.333 0 58.666 11.5 81.999 34.5s41.333 56.167 54 99.5s19 94.333 19 153c0 89.333 -14 159.5 -42 210.5s-65.667 76.5 -113 76.5
c-48 0 -86 -25.5 -114 -76.5z" />
    <glyph glyph-name="one" unicode="1" horiz-adv-x="352" 
d="M33 527l135 68v-595h84v714h-16l-203 -102v-85z" />
    <glyph glyph-name="two" unicode="2" horiz-adv-x="520" 
d="M43 0l417.999 -0.00195312v76h-272l176 257c21.333 31.333 38.666 64 51.999 98s20 67.333 20 100c0 35.333 -9 66.833 -27 94.5s-42 49.334 -72 65.001s-62.333 23.5 -97 23.5c-28.667 0 -57.5 -5.16699 -86.5 -15.5s-56.167 -24.833 -81.5 -43.5l-3 -93
c21.333 20.667 46.333 37.834 75 51.501s56.334 20.5 83.001 20.5c34.667 0 63.334 -11.667 86.001 -35s34 -51 34 -83c0 -43.333 -19.667 -93.333 -59 -150l-246 -351v-15z" />
    <glyph glyph-name="three" unicode="3" horiz-adv-x="525" 
d="M299 625l-148 -244.001l7 -16c14 2 27.667 3 41 3c48.667 0 88.834 -12.5 120.501 -37.5s47.5 -60.833 47.5 -107.5s-15 -84.667 -45 -114s-68.333 -44 -115 -44c-29.333 0 -59.333 5.16699 -90 15.5s-56.334 24.5 -77.001 42.5v-97c48.667 -26.667 105 -40 169 -40
c48 0 91 9.33301 129 28s68.167 45.667 90.5 81s33.5 77.333 33.5 126c0 63.333 -17.167 113.333 -51.5 150s-79.833 56.334 -136.5 59.001l160 258v12h-381v-75h246z" />
    <glyph glyph-name="four" unicode="4" horiz-adv-x="562" 
d="M366 147h-332v18l250 535h91l-224 -477h215v295h84v-295h74v-76h-74v-147h-84v147z" />
    <glyph glyph-name="five" unicode="5" horiz-adv-x="536" 
d="M174 448c17.333 6.66699 43.0039 9.99707 77.0039 9.99707c44 0 83.167 -9.66699 117.5 -29s61.166 -46.166 80.499 -80.499s29 -73.166 29 -116.499c0 -50 -10.833 -93.5 -32.5 -130.5s-51.834 -65.5 -90.501 -85.5s-82.667 -30 -132 -30c-66.667 0 -124 13.667 -172 41
l3 99c20 -18.667 45.167 -33.667 75.5 -45s60.166 -17 89.499 -17c49.333 0 89.666 15.333 120.999 46s47 71.334 47 122.001c0 47.333 -15.5 83.333 -46.5 108s-71.167 37 -120.5 37c-43.333 0 -81.333 -8 -114 -24l-17 11l3 336h339v-75h-257v-177z" />
    <glyph glyph-name="six" unicode="6" horiz-adv-x="589" 
d="M126.5 66c-41 53.333 -61.502 130.666 -61.502 231.999c0 125.333 23.333 226 70 302s116.667 114 210 114c47.333 0 92 -13 134 -39l-3 -86c-38 31.333 -81 47 -129 47c-41.333 0 -75.666 -12.833 -102.999 -38.5s-47.666 -58.5 -60.999 -98.5s-21 -82.333 -23 -127
c17.333 30 40.666 52.333 69.999 67s59.666 22 90.999 22c44.667 0 83.334 -9.66699 116.001 -29s57.834 -46.166 75.501 -80.499s26.5 -73.5 26.5 -117.5c0 -48 -9.5 -90.833 -28.5 -128.5s-46.167 -67 -81.5 -88s-76.333 -31.5 -123 -31.5
c-78.667 0 -138.5 26.667 -179.5 80zM428.998 314c-12.667 22.667 -29.167 39.832 -49.5 51.499s-41.833 17.5 -64.5 17.5c-46.667 0 -83.334 -15 -110.001 -45s-40 -69.333 -40 -118c0 -44 12.333 -81 37 -111s58.334 -45.333 101.001 -46c46.667 0 82.5 16 107.5 48
s37.5 73 37.5 123c0 30.667 -6.33301 57.334 -19 80.001z" />
    <glyph glyph-name="seven" unicode="7" horiz-adv-x="501" 
d="M345 625l-231 -625h89l260 700h-428v-75h310z" />
    <glyph glyph-name="eight" unicode="8" horiz-adv-x="613" 
d="M420 691c33.333 -15.333 59.166 -37.166 77.499 -65.499s27.5 -61.166 27.5 -98.499c0 -36 -9.5 -67.333 -28.5 -94s-45.833 -45 -80.5 -55c44 -14.667 77.5 -38.167 100.5 -70.5s34.5 -71.5 34.5 -117.5c0 -41.333 -11 -77.5 -33 -108.5s-51.667 -54.667 -89 -71
s-78.333 -24.5 -123 -24.5s-85.667 8.16699 -123 24.5s-66.833 40 -88.5 71s-32.5 67.167 -32.5 108.5c0 46.667 11.333 86 34 118s56.334 55.333 101.001 70c-34.667 10.667 -61.5 29.167 -80.5 55.5s-28.5 57.5 -28.5 93.5c0 37.333 9.16699 70.166 27.5 98.499
s44 50.166 77 65.499s70.833 23 113.5 23s80.667 -7.66699 114 -23zM210.5 602c-22.333 -22 -33.5 -48.333 -33.5 -79s11.167 -57 33.5 -79s54.166 -33 95.499 -33c42 0 74.167 11 96.5 33s33.5 48.333 33.5 79s-11.167 57 -33.5 79s-54.5 33 -96.5 33
c-41.333 0 -73.166 -11 -95.499 -33zM198.5 297.5c-28.333 -23.667 -42.5 -55.834 -42.5 -96.501s14.167 -73.167 42.5 -97.5s64.166 -36.5 107.499 -36.5s79.333 12.167 108 36.5s43 56.833 43 97.5s-14.167 72.834 -42.5 96.501s-64.5 35.5 -108.5 35.5
c-43.333 0 -79.166 -11.833 -107.499 -35.5z" />
    <glyph glyph-name="nine" unicode="9" horiz-adv-x="583" 
d="M458.5 624c39 -60 58.499 -139.667 58.499 -239c0 -124.667 -22.833 -222.334 -68.5 -293.001s-116.834 -106 -213.501 -106c-50.667 0 -97 11 -139 33v93c16.667 -15.333 38.167 -27.666 64.5 -36.999s52.5 -14 78.5 -14c66 0 113.833 26.833 143.5 80.5
s46.5 117.5 50.5 191.5c-18 -25.333 -42.667 -46.333 -74 -63s-66 -25 -104 -25c-36.667 0 -70.667 9 -102 27s-56.333 43.833 -75 77.5s-28 73.167 -28 118.5c0 47.333 8.83301 89.5 26.5 126.5s43.834 66.167 78.501 87.5s76.334 32 125.001 32c80 0 139.5 -30 178.5 -90z
M178.499 364c25 -28 58.501 -42 100.501 -42c42.667 0 76.334 14.833 101.001 44.5s37 67.5 37 113.5c-0.666992 43.333 -13.834 79.5 -39.501 108.5s-58.834 43.5 -99.501 43.5c-42 0 -75.333 -15.5 -100 -46.5s-37 -68.833 -37 -113.5c0 -44 12.5 -80 37.5 -108z" />
    <glyph glyph-name="colon" unicode=":" horiz-adv-x="251" 
d="M166.5 391.5c-6.33301 -9.66699 -19.832 -14.5 -40.499 -14.5c-34 0 -51 19.667 -51 59c0 18 3.66699 32.167 11 42.5s20.666 15.5 39.999 15.5c20 0 33.333 -4.83301 40 -14.5s10 -24.167 10 -43.5c0 -20 -3.16699 -34.833 -9.5 -44.5zM166.501 14.5
c-6.33301 -9.66699 -19.833 -14.5 -40.5 -14.5c-19.333 0.666992 -32.666 6.16699 -39.999 16.5s-11 24.5 -11 42.5s3.66699 32.167 11 42.5s20.666 15.5 39.999 15.5c20 0 33.333 -4.83301 40 -14.5s10 -24.167 10 -43.5c0 -20 -3.16699 -34.833 -9.5 -44.5z" />
    <glyph glyph-name="semicolon" unicode=";" horiz-adv-x="255" 
d="M165.5 391c-6.33301 -9.33301 -19.501 -14 -39.501 -14c-19.333 0 -32.666 5.16699 -39.999 15.5s-11 24.5 -11 42.5s3.66699 32.167 11 42.5s20.333 15.833 39 16.5c20.667 0 34.167 -4.83301 40.5 -14.5s9.5 -24.5 9.5 -44.5s-3.16699 -34.667 -9.5 -44zM175.999 58
c0 20 -3.33301 34.833 -10 44.5s-20.334 14.5 -41.001 14.5c-19.333 -0.666992 -32.666 -6.16699 -39.999 -16.5s-11 -24.5 -11 -42.5c0 -36.667 13.333 -57 40 -61c-6 -36 -18.333 -63.333 -37 -82l46 -14c35.333 38 53 90.333 53 157z" />
    <glyph glyph-name="less" unicode="&#x3c;" horiz-adv-x="424" 
d="M348 452v-88l-167 -101l167 -100v-86l-281 175v25z" />
    <glyph glyph-name="equal" unicode="=" horiz-adv-x="522" 
d="M79 407v-75h364v75h-364zM79 242v-75h364v75h-364z" />
    <glyph glyph-name="greater" unicode="&#x3e;" horiz-adv-x="424" 
d="M357 252l-281 -175v86l167 100l-167 101v88l281 -175v-25z" />
    <glyph glyph-name="question" unicode="?" horiz-adv-x="451" 
d="M221 199c0 14.667 0.999023 28 2.99902 40s5 22.333 9 31c8.66699 17.333 18.667 32.833 30 46.5s27.333 31.5 48 53.5c31.333 32 54.833 60.833 70.5 86.5s23.5 57.167 23.5 94.5c0 34 -9.16699 63.333 -27.5 88s-42.166 43.334 -71.499 56.001s-60.666 19 -93.999 19
c-30.667 0 -62.167 -4.5 -94.5 -13.5s-58.5 -22.167 -78.5 -39.5v-83c20 17.333 45.167 31.166 75.5 41.499s60.166 15.5 89.499 15.5c36 0 63.833 -8.5 83.5 -25.5s28.167 -43.167 25.5 -78.5c-1.33301 -20.667 -7.83301 -39.667 -19.5 -57s-29.5 -39 -53.5 -65
c-24 -25.333 -43 -47.333 -57 -66s-24.667 -40 -32 -64c-3.33301 -10.667 -5 -25 -5 -43l1 -34c0.666992 -7.33301 1 -17.333 1 -30h73v27zM225.499 14c-6.33301 -9.33301 -19.833 -14 -40.5 -14c-18.667 0 -31.667 5.16699 -39 15.5s-11 24.5 -11 42.5
c0 18.667 3.5 33.167 10.5 43.5s20.167 15.5 39.5 15.5c20 0 33.333 -4.83301 40 -14.5s10 -24.5 10 -44.5s-3.16699 -34.667 -9.5 -44z" />
    <glyph glyph-name="at" unicode="@" horiz-adv-x="843" 
d="M569 174c-0.666992 -4.66699 -1.00195 -11.3359 -1.00195 -20.0029c0 -34.667 14.333 -52 43 -52c31.333 0 56 18.667 74 56s27 80 27 128c0 52.667 -11.667 99 -35 139s-55.5 71 -96.5 93s-87.167 33 -138.5 33c-61.333 0 -116 -15.5 -164 -46.5
s-85 -72.167 -111 -123.5s-39 -106.666 -39 -165.999c0 -54 11 -101.833 33 -143.5s52.833 -74 92.5 -97s85.167 -34.5 136.5 -34.5c34.667 0 71.334 4.66699 110.001 14s76.334 22 113.001 38l12 -75c-76 -32 -153.667 -48 -233 -48c-75.333 0 -138.333 15.667 -189 47
s-88.334 73.333 -113.001 126s-37 111 -37 175c0 75.333 16.5 143.833 49.5 205.5s79 110.334 138 146.001s126.167 53.5 201.5 53.5c66.667 0 126 -14 178 -42s92.833 -67.5 122.5 -118.5s44.5 -110.167 44.5 -177.5c0 -48 -7.66699 -91.5 -23 -130.5
s-36.833 -69.5 -64.5 -91.5s-59.167 -33 -94.5 -33c-25.333 0 -47 5.66699 -65 17s-31 27.333 -39 48c-14 -20 -33.5 -36.5 -58.5 -49.5s-51.833 -19.5 -80.5 -19.5c-49.333 0 -86.333 18.833 -111 56.5s-37 83.167 -37 136.5c0 44.667 8.66699 86.334 26 125.001
s41.833 69.667 73.5 93s67.834 35 108.501 35c43.333 0 77.333 -15 102 -45l4 33h79zM443.998 125.998c18.667 18 32.999 41.167 42.999 69.5s15 57.833 15 88.5c0 32.667 -6.16699 59.667 -18.5 81s-33.166 32 -62.499 32c-38 0 -67.833 -18.5 -89.5 -55.5
s-32.5 -80.167 -32.5 -129.5c0 -33.333 6 -60.5 18 -81.5s32 -31.5 60 -31.5c26 0 48.333 9 67 27z" />
    <glyph glyph-name="A" unicode="A" horiz-adv-x="652" 
d="M109 0h-91l296 712h19l301 -712h-96l-60 148h-309zM323 530l-124 -307h248z" />
    <glyph glyph-name="B" unicode="B" horiz-adv-x="582" 
d="M490 311.5c21.333 -30.333 32 -68.167 32 -113.5c0 -69.333 -21.167 -119.666 -63.5 -150.999s-99.833 -47 -172.5 -47h-190v700h180c62 0 113 -14.833 153 -44.5s60 -74.834 60 -135.501c0 -33.333 -8.16699 -62.333 -24.5 -87s-39.833 -44 -70.5 -58
c42.667 -12 74.667 -33.167 96 -63.5zM180 405.999h96c36.667 0 66 9.16699 88 27.5s33 45.5 33 81.5c0 38 -10.5 65.5 -31.5 82.5s-50.833 25.833 -89.5 26.5h-96v-218zM180 75.999l106 0.000976562c47.333 0 82.833 10 106.5 30s35.5 52.333 35.5 97
c0 83.333 -50.667 125.666 -152 126.999h-96v-254z" />
    <glyph glyph-name="C" unicode="C" horiz-adv-x="533" 
d="M421.5 631c17 -4.66699 35.4961 -14.3311 55.4961 -28.998v87c-36 16.667 -76.667 25 -122 25c-100.667 0 -174.167 -34 -220.5 -102s-69.5 -155.333 -69.5 -262s23.167 -194 69.5 -262s119.833 -102 220.5 -102c24.667 0 49.334 3 74.001 9s47.334 14.667 68.001 26v85
c-41.333 -29.333 -88.666 -44 -141.999 -44c-48.667 0 -88.167 14.167 -118.5 42.5s-52 64.166 -65 107.499s-19.5 89.333 -19.5 138s6.5 94.667 19.5 138s34.833 79.166 65.5 107.499s70.334 42.5 119.001 42.5c26.667 0 48.5 -2.33301 65.5 -7z" />
    <glyph glyph-name="D" unicode="D" horiz-adv-x="647" 
d="M439 49.5c47.333 33 83.001 76.167 107.001 129.5s36 110.333 36 171s-12 117.667 -36 171s-59.833 96.5 -107.5 129.5s-105.5 49.5 -173.5 49.5h-169v-700h171c67.333 0 124.666 16.5 171.999 49.5zM390.501 587c34.333 -24.667 60.333 -57.832 78 -99.499
s26.5 -87.5 26.5 -137.5s-8.83301 -95.833 -26.5 -137.5s-43.667 -74.834 -78 -99.501s-75.5 -37 -123.5 -37h-87v548h86c48.667 0 90.167 -12.333 124.5 -37z" />
    <glyph glyph-name="E" unicode="E" horiz-adv-x="522" 
d="M96 700h370v-76h-286v-218h264v-76h-264v-254h296v-76h-380v700z" />
    <glyph glyph-name="F" unicode="F" horiz-adv-x="488" 
d="M96 700h355v-76h-271v-242h249v-76h-249v-306h-84v700z" />
    <glyph glyph-name="G" unicode="G" horiz-adv-x="595" 
d="M524 19c-20 -10.667 -43.167 -18.834 -69.5 -24.501s-52.166 -8.5 -77.499 -8.5c-69.333 0 -127.333 16.333 -174 49s-81.334 76.5 -104.001 131.5s-34 115.833 -34 182.5c0 67.333 11.5 128.666 34.5 183.999s57.833 99.333 104.5 132s104.334 49 173.001 49
c48 0 90.333 -9 127 -27v-86c-20.667 14 -40.334 23.667 -59.001 29s-41 8 -67 8c-48.667 0 -90 -14.167 -124 -42.5s-59.5 -64.666 -76.5 -108.999s-25.5 -90.166 -25.5 -137.499c0 -46.667 8.33301 -92 25 -136s42 -80.167 76 -108.5s75.333 -42.5 124 -42.5
c22.667 0 43.667 2.33301 63 7v267h84v-317z" />
    <glyph glyph-name="H" unicode="H" horiz-adv-x="661" 
d="M96 700h84v-297h301v297h84v-700h-84v328h-301v-328h-84v700z" />
    <glyph glyph-name="I" unicode="I" horiz-adv-x="276" 
d="M96 700h84v-700h-84v700z" />
    <glyph glyph-name="J" unicode="J" horiz-adv-x="486" 
d="M311 624v-425.001c0 -46 -11.167 -80.333 -33.5 -103s-56.833 -34 -103.5 -34c-52 0 -102 16 -150 48v-78c19.333 -14.667 42.833 -26 70.5 -34s54.5 -12 80.5 -12c66.667 0 120 18.833 160 56.5s60 89.834 60 156.501v501h-297v-76h213z" />
    <glyph glyph-name="K" unicode="K" horiz-adv-x="635" 
d="M96 700h84v-700h-84v700zM467 700l-251 -324v-19l291 -357h110l-304 373l256 327h-102z" />
    <glyph glyph-name="L" unicode="L" horiz-adv-x="493" 
d="M96 700h84v-624h289v-76h-373v700z" />
    <glyph glyph-name="M" unicode="M" horiz-adv-x="779" 
d="M396 104l193 387l79 -491h86l-122 712h-19l-227 -458l-226 458h-19l-116 -712h86l73 491l193 -387h19z" />
    <glyph glyph-name="N" unicode="N" horiz-adv-x="683" 
d="M115 712l388 -504v492h84v-713h-19l-388 500v-487h-84v712h19z" />
    <glyph glyph-name="O" unicode="O" horiz-adv-x="703" 
d="M569.5 611c45.667 -68.667 68.5 -155.667 68.5 -261s-22.667 -192.333 -68 -261s-118 -103 -218 -103s-172.833 34.5 -218.5 103.5s-68.5 155.833 -68.5 260.5c0 105.333 23 192.333 69 261s118.667 103 218 103s171.833 -34.333 217.5 -103zM235.5 594.5
c-29.667 -29 -51 -65.501 -64 -109.501s-19.5 -89 -19.5 -135c0 -46.667 6.5 -91.834 19.5 -135.501s34.5 -80 64.5 -109s68.667 -43.5 116 -43.5s85.833 14.5 115.5 43.5s51 65.333 64 109s19.5 88.834 19.5 135.501s-6.5 91.834 -19.5 135.501s-34.333 80 -64 109
s-68.167 43.5 -115.5 43.5c-48 0 -86.833 -14.5 -116.5 -43.5z" />
    <glyph glyph-name="P" unicode="P" horiz-adv-x="567" 
d="M96 0l84 -0.000976562v269h91c75.333 0 135.833 17.833 181.5 53.5s68.5 89.834 68.5 162.501c0 70.667 -23.167 124.167 -69.5 160.5s-106.5 54.5 -180.5 54.5h-175v-700zM271 624.999c50 0 89.167 -11.833 117.5 -35.5s42.5 -58.5 42.5 -104.5
c0 -48 -14.167 -83.333 -42.5 -106s-67.5 -34 -117.5 -34h-91v280h91z" />
    <glyph glyph-name="Q" unicode="Q" horiz-adv-x="674" 
d="M568.5 611c45.667 -68.667 68.499 -155.67 68.499 -261.003c0 -83.333 -14.5 -155.666 -43.5 -216.999s-74.833 -103.666 -137.5 -126.999l184 -103l-43 -78l-272 165c-91.333 6.66699 -157.666 43.334 -198.999 110.001s-62 150 -62 250c0 105.333 23 192.333 69 261
s118.667 103 218 103s171.833 -34.333 217.5 -103zM234.499 594.497c-29.667 -29 -51 -65.502 -64 -109.502s-19.5 -89 -19.5 -135c0 -46.667 6.5 -91.667 19.5 -135s34.5 -79.166 64.5 -107.499s68.667 -42.5 116 -42.5s85.833 14.333 115.5 43s51 64.5 64 107.5
s19.5 87.833 19.5 134.5s-6.5 91.834 -19.5 135.501s-34.333 80 -64 109s-68.167 43.5 -115.5 43.5c-48 0 -86.833 -14.5 -116.5 -43.5z" />
    <glyph glyph-name="R" unicode="R" horiz-adv-x="612" 
d="M225 338l-0.000976562 24.001h65c46.667 0 83.5 11.167 110.5 33.5s40.5 56.166 40.5 101.499c0 44 -13.667 76 -41 96s-64 30 -110 30h-110v-623h-84v700h194c71.333 0 129.333 -16.5 174 -49.5s67 -84.167 67 -153.5c0 -57.333 -15.667 -103 -47 -137
s-73.666 -56 -126.999 -66l214 -294h-104z" />
    <glyph glyph-name="S" unicode="S" horiz-adv-x="543" 
d="M177 470.5c12.667 -16.333 28 -29.332 46 -38.999s44.667 -21.834 80 -36.501c57.333 -24 103.333 -52.667 138 -86s52 -74.333 52 -123c0 -39.333 -10.333 -74.166 -31 -104.499s-48.334 -53.833 -83.001 -70.5s-72.334 -25 -113.001 -25
c-44 0 -82.5 3.83301 -115.5 11.5s-63.167 19.5 -90.5 35.5v91c54 -39.333 113 -59 177 -59c46.667 0 85.5 10.333 116.5 31s46.5 50.667 46.5 90c0 25.333 -6.66699 46.5 -20 63.5s-29.333 30.5 -48 40.5s-45.667 22.333 -81 37
c-59.333 24.667 -104.666 52.667 -135.999 84s-47 71.666 -47 120.999c0 58 19.333 102.833 58 134.5s88.334 47.5 149.001 47.5c29.333 0 58.333 -3.83301 87 -11.5s55 -18.5 79 -32.5l1 -84c-48 32 -102 48.667 -162 50c-34.667 0 -63.667 -9.5 -87 -28.5
s-35 -44.167 -35 -75.5c0 -24.667 6.33301 -45.167 19 -61.5z" />
    <glyph glyph-name="T" unicode="T" horiz-adv-x="520" 
d="M218 625h-189v75h462v-75h-189v-625h-84v625z" />
    <glyph glyph-name="U" unicode="U" horiz-adv-x="673" 
d="M583 700l-84.001 -0.00195312v-432c0 -58 -13.167 -106.833 -39.5 -146.5s-67.166 -59.5 -122.499 -59.5c-56 0 -97.167 19.833 -123.5 59.5s-39.5 88.5 -39.5 146.5v432h-84v-432c0 -85.333 20 -153.666 60 -204.999s102.333 -77 187 -77
c54.667 0 100.5 12.5 137.5 37.5s64.333 58.833 82 101.5s26.5 90.334 26.5 143.001v432z" />
    <glyph glyph-name="V" unicode="V" horiz-adv-x="664" 
d="M320 -13l-296 713h91l214 -531l215 531h96l-301 -713h-19z" />
    <glyph glyph-name="W" unicode="W" horiz-adv-x="944" 
d="M255 -13l-227 713h89l156 -511l185 478h28l186 -478l155 511h89l-226 -713h-20l-198 508l-198 -508h-19z" />
    <glyph glyph-name="X" unicode="X" horiz-adv-x="637" 
d="M613 0h-98l-197 300l-197 -300h-98l246 375l-212 325h98l163 -249l163 249h98l-212 -325z" />
    <glyph glyph-name="Y" unicode="Y" horiz-adv-x="637" 
d="M613 700h-97l-197 -310l-197 310h-98l253 -387v-313h84v313z" />
    <glyph glyph-name="Z" unicode="Z" horiz-adv-x="591" 
d="M536 700h-458v-76h326l-364 -607v-17h507v75h-376l365 606v19z" />
    <glyph glyph-name="bracketleft" unicode="[" horiz-adv-x="263" 
d="M173 -143h55v-59h-132v975h132v-59h-55v-857z" />
    <glyph glyph-name="backslash" unicode="\" horiz-adv-x="495" 
d="M72 714l423 -728h-73l-422 728h72z" />
    <glyph glyph-name="bracketright" unicode="]" horiz-adv-x="263" 
d="M35 714v59h132v-975h-132v59h55v857h-55z" />
    <glyph glyph-name="asciicircum" unicode="^" horiz-adv-x="518" 
d="M258 636l-125 -197h-94l203 296h32l204 -296h-92z" />
    <glyph glyph-name="underscore" unicode="_" horiz-adv-x="449" 
d="M0 -14v-62h449v62h-449z" />
    <glyph glyph-name="grave" unicode="`" horiz-adv-x="600" 
d="M182 908l136 -117l-36 -41l-148 102z" />
    <glyph glyph-name="a" unicode="a" horiz-adv-x="506" 
d="M352 324c-22.667 1.33301 -40.3311 2 -52.998 2c-22 0 -46.333 -1.66699 -73 -5c-52.667 -8 -95.834 -26.5 -129.501 -55.5s-50.5 -69.167 -50.5 -120.5c0 -29.333 7 -56 21 -80s33.667 -43.167 59 -57.5s55 -21.5 89 -21.5c26.667 0 51.834 6.5 75.501 19.5
s44.167 30.833 61.5 53.5l9 -59h68v343c0 54 -17.333 96.667 -52 128s-79.334 47 -134.001 47c-27.333 -0.666992 -52.833 -4 -76.5 -10s-49.834 -16 -78.501 -30l-2 -76c45.333 34 98.333 50 159 48c32.667 -0.666992 58.667 -11 78 -31s29 -46.333 29 -79v-16z
M314.003 93.5c-24.667 -25 -55.999 -37.501 -93.999 -37.501c-25.333 0 -46.833 8.66699 -64.5 26s-26.5 40 -26.5 68c0 37.333 14 64.333 42 81s61.333 26.334 100 29.001c8 0.666992 20 1 36 1c21.333 0 36.333 -0.333008 45 -1v-67
c-0.666992 -41.333 -13.334 -74.5 -38.001 -99.5z" />
    <glyph glyph-name="b" unicode="b" horiz-adv-x="569" 
d="M80 700l77 -0.000976562v-259c36.667 51.333 84.334 77 143.001 77c47.333 0 86.833 -12.333 118.5 -37s55.167 -57.167 70.5 -97.5s23 -84.166 23 -131.499c0 -42.667 -7 -84.167 -21 -124.5s-37 -74 -69 -101s-73.667 -40.5 -125 -40.5
c-56.667 0 -103.334 25.667 -140.001 77v-63h-77v700zM396 113.499c22.667 40.333 34 86.501 34 138.501c0 31.333 -4.5 62.166 -13.5 92.499s-23.833 55.5 -44.5 75.5s-47 30 -79 30c-46 0 -80.167 -20 -102.5 -60s-33.5 -86 -33.5 -138s11.167 -98.167 33.5 -138.5
s56.5 -60.5 102.5 -60.5s80.333 20.167 103 60.5z" />
    <glyph glyph-name="c" unicode="c" horiz-adv-x="455" 
d="M84 385.5c18 40.333 44.6689 72.5 80.002 96.5s77.666 36 126.999 36c39.333 0 74.666 -8 105.999 -24l2 -81c-11.333 10.667 -25.833 19 -43.5 25s-35.834 9 -54.501 9c-51.333 0 -91 -18.167 -119 -54.5s-42 -82.833 -42 -139.5c0 -55.333 12.667 -101.833 38 -139.5
s64 -56.5 116 -56.5c20.667 0 41.834 3.16699 63.501 9.5s41.5 14.833 59.5 25.5l-4 -80c-38.667 -17.333 -81.667 -26 -129 -26c-49.333 0 -91 12 -125 36s-59.5 56 -76.5 96s-25.5 84.667 -25.5 134c0 48.667 9 93.167 27 133.5z" />
    <glyph glyph-name="d" unicode="d" horiz-adv-x="569" 
d="M489 700l-77 -0.000976562v-259c-16.667 24 -37.167 42.833 -61.5 56.5s-51.5 20.5 -81.5 20.5c-47.333 0 -87 -12.333 -119 -37s-55.5 -57.167 -70.5 -97.5s-22.5 -84.166 -22.5 -131.499c0 -43.333 6.83301 -85 20.5 -125s36.5 -73.5 68.5 -100.5
s73.667 -40.5 125 -40.5c30 0 56.833 7 80.5 21s44.167 33.333 61.5 58l6 -65h70v700zM172.5 113.499c-22.333 40.333 -33.5 86.501 -33.5 138.501c0 31.333 4.5 62.166 13.5 92.499s23.667 55.5 44 75.5s46.5 30 78.5 30c46 0 80.333 -20 103 -60s34 -86 34 -138
s-11.333 -98.167 -34 -138.5s-57 -60.5 -103 -60.5s-80.167 20.167 -102.5 60.5z" />
    <glyph glyph-name="e" unicode="e" horiz-adv-x="518" 
d="M418.5 455.5c31 -41.667 46.502 -94.167 46.502 -157.5c0 -18.667 -1.66699 -39 -5 -61h-323c2 -52.667 14.5 -96 37.5 -130s59.5 -51 109.5 -51c29.333 0 56.666 4.83301 81.999 14.5s50.666 24.5 75.999 44.5l-1 -81c-43.333 -32 -94.333 -48 -153 -48
c-48.667 0 -90.334 11.167 -125.001 33.5s-61 53.333 -79 93s-27 85.167 -27 136.5c0 79.333 18.833 144 56.5 194s91.834 75 162.501 75c64 0 111.5 -20.833 142.5 -62.5zM388.002 308c-1.33301 92.667 -38.999 139 -112.999 139c-38.667 0 -68.834 -13 -90.501 -39
s-36.167 -59.333 -43.5 -100h247z" />
    <glyph glyph-name="f" unicode="f" horiz-adv-x="310" 
d="M198.5 627c10.333 12 23.499 18.0029 39.499 18.0029c14 0.666992 26.333 -0.333008 37 -3s22.334 -7.66699 35.001 -15v77c-18.667 4.66699 -33.5 7.66699 -44.5 9s-24.5 1.66602 -40.5 0.999023c-34 -0.666992 -62.333 -12.834 -85 -36.501s-34 -54.834 -34 -93.501
v-80h-74v-70h74v-434h77v434h114v70h-114v80c0 16.667 5.16699 31 15.5 43z" />
    <glyph glyph-name="g" unicode="g" horiz-adv-x="568" 
d="M412 445l7 59.002h69v-504c0 -67.333 -19 -119.5 -57 -156.5s-92.333 -55.5 -163 -55.5c-60.667 0 -112.667 13 -156 39v84c22 -18.667 45.5 -31.834 70.5 -39.501s53.5 -11.5 85.5 -11.5c44.667 0 79.667 12.167 105 36.5s38 58.833 38 103.5v81
c-37.333 -47.333 -86 -71 -146 -71c-50 0 -90.5 12.667 -121.5 38s-53.167 57.166 -66.5 95.499s-20 78.5 -20 120.5c0 72.667 17.833 133.167 53.5 181.5s88.5 72.5 158.5 72.5c58 0 105.667 -24.333 143 -73zM198.5 421.002
c-20.333 -18.667 -35.1641 -42.166 -44.4971 -70.499s-14 -57.166 -14 -86.499s4.66699 -58.333 14 -87s24.166 -52.334 44.499 -71.001s45.833 -28 76.5 -28c31.333 0 57.166 9.16699 77.499 27.5s35.166 41.666 44.499 69.999s14 57.833 14 88.5
c0 49.333 -11.333 92.5 -34 129.5s-56.667 55.5 -102 55.5c-30.667 0 -56.167 -9.33301 -76.5 -28z" />
    <glyph glyph-name="h" unicode="h" horiz-adv-x="546" 
d="M392 0l77.002 0.00292969v344c0 55.333 -14.333 98.166 -43 128.499s-71.334 45.5 -128.001 45.5c-28.667 0 -55.334 -6.16699 -80.001 -18.5s-45 -29.5 -61 -51.5v252h-77v-700h77v289c0 45.333 11.167 83.5 33.5 114.5s54.833 46.5 97.5 46.5
c28 -0.666992 52.333 -9.83398 73 -27.501s31 -43.834 31 -78.501v-344z" />
    <glyph glyph-name="i" unicode="i" horiz-adv-x="248" 
d="M161 603c-6 -9.33301 -18.333 -14.001 -37 -14.001c-17.333 0 -29.333 5 -36 15s-10 23.333 -10 40c0 17.333 3.33301 30.833 10 40.5s18.667 14.834 36 15.501c18.667 0 31 -4.66699 37 -14s9 -23.333 9 -42c0 -18 -3 -31.667 -9 -41zM86 503.999h77v-504h-77v504z" />
    <glyph glyph-name="j" unicode="j" horiz-adv-x="239" 
d="M151 603c-6 -9.33301 -18.333 -14 -37 -14c-30.667 0 -46 18.333 -46 55c0 16.667 3.33301 30 10 40s18.667 15.333 36 16c18.667 0 31 -4.66699 37 -14s9 -23.333 9 -42c0 -18 -3 -31.667 -9 -41zM58.5 -120.5c-11.667 -11 -28.167 -16.5 -49.5 -16.5
c-22 0 -41.667 5.33301 -59 16v-74c24 -7.33301 48 -11 72 -11c42.667 0 75.167 11.667 97.5 35s33.5 56 33.5 98v577h-77v-577c0 -20.667 -5.83301 -36.5 -17.5 -47.5z" />
    <glyph glyph-name="k" unicode="k" horiz-adv-x="509" 
d="M80 0v700h77v-700h-77zM369 504h95l-204 -236l229 -268h-98l-214 252v27z" />
    <glyph glyph-name="l" unicode="l" horiz-adv-x="237" 
d="M80 700h77v-700h-77v700z" />
    <glyph glyph-name="m" unicode="m" horiz-adv-x="807" 
d="M80 504h70.0039l6 -50c17.333 20.667 37.833 36.5 61.5 47.5s49.167 16.5 76.5 16.5c31.333 0 57.5 -6.5 78.5 -19.5s38.167 -33.167 51.5 -60.5c19.333 26.667 40.666 46.667 63.999 60s51 20 83 20c51.333 0 90.666 -14.667 117.999 -44s41 -69.333 41 -120v-354h-77
v342c0 28.667 -8.5 53.667 -25.5 75s-39.833 32 -68.5 32c-36 0 -63.833 -14.333 -83.5 -43s-30.167 -62 -31.5 -100v-306h-77v341c-0.666992 29.333 -8.83398 54.5 -24.501 75.5s-38.5 31.5 -68.5 31.5c-38.667 0 -67.834 -14.5 -87.501 -43.5s-29.5 -64.167 -29.5 -105.5
v-299h-77v504z" />
    <glyph glyph-name="n" unicode="n" 
d="M80 504l70.002 0.000976562l6 -53c17.333 20.667 38.166 37 62.499 49s50.5 18 78.5 18c55.333 0 97.666 -15.5 126.999 -46.5s44 -73.167 44 -126.5v-345h-77v345c0 31.333 -9.33301 56.666 -28 75.999s-44.334 29 -77.001 29c-39.333 0 -70.666 -14.5 -93.999 -43.5
s-35 -63.833 -35 -104.5v-302h-77v504z" />
    <glyph glyph-name="o" unicode="o" horiz-adv-x="562" 
d="M411.5 478c33.667 -26.667 57.667 -60.167 72 -100.5s21.5 -82.166 21.5 -125.499s-7.16699 -85.166 -21.5 -125.499s-38.333 -73.833 -72 -100.5s-77.167 -40 -130.5 -40s-96.833 13.333 -130.5 40s-57.667 60.167 -72 100.5s-21.5 82.166 -21.5 125.499
s7.16699 85.166 21.5 125.499s38.333 73.833 72 100.5s77.167 40 130.5 40s96.833 -13.333 130.5 -40zM172.5 388c-21.667 -40 -32.498 -85.333 -32.498 -136s11 -96 33 -136s58 -60 108 -60s86 20 108 60s33 85.333 33 136s-10.833 96 -32.5 136s-57.834 60 -108.501 60
s-86.834 -20 -108.501 -60z" />
    <glyph glyph-name="p" unicode="p" horiz-adv-x="569" 
d="M80 -196l77 0.000976562v259c36.667 -51.333 84.334 -77 143.001 -77c47.333 0 86.833 12.333 118.5 37s55.167 57.167 70.5 97.5s23 84.166 23 131.499c0 42.667 -7 84.167 -21 124.5s-37 74 -69 101s-73.667 40.5 -125 40.5c-56.667 0 -103.334 -25.667 -140.001 -77
v63h-77v-700zM396 390.501c22.667 -40.333 34 -86.502 34 -138.502c0 -31.333 -4.5 -62.166 -13.5 -92.499s-23.833 -55.666 -44.5 -75.999s-47 -30.5 -79 -30.5c-46 0 -80.167 20.167 -102.5 60.5s-33.5 86.5 -33.5 138.5s11.167 98.167 33.5 138.5s56.5 60.5 102.5 60.5
s80.333 -20.167 103 -60.5z" />
    <glyph glyph-name="q" unicode="q" horiz-adv-x="569" 
d="M489 -196l-76.999 0.000976562v259c-36.667 -51.333 -84.334 -77 -143.001 -77c-47.333 0 -86.833 12.333 -118.5 37s-55.167 57.167 -70.5 97.5s-23 84.166 -23 131.499c0 42.667 7 84.167 21 124.5s37 74 69 101s73.667 40.5 125 40.5c30 0 56.833 -7 80.5 -21
s44.167 -33.333 61.5 -58l5 65h70v-700zM173.001 390.501c-22.667 -40.333 -34 -86.502 -34 -138.502c0 -31.333 4.5 -62.166 13.5 -92.499s23.833 -55.666 44.5 -75.999s47 -30.5 79 -30.5c46 0 80.167 20.167 102.5 60.5s33.5 86.5 33.5 138.5s-11.167 98.167 -33.5 138.5
s-56.5 60.5 -102.5 60.5s-80.333 -20.167 -103 -60.5z" />
    <glyph glyph-name="r" unicode="r" horiz-adv-x="367" 
d="M80 504h71.999l5 -53c16.667 21.333 37.667 37.833 63 49.5s52.666 17.5 81.999 17.5c17.333 0 33 -1.33301 47 -4v-75c-13.333 7.33301 -32.666 11 -57.999 11c-26 0 -49.167 -7 -69.5 -21s-36.166 -33 -47.499 -57s-17 -50 -17 -78v-294h-77v504z" />
    <glyph glyph-name="s" unicode="s" horiz-adv-x="446" 
d="M202 57c34.667 0 62.165 6.66895 82.498 20.002s30.5 34 30.5 62c0 26 -8.16699 44.667 -24.5 56s-41.166 21.666 -74.499 30.999c-50 14.667 -88.667 33 -116 55s-41 54.667 -41 98c0 45.333 14.667 79.833 44 103.5s68.333 35.5 117 35.5c22 0 44.333 -2.33301 67 -7
s43.334 -11.334 62.001 -20.001l4 -81c-37.333 24 -77.333 36 -120 36c-30.667 0 -53.667 -6.16699 -69 -18.5s-23 -28.833 -23 -49.5c0 -25.333 9.5 -44.166 28.5 -56.499s45.167 -22.833 78.5 -31.5c41.333 -10.667 76.833 -26.834 106.5 -48.501s44.5 -55.5 44.5 -101.5
c0 -48 -18 -85.667 -54 -113s-82.667 -41 -140 -41c-46 0 -94.333 10 -145 30l-6 87c46 -30.667 95.333 -46 148 -46z" />
    <glyph glyph-name="t" unicode="t" horiz-adv-x="334" 
d="M28 504h77.999v104l77 17v-121h112v-70h-112v-311c0 -45.333 21.333 -68.333 64 -69c20.667 0 41.334 5.66699 62.001 17l1 -74c-16 -4.66699 -29.333 -7.66699 -40 -9s-23 -2 -37 -2c-40.667 0 -72 12.333 -94 37s-33 57.667 -33 99v312h-78v70z" />
    <glyph glyph-name="u" unicode="u" 
d="M465 0h-71.001l-6 53c-16.667 -20.667 -37.167 -37 -61.5 -49s-50.5 -18 -78.5 -18c-55.333 0 -97.666 15.5 -126.999 46.5s-44 73.167 -44 126.5v345h77v-345c0 -31.333 9.16699 -56.5 27.5 -75.5s43.833 -28.5 76.5 -28.5c40 0 71.667 14.5 95 43.5s35 63.833 35 104.5
v301h77v-504z" />
    <glyph glyph-name="v" unicode="v" horiz-adv-x="511" 
d="M194 304l-83 200h-86l218 -518h25l218 518h-88l-84 -200l-60 -174z" />
    <glyph glyph-name="w" unicode="w" horiz-adv-x="776" 
d="M186 299l-73 205h-84l187 -518h23l149 355l149 -355h24l186 518h-83l-74 -205l-44 -151l-145 344h-25l-146 -344z" />
    <glyph glyph-name="x" unicode="x" horiz-adv-x="500" 
d="M383 0h94l-178 270l152 234h-94l-107 -172l-105 172h-95l152 -234l-179 -270h94l133 213z" />
    <glyph glyph-name="y" unicode="y" horiz-adv-x="517" 
d="M408 504l-75.999 -202l-63 -182l-73 182l-85 202h-86l205 -478l-42 -112c-5.33301 -16 -13 -27.833 -23 -35.5s-23 -11.5 -39 -11.5c-10 0 -21 1.66699 -33 5s-23.333 7.66602 -34 12.999v-70c10 -7.33301 21.667 -12.666 35 -15.999s26 -5 38 -5
c31.333 0 58.666 10.167 81.999 30.5s40.333 45.833 51 76.5l226 603h-83z" />
    <glyph glyph-name="z" unicode="z" horiz-adv-x="461" 
d="M407 504v-23l-252 -413h260v-68h-375v27l253 409h-231v68h345z" />
    <glyph glyph-name="braceleft" unicode="{" horiz-adv-x="271" 
d="M159.5 330c-11 -19.333 -24.5 -34.668 -40.5 -46.001c16 -11.333 29.5 -26.666 40.5 -45.999s16.5 -39.333 16.5 -60v-260c0 -16.667 5.16699 -31 15.5 -43s23.5 -18 39.5 -18l2 -59c-40.667 0 -73.167 12 -97.5 36s-36.5 55.667 -36.5 95v259
c0 18 -5.83301 34.333 -17.5 49s-27.5 22 -47.5 22v50c20 0 35.833 7.33301 47.5 22s17.5 31 17.5 49v262c0 39.333 12.167 71 36.5 95s56.833 36 97.5 36l-2 -59c-16 0 -29.167 -6 -39.5 -18s-15.5 -26.333 -15.5 -43v-263c0 -20.667 -5.5 -40.667 -16.5 -60z" />
    <glyph glyph-name="bar" unicode="|" horiz-adv-x="264" 
d="M168 785v-977h-72v977h72z" />
    <glyph glyph-name="braceright" unicode="}" horiz-adv-x="271" 
d="M95 653c0 16.667 -5.16699 31.002 -15.5 43.002s-23.5 18 -39.5 18l-2 59c40.667 0 73.167 -12 97.5 -36s36.5 -55.667 36.5 -95v-262c0 -18 5.83301 -34.333 17.5 -49s27.5 -22 47.5 -22v-50c-20 0 -35.833 -7.33301 -47.5 -22s-17.5 -31 -17.5 -49v-259
c0 -39.333 -12.167 -71 -36.5 -95s-56.833 -36 -97.5 -36l2 59c16 0 29.167 6 39.5 18s15.5 26.333 15.5 43v260c0 20.667 5.5 40.667 16.5 60s24.5 34.666 40.5 45.999c-16 11.333 -29.5 26.666 -40.5 45.999s-16.5 39.333 -16.5 60v263z" />
    <glyph glyph-name="asciitilde" unicode="~" horiz-adv-x="561" 
d="M163 229c-10.667 -5.33301 -18.833 -10.666 -24.5 -15.999s-9.16699 -9 -10.5 -11l-50 48c0 2 4.83301 8.33301 14.5 19s23.5 20.667 41.5 30s40 14 66 14c16.667 0 31 -2.33301 43 -7s27.333 -11.667 46 -21c14 -8.66699 26.333 -15 37 -19s22.334 -6 35.001 -6
c14 0 26.167 2.66699 36.5 8s18.333 10.666 24 15.999s9.16699 9 10.5 11l51 -47c0 -2 -4.83301 -8.5 -14.5 -19.5s-23.5 -21.167 -41.5 -30.5s-40 -14 -66 -14c-17.333 0 -32.333 2.5 -45 7.5s-27.667 12.167 -45 21.5c-15.333 8 -27.833 14 -37.5 18s-20.834 6 -33.501 6
c-14 0 -26.333 -2.66699 -37 -8z" />
    <glyph glyph-name="exclamdown" unicode="&#xa1;" horiz-adv-x="280" 
d="M180.5 401c-6.33301 -9.33301 -19.832 -14 -40.499 -14c-18.667 0 -31.667 5.16699 -39 15.5s-11 24.5 -11 42.5s3.66699 32.167 11 42.5s20.666 15.833 39.999 16.5c20 0 33.167 -4.83301 39.5 -14.5s9.5 -24.5 9.5 -44.5s-3.16699 -34.667 -9.5 -44zM104.001 333
l-6 -121l-3 -408h90l-3 409l-5 120h-73z" />
    <glyph glyph-name="cent" unicode="&#xa2;" horiz-adv-x="455" 
d="M413 12c-30.667 -14 -67.668 -22.668 -111.001 -26.001v-75h-59v78c-60.667 9.33301 -106.834 38.333 -138.501 87s-47.5 107.334 -47.5 176.001c0 66 16.333 123.333 49 172s78.334 78.667 137.001 90v79h59v-75c33.333 -1.33301 65 -9.33301 95 -24l2 -81
c-11.333 10.667 -25.666 19 -42.999 25s-35.333 9 -54 9v-390c42.667 2 81 13.667 115 35zM165.499 133.999c17 -34 42.833 -57 77.5 -69v372c-33.333 -12 -58.833 -34.5 -76.5 -67.5s-26.5 -71.833 -26.5 -116.5c0 -45.333 8.5 -85 25.5 -119z" />
    <glyph glyph-name="sterling" unicode="&#xa3;" horiz-adv-x="565" 
d="M509 75l0.000976562 -75h-452v23c39.333 24 68.5 53.333 87.5 88s28.5 73.334 28.5 116.001c0 29.333 -4.66699 61 -14 95h-88v66h70c-9.33301 36 -14 70.333 -14 103c0 69.333 19.833 123.833 59.5 163.5s92.167 59.5 157.5 59.5c48.667 0 95 -13 139 -39v-84
c-18 12.667 -38.167 22.334 -60.5 29.001s-44.833 10 -67.5 10c-44.667 0 -78.834 -12.833 -102.501 -38.5s-35.5 -62.5 -35.5 -110.5c0 -27.333 3 -58.333 9 -93h197v-66h-186c1.33301 -5.33301 4.5 -20.833 9.5 -46.5s7.5 -49.834 7.5 -72.501
c0 -44.667 -13.333 -87.334 -40 -128.001h295z" />
    <glyph glyph-name="currency" unicode="&#xa4;" horiz-adv-x="531" 
d="M433 255c0 -34.667 -10 -66.668 -30 -96.001l65 -65l-41 -41l-65 64c-28.667 -20 -61 -30 -97 -30c-34.667 0 -66.667 10 -96 30l-65 -64l-41 41l64 65c-20 28 -30 59.667 -30 95c0 36.667 10.333 69.334 31 98.001l-65 65l41 41l65 -65c29.333 20 61.333 30 96 30
c36 0 68 -10 96 -30l66 65l41 -41l-65 -66c20 -28 30 -60 30 -96zM265 147.999c30 0 55.333 10.333 76 31c21.333 21.333 32 47 32 77c0 14 -2.66699 27.5 -8 40.5s-13.333 24.833 -24 35.5c-10 10 -21.5 17.667 -34.5 23s-26.5 8 -40.5 8c-30 0 -55.667 -10.667 -77 -32
c-20.667 -20.667 -31 -46 -31 -76s10.333 -55.333 31 -76s46 -31 76 -31z" />
    <glyph glyph-name="yen" unicode="&#xa5;" horiz-adv-x="614" 
d="M238 353l-204 347h98l172 -310l179 310h97l-210 -347h129v-59h-153v-63h153v-60h-153v-171h-84v171h-154v60h154v63h-154v59h130z" />
    <glyph glyph-name="brokenbar" unicode="&#xa6;" horiz-adv-x="264" 
d="M168 785v-445h-72v445h72zM168 266v-457h-72v457h72z" />
    <glyph glyph-name="section" unicode="&#xa7;" horiz-adv-x="482" 
d="M312.5 167c-19 10 -48.5039 20.667 -88.5039 32c-36 9.33301 -65.167 18.666 -87.5 27.999s-41.333 23 -57 41s-23.5 41.667 -23.5 71c0 44 20.667 83 62 117c-34.667 24.667 -52 59.334 -52 104.001s16 79.167 48 103.5s77.667 36.5 137 36.5
c28.667 0 55.667 -2.5 81 -7.5s44.333 -10.167 57 -15.5l-22 -67c-1.33301 0.666992 -12.166 3.5 -32.499 8.5s-45.5 7.5 -75.5 7.5c-34.667 0 -61.167 -5.5 -79.5 -16.5s-27.5 -26.5 -27.5 -46.5s9 -35 27 -45s46.333 -20.667 85 -32c34.667 -10 62.5 -19.667 83.5 -29
s39 -22.833 54 -40.5s22.5 -41.167 22.5 -70.5c0 -42.667 -18.333 -80 -55 -112c21.333 -13.333 37 -29 47 -47s15 -39.333 15 -64c0 -46 -17.667 -81.333 -53 -106s-85.666 -37 -150.999 -37c-27.333 0 -53 2 -77 6s-43.167 8 -57.5 12s-23.166 6.66699 -26.499 8l22 70
c14 -4 32.833 -8.33301 56.5 -13s49.167 -7 76.5 -7c38.667 0 68.334 5.66699 89.001 17s31 27.333 31 48s-9.5 36 -28.5 46zM139.996 350c0 -20 9 -34.834 27 -44.501s46.333 -19.167 85 -28.5l44 -12c12.667 10 23.167 20.333 31.5 31s12.5 23.334 12.5 38.001
c0 19.333 -8.5 33.833 -25.5 43.5s-43.167 19.167 -78.5 28.5l-48 15c-32 -22 -48 -45.667 -48 -71z" />
    <glyph glyph-name="dieresis" unicode="&#xa8;" horiz-adv-x="600" 
d="M167 793c-8 5.33301 -12 16.666 -12 33.999c0 16 4.33301 27 13 33s20.667 9 36 9s27.333 -3 36 -9s13 -17 13 -33c0 -17.333 -4 -28.666 -12 -33.999s-20.333 -8 -37 -8s-29 2.66699 -37 8zM352 793c-8 5.33301 -12 16.666 -12 33.999c0 16 4.33301 27 13 33
s20.667 9 36 9s27.5 -3 36.5 -9s13.5 -17 13.5 -33c0 -17.333 -4.16699 -28.666 -12.5 -33.999s-20.833 -8 -37.5 -8s-29 2.66699 -37 8z" />
    <glyph glyph-name="copyright" unicode="&#xa9;" horiz-adv-x="859" 
d="M614 667.5c56.667 -33 101.5 -77.667 134.5 -134s49.5 -117.833 49.5 -184.5s-16.5 -128.167 -49.5 -184.5s-77.833 -101 -134.5 -134s-118.334 -49.5 -185.001 -49.5s-128.167 16.5 -184.5 49.5s-101 77.667 -134 134s-49.5 117.833 -49.5 184.5
s16.5 128.167 49.5 184.5s77.667 101 134 134s117.833 49.5 184.5 49.5s128.334 -16.5 185.001 -49.5zM578 81c46 28 82.667 65.833 110 113.5s41 99.167 41 154.5s-13.667 106.833 -41 154.5s-64 85.667 -110 114s-95.667 42.5 -149 42.5s-102.833 -14.167 -148.5 -42.5
s-82.167 -66.333 -109.5 -114s-41 -99.167 -41 -154.5s13.667 -106.833 41 -154.5s64 -85.5 110 -113.5s95.333 -42 148 -42c53.333 0 103 14 149 42zM251 458.5c17.333 34.333 41.834 61.835 73.501 82.502s68.5 31 110.5 31c34 0 67 -9.66699 99 -29l-1 -59
c-10.667 9.33301 -23.5 16.5 -38.5 21.5s-30.833 7.5 -47.5 7.5c-31.333 0 -58.5 -7.66699 -81.5 -23s-40.667 -35.666 -53 -60.999s-18.5 -52.333 -18.5 -81c0 -50.667 14 -90.334 42 -119.001s63 -43 105 -43c36 0 70.667 9.66699 104 29v-59
c-38.667 -20 -76.334 -29.667 -113.001 -29c-46.667 0 -85.5 10.167 -116.5 30.5s-53.833 47.166 -68.5 80.499s-22 69.666 -22 108.999c0 40 8.66699 77.167 26 111.5z" />
    <glyph glyph-name="ordfeminine" unicode="&#xaa;" horiz-adv-x="361" 
d="M249 507c-6.66699 0.666992 -17.334 1 -32.001 1c-15.333 0 -31 -1 -47 -3c-33.333 -4.66699 -60.666 -16.167 -81.999 -34.5s-32 -43.833 -32 -76.5c0 -28 9.83301 -51.667 29.5 -71s45.5 -29 77.5 -29c16.667 0 32.5 4.16699 47.5 12.5s27.833 19.5 38.5 33.5l6 -37h43
v216c0 34 -11 61 -33 81s-50.333 30 -85 30c-17.333 -0.666992 -33.333 -3 -48 -7s-31 -10.333 -49 -19l-2 -47c27.333 20 59 30 95 30c22.667 0 40.5 -6.33301 53.5 -19s19.5 -29.667 19.5 -51v-10zM225 362c-15.333 -16 -35.001 -24 -59.001 -24
c-16.667 0 -30.5 5.66699 -41.5 17s-16.5 26 -16.5 44c0 22.667 8.83301 39.167 26.5 49.5s38.834 16.5 63.501 18.5c6 0.666992 15 1 27 1c11.333 0 19.333 -0.333008 24 -1v-42c-0.666992 -26 -8.66699 -47 -24 -63zM297.999 201h-237v43h237v-43z" />
    <glyph glyph-name="guillemotleft" unicode="&#xab;" horiz-adv-x="392" 
d="M119 252l77 -114l-41 -32l-106 136v18l107 134l40 -30zM259 252l77 -114l-41 -32l-106 136v18l107 134l40 -30z" />
    <glyph glyph-name="logicalnot" unicode="&#xac;" horiz-adv-x="600" 
d="M503 109h-75v152h-348v76h423v-228z" />
    <glyph glyph-name="registered" unicode="&#xae;" horiz-adv-x="666" 
d="M194.5 199c-42.333 24.667 -75.833 58.167 -100.5 100.5s-37 88.5 -37 138.5s12.333 96.167 37 138.5s58.167 75.833 100.5 100.5s88.5 37 138.5 37s96.167 -12.333 138.5 -37s75.833 -58.167 100.5 -100.5s37 -88.5 37 -138.5s-12.333 -96.167 -37 -138.5
s-58.167 -75.833 -100.5 -100.5s-88.5 -37 -138.5 -37s-96.167 12.333 -138.5 37zM443 249c33.333 19.333 59.666 45.666 78.999 78.999s29 70 29 110s-9.66699 76.667 -29 110s-45.666 59.666 -78.999 78.999s-70 29 -110 29s-76.667 -9.66699 -110 -29
s-59.666 -45.666 -78.999 -78.999s-29 -70 -29 -110s9.66699 -76.667 29 -110s45.666 -59.666 78.999 -78.999s70 -29 110 -29s76.667 9.66699 110 29zM338 444c18.667 0 32.833 4.66797 42.5 14.001s14.5 23 14.5 41c0 34.667 -19 52 -57 52h-49v-265h-50v301h99
c34.667 0 61.5 -7.66699 80.5 -23s28.5 -37 28.5 -65c0 -22.667 -6.33301 -41.334 -19 -56.001s-30.667 -24.667 -54 -30l91 -127h-57l-90 130v28h20z" />
    <glyph glyph-name="macron" unicode="&#xaf;" horiz-adv-x="600" 
d="M176 872v-62h281v62h-281z" />
    <glyph glyph-name="degree" unicode="&#xb0;" horiz-adv-x="358" 
d="M70 676.5c10 19 24.5 34.5 43.5 46.5s41.5 18 67.5 18c38 0 67.833 -12 89.5 -36s32.5 -52.333 32.5 -85s-10.833 -61 -32.5 -85s-51.5 -36 -89.5 -36c-40 0 -71 11.5 -93 34.5s-33 50.833 -33 83.5c0 20.667 5 40.5 15 59.5zM229 667
c-11.333 13.333 -27.666 20.001 -48.999 20.001s-38 -6.83301 -50 -20.5s-18 -29.834 -18 -48.501c0 -18 5.83301 -33.5 17.5 -46.5s28.5 -19.5 50.5 -19.5c21.333 0 37.666 6.5 48.999 19.5s17 28.833 17 47.5s-5.66699 34.667 -17 48z" />
    <glyph glyph-name="plusminus" unicode="&#xb1;" horiz-adv-x="524" 
d="M302 313h142v75h-142v142h-79v-142h-143v-75h143v-143h79v143zM80 75v-75h364v75h-364z" />
    <glyph glyph-name="uni00B2" unicode="&#xb2;" horiz-adv-x="279" 
d="M241 386l-0.00195312 -40.001h-209v8l126 167c8 10.667 14.833 22.667 20.5 36s8.5 26 8.5 38c0 16.667 -5.66699 30.834 -17 42.501s-25.666 17.5 -42.999 17.5c-13.333 0 -27.166 -3.5 -41.499 -10.5s-26.833 -15.5 -37.5 -25.5l2 47c26 19.333 53.667 29 83 29
c27.333 0 50.833 -8.5 70.5 -25.5s29.5 -39.167 29.5 -66.5c0 -16 -3.16699 -32.833 -9.5 -50.5s-14.833 -33.5 -25.5 -47.5l-89 -119h132z" />
    <glyph glyph-name="uni00B3" unicode="&#xb3;" horiz-adv-x="282" 
d="M163 658l-74.001 -119.001l3 -8c4.66699 0.666992 11.667 1 21 1c24.667 0 44.834 -6.16699 60.501 -18.5s23.5 -30.166 23.5 -53.499c0 -21.333 -7.66699 -39 -23 -53s-35 -21 -59 -21c-14 0 -28.5 2.66699 -43.5 8s-27.833 12.333 -38.5 21v-49
c24.667 -13.333 53 -20 85 -20c36 0 65.833 10.333 89.5 31s35.5 48 35.5 82c0 32 -8.5 57 -25.5 75s-39.5 27.667 -67.5 29l80 126v6h-190v-37h123z" />
    <glyph glyph-name="acute" unicode="&#xb4;" horiz-adv-x="600" 
d="M423 851l-147 -103l-36 41l136 117z" />
    <glyph glyph-name="paragraph" unicode="&#xb6;" horiz-adv-x="518" 
d="M456 700v-923h-74v847h-136v-847h-74l-1 569c-36 0 -66.833 8.33301 -92.5 25s-45.167 38.5 -58.5 65.5s-20 55.5 -20 85.5c0 30.667 6.66699 59.667 20 87s33.333 49.333 60 66s59 25 97 25h239h40z" />
    <glyph glyph-name="periodcentered" unicode="&#xb7;" horiz-adv-x="245" 
d="M163.5 207.5c-6.33301 -9.66699 -19.833 -14.5 -40.5 -14.5c-19.333 0.666992 -32.666 6.16699 -39.999 16.5s-11 24.5 -11 42.5s3.66699 32.167 11 42.5s20.666 15.5 39.999 15.5c20 0 33.333 -4.83301 40 -14.5s10 -24.167 10 -43.5c0 -20 -3.16699 -34.833 -9.5 -44.5
z" />
    <glyph glyph-name="cedilla" unicode="&#xb8;" horiz-adv-x="600" 
d="M245 -209c27.333 0 49 8.50293 65 25.5029s24 36.833 24 59.5c0 19.333 -6.16699 36.166 -18.5 50.499s-30.833 23.166 -55.5 26.499l19 45l-46 2l-31 -80c17.333 -0.666992 33.5 -3.83398 48.5 -9.50098s22.5 -15.5 22.5 -29.5c0 -2 -0.666992 -6.33301 -2 -13
c-2 -6.66699 -6 -12.167 -12 -16.5s-13.667 -6.83301 -23 -7.5c-10 0 -20.333 2.16699 -31 6.5s-18.667 9.5 -24 15.5l-20 -45c25.333 -20 53.333 -30 84 -30z" />
    <glyph glyph-name="uni00B9" unicode="&#xb9;" horiz-adv-x="193" 
d="M25 605l68 34v-293h44v352h-10l-102 -51v-42z" />
    <glyph glyph-name="ordmasculine" unicode="&#xba;" horiz-adv-x="377" 
d="M295.5 346c22.333 34 33.5 73 33.5 117s-11.167 83 -33.5 117s-58.166 51 -107.499 51s-85.166 -17 -107.499 -51s-33.5 -73 -33.5 -117s11.167 -83 33.5 -117s58.166 -51 107.499 -51s85.166 17 107.499 51zM256.5 549c13.667 -25.333 20.5 -54 20.5 -86
s-6.83301 -60.667 -20.5 -86s-36.5 -38 -68.5 -38s-54.833 12.667 -68.5 38s-20.5 54 -20.5 86s6.83301 60.667 20.5 86s36.5 38 68.5 38s54.833 -12.667 68.5 -38zM307 244v-43h-237v43h237z" />
    <glyph glyph-name="guillemotright" unicode="&#xbb;" horiz-adv-x="392" 
d="M96 394l107 -134v-18l-106 -136l-41 32l77 114l-77 112zM236 394l107 -134v-18l-106 -136l-41 32l77 114l-77 112z" />
    <glyph glyph-name="onequarter" unicode="&#xbc;" horiz-adv-x="667" 
d="M526 697l-388 -702h-51l387 702h52zM25 610l68 34v-293h44v352h-10l-102 -51v-42zM636 114v-40h-35v-74h-44v74h-166v9l125 266h46l-111 -235h106v147h44v-147h35z" />
    <glyph glyph-name="onehalf" unicode="&#xbd;" horiz-adv-x="639" 
d="M496 697l-388 -702h-51l387 702h52zM25 610l68 34v-293h44v352h-10l-102 -51v-42zM601 40l-0.00195312 -40.001h-209v8l126 167c8 10.667 14.833 22.667 20.5 36s8.5 26 8.5 38c0 16.667 -5.66699 30.834 -17 42.501s-25.666 17.5 -42.999 17.5
c-13.333 0 -27.166 -3.5 -41.499 -10.5s-26.833 -15.5 -37.5 -25.5l2 47c26 19.333 53.667 29 83 29c27.333 0 50.833 -8.5 70.5 -25.5s29.5 -39.167 29.5 -66.5c0 -16 -3.16699 -32.833 -9.5 -50.5s-14.833 -33.5 -25.5 -47.5l-89 -119h132z" />
    <glyph glyph-name="threequarters" unicode="&#xbe;" horiz-adv-x="685" 
d="M163 658l-74.001 -119.001l3 -8c4.66699 0.666992 11.667 1 21 1c24.667 0 44.834 -6.16699 60.501 -18.5s23.5 -30.166 23.5 -53.499c0 -21.333 -7.66699 -39 -23 -53s-35 -21 -59 -21c-14 0 -28.5 2.66699 -43.5 8s-27.833 12.333 -38.5 21v-49
c24.667 -13.333 53 -20 85 -20c36 0 65.833 10.333 89.5 31s35.5 48 35.5 82c0 32 -8.5 57 -25.5 75s-39.5 27.667 -67.5 29l80 126v6h-190v-37h123zM553.999 696.999l-388 -702h-51l387 702h52zM653.999 113.999v-40h-35v-74h-44v74h-166v9l125 266h46l-111 -235h106v147
h44v-147h35z" />
    <glyph glyph-name="questiondown" unicode="&#xbf;" horiz-adv-x="451" 
d="M225.5 490c6.33301 9.33301 19.833 14 40.5 14c18.667 0 31.667 -5.16699 39 -15.5s11 -24.5 11 -42.5c0 -18.667 -3.5 -33.167 -10.5 -43.5s-20.167 -15.5 -39.5 -15.5c-20 0 -33.333 4.83301 -40 14.5s-10 24.5 -10 44.5s3.16699 34.667 9.5 44zM230 305
c0 -14.667 -0.999023 -28 -2.99902 -40s-5 -22.333 -9 -31c-8.66699 -17.333 -18.667 -32.833 -30 -46.5s-27.333 -31.5 -48 -53.5c-31.333 -32 -54.833 -60.833 -70.5 -86.5s-23.5 -57.167 -23.5 -94.5c0 -34 9.16699 -63.333 27.5 -88s42.166 -43.334 71.499 -56.001
s60.666 -19 93.999 -19c30.667 0 62.167 4.5 94.5 13.5s58.5 22.167 78.5 39.5v83c-20 -17.333 -45.167 -31.166 -75.5 -41.499s-60.166 -15.5 -89.499 -15.5c-36 0 -63.833 8.5 -83.5 25.5s-28.167 43.167 -25.5 78.5c1.33301 20.667 7.83301 39.667 19.5 57
s29.5 39 53.5 65c24 25.333 43 47.333 57 66s24.667 40 32 64c3.33301 10.667 5 25 5 43l-1 34c-0.666992 7.33301 -1 17.333 -1 30h-73v-27z" />
    <glyph glyph-name="Agrave" unicode="&#xc0;" horiz-adv-x="652" 
d="M109 0h-91l296 712h19l301 -712h-96l-60 148h-309zM323 530l-124 -307h248zM255 918l136 -117l-36 -41l-148 102z" />
    <glyph glyph-name="Aacute" unicode="&#xc1;" horiz-adv-x="652" 
d="M109 0h-91l296 712h19l301 -712h-96l-60 148h-309zM323 530l-124 -307h248zM451 861l-147 -103l-36 41l136 117z" />
    <glyph glyph-name="Acircumflex" unicode="&#xc2;" horiz-adv-x="652" 
d="M109 0h-91l296 712h19l301 -712h-96l-60 148h-309zM323 530l-124 -307h248zM326 838l-114 -77l-32 41l136 106h18l134 -107l-30 -40z" />
    <glyph glyph-name="Atilde" unicode="&#xc3;" horiz-adv-x="652" 
d="M109 0h-91l296 712h19l301 -712h-96l-60 148h-309zM323 530l-124 -307h248zM185 789c10 24 21.501 41.5 34.501 52.5s27.833 16.5 44.5 16.5c19.333 0 43 -7 71 -21c20 -10.667 35.333 -16 46 -16c16 0 29 11 39 33l43 -23c-10.667 -23.333 -22.334 -40.5 -35.001 -51.5
s-27 -16.5 -43 -16.5c-16.667 0 -37.667 6.33301 -63 19c-12 6 -21.833 10.5 -29.5 13.5s-15.167 4.5 -22.5 4.5c-18 0 -32.333 -11.667 -43 -35z" />
    <glyph glyph-name="Adieresis" unicode="&#xc4;" horiz-adv-x="652" 
d="M109 0h-91l296 712h19l301 -712h-96l-60 148h-309zM323 530l-124 -307h248zM194 788c-8 5.33301 -12 16.666 -12 33.999c0 16 4.33301 27 13 33s20.667 9 36 9s27.333 -3 36 -9s13 -17 13 -33c0 -17.333 -4 -28.666 -12 -33.999s-20.333 -8 -37 -8s-29 2.66699 -37 8z
M379 788c-8 5.33301 -12 16.666 -12 33.999c0 16 4.33301 27 13 33s20.667 9 36 9s27.5 -3 36.5 -9s13.5 -17 13.5 -33c0 -17.333 -4.16699 -28.666 -12.5 -33.999s-20.833 -8 -37.5 -8s-29 2.66699 -37 8z" />
    <glyph glyph-name="Aring" unicode="&#xc5;" horiz-adv-x="652" 
d="M634 0h-96.001l-60 148h-309l-60 -148h-91l281 675c-25.333 4.66699 -46.166 15.167 -62.499 31.5s-24.5 37.833 -24.5 64.5c0 31.333 10.833 55.833 32.5 73.5s47.5 26.5 77.5 26.5s56.167 -8.83301 78.5 -26.5s33.5 -42.167 33.5 -73.5c0 -25.333 -8 -46.5 -24 -63.5
s-36.333 -27.833 -61 -32.5zM282.499 731c11.667 -9.33301 25.166 -14.001 40.499 -14.001c16 0 29.667 4.66699 41 14s17 22.666 17 39.999c0 18.667 -5.83301 32.834 -17.5 42.501s-25.5 14.5 -41.5 14.5c-15.333 0 -28.666 -5 -39.999 -15s-17 -24 -17 -42
c0 -17.333 5.83301 -30.666 17.5 -39.999zM446.998 222.999l-124 307l-124 -307h248z" />
    <glyph glyph-name="AE" unicode="&#xc6;" horiz-adv-x="795" 
d="M749 76v-76h-360v148h-211l-77 -148h-96l383 700h351v-76h-266v-218h244v-76h-244v-254h276zM389 223v332l-172 -332h172z" />
    <glyph glyph-name="Ccedilla" unicode="&#xc7;" horiz-adv-x="533" 
d="M354 -14l-13.9961 -33.0059c24.667 -3.33301 43.167 -12.166 55.5 -26.499s18.5 -31.166 18.5 -50.499c0 -22.667 -8 -42.5 -24 -59.5s-37.667 -25.5 -65 -25.5c-30.667 0 -58.667 10 -84 30l20 45c5.33301 -6 13.333 -11.167 24 -15.5s21 -6.5 31 -6.5
c9.33301 0.666992 17 3.16699 23 7.5s10 9.83301 12 16.5c1.33301 6.66699 2 11 2 13c0 14 -7.5 23.833 -22.5 29.5s-31.167 8.83398 -48.5 9.50098l27 69c-84.667 10.667 -146.5 49 -185.5 115s-58.5 148 -58.5 246c0 106.667 23.167 194 69.5 262s119.833 102 220.5 102
c45.333 0 86 -8.33301 122 -25v-87c-20 14.667 -38.5 24.334 -55.5 29.001s-38.833 7 -65.5 7c-48.667 0 -88.334 -14.167 -119.001 -42.5s-52.5 -64.166 -65.5 -107.499s-19.5 -89.333 -19.5 -138s6.5 -94.667 19.5 -138s34.667 -79.166 65 -107.499
s69.833 -42.5 118.5 -42.5c53.333 0 100.666 14.667 141.999 44v-85c-20.667 -11.333 -43.334 -20 -68.001 -26s-49.334 -9 -74.001 -9h-1z" />
    <glyph glyph-name="Egrave" unicode="&#xc8;" horiz-adv-x="522" 
d="M96 700h370v-76h-286v-218h264v-76h-264v-254h296v-76h-380v700zM212 908l136 -117l-36 -41l-148 102z" />
    <glyph glyph-name="Eacute" unicode="&#xc9;" horiz-adv-x="522" 
d="M96 700h370v-76h-286v-218h264v-76h-264v-254h296v-76h-380v700zM408 851l-147 -103l-36 41l136 117z" />
    <glyph glyph-name="Ecircumflex" unicode="&#xca;" horiz-adv-x="522" 
d="M96 700h370v-76h-286v-218h264v-76h-264v-254h296v-76h-380v700zM283 828l-114 -77l-32 41l136 106h18l134 -107l-30 -40z" />
    <glyph glyph-name="Edieresis" unicode="&#xcb;" horiz-adv-x="522" 
d="M96 700h370v-76h-286v-218h264v-76h-264v-254h296v-76h-380v700zM151 793c-8 5.33301 -12 16.666 -12 33.999c0 16 4.33301 27 13 33s20.667 9 36 9s27.333 -3 36 -9s13 -17 13 -33c0 -17.333 -4 -28.666 -12 -33.999s-20.333 -8 -37 -8s-29 2.66699 -37 8zM336 793
c-8 5.33301 -12 16.666 -12 33.999c0 16 4.33301 27 13 33s20.667 9 36 9s27.5 -3 36.5 -9s13.5 -17 13.5 -33c0 -17.333 -4.16699 -28.666 -12.5 -33.999s-20.833 -8 -37.5 -8s-29 2.66699 -37 8z" />
    <glyph glyph-name="Igrave" unicode="&#xcc;" horiz-adv-x="276" 
d="M96 700h84v-700h-84v700zM69 908l136 -117l-36 -41l-148 102z" />
    <glyph glyph-name="Iacute" unicode="&#xcd;" horiz-adv-x="276" 
d="M96 700h84v-700h-84v700zM265 851l-147 -103l-36 41l136 117z" />
    <glyph glyph-name="Icircumflex" unicode="&#xce;" horiz-adv-x="276" 
d="M222 751l-83 76l-83 -76l-32 31l106 116h18l106 -116zM96 700h84v-700h-84v700z" />
    <glyph glyph-name="Idieresis" unicode="&#xcf;" horiz-adv-x="276" 
d="M28 793c-8 5.33301 -12 16.666 -12 33.999c0 16 4.33301 27 13 33s20.667 9 36 9s27.333 -3 36 -9s13 -17 13 -33c0 -17.333 -4 -28.666 -12 -33.999s-20.333 -8 -37 -8s-29 2.66699 -37 8zM173 793c-8 5.33301 -12 16.666 -12 33.999c0 16 4.33301 27 13 33
s20.667 9 36 9s27.5 -3 36.5 -9s13.5 -17 13.5 -33c0 -17.333 -4.16699 -28.666 -12.5 -33.999s-20.833 -8 -37.5 -8s-29 2.66699 -37 8zM96 700h84v-700h-84v700z" />
    <glyph glyph-name="Eth" unicode="&#xd0;" horiz-adv-x="647" 
d="M438.5 650.5c47.667 -33 83.499 -76.167 107.499 -129.5s36 -110.333 36 -171s-12 -117.667 -36 -171s-59.667 -96.5 -107 -129.5s-104.666 -49.5 -171.999 -49.5h-171v319h-90v62h90v319h169c68 0 125.833 -16.5 173.5 -49.5zM390.499 113
c34.333 24.667 60.333 57.832 78 99.499s26.5 87.5 26.5 137.5s-8.83301 95.833 -26.5 137.5s-43.667 74.834 -78 99.501s-75.833 37 -124.5 37h-86v-243h130v-62h-130v-243h87c48 0 89.167 12.333 123.5 37z" />
    <glyph glyph-name="Ntilde" unicode="&#xd1;" horiz-adv-x="683" 
d="M115 712l388 -504v492h84v-713h-19l-388 500v-487h-84v712h19zM195 811c10 24 21.501 41.5 34.501 52.5s27.833 16.5 44.5 16.5c19.333 0 43 -7 71 -21c20 -10.667 35.333 -16 46 -16c16 0 29 11 39 33l43 -23c-10.667 -23.333 -22.334 -40.5 -35.001 -51.5
s-27 -16.5 -43 -16.5c-16.667 0 -37.667 6.33301 -63 19c-12 6 -21.833 10.5 -29.5 13.5s-15.167 4.5 -22.5 4.5c-18 0 -32.333 -11.667 -43 -35z" />
    <glyph glyph-name="Ograve" unicode="&#xd2;" horiz-adv-x="703" 
d="M569.5 611c45.667 -68.667 68.5 -155.667 68.5 -261s-22.667 -192.333 -68 -261s-118 -103 -218 -103s-172.833 34.5 -218.5 103.5s-68.5 155.833 -68.5 260.5c0 105.333 23 192.333 69 261s118.667 103 218 103s171.833 -34.333 217.5 -103zM235.5 594.5
c-29.667 -29 -51 -65.501 -64 -109.501s-19.5 -89 -19.5 -135c0 -46.667 6.5 -91.834 19.5 -135.501s34.5 -80 64.5 -109s68.667 -43.5 116 -43.5s85.833 14.5 115.5 43.5s51 65.333 64 109s19.5 88.834 19.5 135.501s-6.5 91.834 -19.5 135.501s-34.333 80 -64 109
s-68.167 43.5 -115.5 43.5c-48 0 -86.833 -14.5 -116.5 -43.5zM283 921.999l136 -117l-36 -41l-148 102z" />
    <glyph glyph-name="Oacute" unicode="&#xd3;" horiz-adv-x="703" 
d="M569.5 611c45.667 -68.667 68.5 -155.667 68.5 -261s-22.667 -192.333 -68 -261s-118 -103 -218 -103s-172.833 34.5 -218.5 103.5s-68.5 155.833 -68.5 260.5c0 105.333 23 192.333 69 261s118.667 103 218 103s171.833 -34.333 217.5 -103zM235.5 594.5
c-29.667 -29 -51 -65.501 -64 -109.501s-19.5 -89 -19.5 -135c0 -46.667 6.5 -91.834 19.5 -135.501s34.5 -80 64.5 -109s68.667 -43.5 116 -43.5s85.833 14.5 115.5 43.5s51 65.333 64 109s19.5 88.834 19.5 135.501s-6.5 91.834 -19.5 135.501s-34.333 80 -64 109
s-68.167 43.5 -115.5 43.5c-48 0 -86.833 -14.5 -116.5 -43.5zM479 864.999l-147 -103l-36 41l136 117z" />
    <glyph glyph-name="Ocircumflex" unicode="&#xd4;" horiz-adv-x="703" 
d="M569.5 611c45.667 -68.667 68.5 -155.667 68.5 -261s-22.667 -192.333 -68 -261s-118 -103 -218 -103s-172.833 34.5 -218.5 103.5s-68.5 155.833 -68.5 260.5c0 105.333 23 192.333 69 261s118.667 103 218 103s171.833 -34.333 217.5 -103zM235.5 594.5
c-29.667 -29 -51 -65.501 -64 -109.501s-19.5 -89 -19.5 -135c0 -46.667 6.5 -91.834 19.5 -135.501s34.5 -80 64.5 -109s68.667 -43.5 116 -43.5s85.833 14.5 115.5 43.5s51 65.333 64 109s19.5 88.834 19.5 135.501s-6.5 91.834 -19.5 135.501s-34.333 80 -64 109
s-68.167 43.5 -115.5 43.5c-48 0 -86.833 -14.5 -116.5 -43.5zM354 841.999l-114 -77l-32 41l136 106h18l134 -107l-30 -40z" />
    <glyph glyph-name="Otilde" unicode="&#xd5;" horiz-adv-x="703" 
d="M569.5 611c45.667 -68.667 68.5 -155.667 68.5 -261s-22.667 -192.333 -68 -261s-118 -103 -218 -103s-172.833 34.5 -218.5 103.5s-68.5 155.833 -68.5 260.5c0 105.333 23 192.333 69 261s118.667 103 218 103s171.833 -34.333 217.5 -103zM235.5 594.5
c-29.667 -29 -51 -65.501 -64 -109.501s-19.5 -89 -19.5 -135c0 -46.667 6.5 -91.834 19.5 -135.501s34.5 -80 64.5 -109s68.667 -43.5 116 -43.5s85.833 14.5 115.5 43.5s51 65.333 64 109s19.5 88.834 19.5 135.501s-6.5 91.834 -19.5 135.501s-34.333 80 -64 109
s-68.167 43.5 -115.5 43.5c-48 0 -86.833 -14.5 -116.5 -43.5zM213 824.999c10 24 21.501 41.5 34.501 52.5s27.833 16.5 44.5 16.5c19.333 0 43 -7 71 -21c20 -10.667 35.333 -16 46 -16c16 0 29 11 39 33l43 -23c-10.667 -23.333 -22.334 -40.5 -35.001 -51.5
s-27 -16.5 -43 -16.5c-16.667 0 -37.667 6.33301 -63 19c-12 6 -21.833 10.5 -29.5 13.5s-15.167 4.5 -22.5 4.5c-18 0 -32.333 -11.667 -43 -35z" />
    <glyph glyph-name="Odieresis" unicode="&#xd6;" horiz-adv-x="703" 
d="M569.5 611c45.667 -68.667 68.5 -155.667 68.5 -261s-22.667 -192.333 -68 -261s-118 -103 -218 -103s-172.833 34.5 -218.5 103.5s-68.5 155.833 -68.5 260.5c0 105.333 23 192.333 69 261s118.667 103 218 103s171.833 -34.333 217.5 -103zM235.5 594.5
c-29.667 -29 -51 -65.501 -64 -109.501s-19.5 -89 -19.5 -135c0 -46.667 6.5 -91.834 19.5 -135.501s34.5 -80 64.5 -109s68.667 -43.5 116 -43.5s85.833 14.5 115.5 43.5s51 65.333 64 109s19.5 88.834 19.5 135.501s-6.5 91.834 -19.5 135.501s-34.333 80 -64 109
s-68.167 43.5 -115.5 43.5c-48 0 -86.833 -14.5 -116.5 -43.5zM222 806.999c-8 5.33301 -12 16.666 -12 33.999c0 16 4.33301 27 13 33s20.667 9 36 9s27.333 -3 36 -9s13 -17 13 -33c0 -17.333 -4 -28.666 -12 -33.999s-20.333 -8 -37 -8s-29 2.66699 -37 8zM407 806.999
c-8 5.33301 -12 16.666 -12 33.999c0 16 4.33301 27 13 33s20.667 9 36 9s27.5 -3 36.5 -9s13.5 -17 13.5 -33c0 -17.333 -4.16699 -28.666 -12.5 -33.999s-20.833 -8 -37.5 -8s-29 2.66699 -37 8z" />
    <glyph glyph-name="multiply" unicode="&#xd7;" horiz-adv-x="524" 
d="M316 299l102 -102l-54 -54l-102 102l-102 -102l-54 54l102 102l-102 102l54 54l102 -102l102 102l54 -54z" />
    <glyph glyph-name="Oslash" unicode="&#xd8;" horiz-adv-x="703" 
d="M617 510.5c14 -49 21 -102.5 21 -160.5c0 -105.333 -22.667 -192.333 -68 -261s-118 -103 -218 -103c-58.667 0 -109.334 13.333 -152.001 40l-42 -72l-54 32l47 81c-29.333 33.333 -51 74.5 -65 123.5s-21 102.167 -21 159.5c0 105.333 23 192.333 69 261
s118.667 103 218 103c58.667 0 109.334 -13.333 152.001 -40l42 73l54 -31l-48 -83c29.333 -32.667 51 -73.5 65 -122.5zM196 145l267 459c-29.333 22.667 -66.333 34 -111 34c-48 0 -86.833 -14.5 -116.5 -43.5s-51 -65.5 -64 -109.5s-19.5 -89 -19.5 -135
c0 -88 14.667 -156.333 44 -205zM467.5 105.5c29.667 29 51.001 65.332 64.001 108.999s19.5 88.834 19.5 135.501c0 88 -14.667 156.333 -44 205l-267 -459c29.333 -22.667 66.666 -34 111.999 -34c47.333 0 85.833 14.5 115.5 43.5z" />
    <glyph glyph-name="Ugrave" unicode="&#xd9;" horiz-adv-x="673" 
d="M583 700l-84.001 -0.00195312v-432c0 -58 -13.167 -106.833 -39.5 -146.5s-67.166 -59.5 -122.499 -59.5c-56 0 -97.167 19.833 -123.5 59.5s-39.5 88.5 -39.5 146.5v432h-84v-432c0 -85.333 20 -153.666 60 -204.999s102.333 -77 187 -77
c54.667 0 100.5 12.5 137.5 37.5s64.333 58.833 82 101.5s26.5 90.334 26.5 143.001v432zM267.999 907.998l136 -117l-36 -41l-148 102z" />
    <glyph glyph-name="Uacute" unicode="&#xda;" horiz-adv-x="673" 
d="M583 700l-84.001 -0.00195312v-432c0 -58 -13.167 -106.833 -39.5 -146.5s-67.166 -59.5 -122.499 -59.5c-56 0 -97.167 19.833 -123.5 59.5s-39.5 88.5 -39.5 146.5v432h-84v-432c0 -85.333 20 -153.666 60 -204.999s102.333 -77 187 -77
c54.667 0 100.5 12.5 137.5 37.5s64.333 58.833 82 101.5s26.5 90.334 26.5 143.001v432zM463.999 850.998l-147 -103l-36 41l136 117z" />
    <glyph glyph-name="Ucircumflex" unicode="&#xdb;" horiz-adv-x="673" 
d="M583 700l-84.001 -0.00195312v-432c0 -58 -13.167 -106.833 -39.5 -146.5s-67.166 -59.5 -122.499 -59.5c-56 0 -97.167 19.833 -123.5 59.5s-39.5 88.5 -39.5 146.5v432h-84v-432c0 -85.333 20 -153.666 60 -204.999s102.333 -77 187 -77
c54.667 0 100.5 12.5 137.5 37.5s64.333 58.833 82 101.5s26.5 90.334 26.5 143.001v432zM338.999 827.998l-114 -77l-32 41l136 106h18l134 -107l-30 -40z" />
    <glyph glyph-name="Udieresis" unicode="&#xdc;" horiz-adv-x="673" 
d="M583 700l-84.001 -0.00195312v-432c0 -58 -13.167 -106.833 -39.5 -146.5s-67.166 -59.5 -122.499 -59.5c-56 0 -97.167 19.833 -123.5 59.5s-39.5 88.5 -39.5 146.5v432h-84v-432c0 -85.333 20 -153.666 60 -204.999s102.333 -77 187 -77
c54.667 0 100.5 12.5 137.5 37.5s64.333 58.833 82 101.5s26.5 90.334 26.5 143.001v432zM206.999 792.998c-8 5.33301 -12 16.666 -12 33.999c0 16 4.33301 27 13 33s20.667 9 36 9s27.333 -3 36 -9s13 -17 13 -33c0 -17.333 -4 -28.666 -12 -33.999s-20.333 -8 -37 -8
s-29 2.66699 -37 8zM391.999 792.998c-8 5.33301 -12 16.666 -12 33.999c0 16 4.33301 27 13 33s20.667 9 36 9s27.5 -3 36.5 -9s13.5 -17 13.5 -33c0 -17.333 -4.16699 -28.666 -12.5 -33.999s-20.833 -8 -37.5 -8s-29 2.66699 -37 8z" />
    <glyph glyph-name="Yacute" unicode="&#xdd;" horiz-adv-x="637" 
d="M613 700h-97l-197 -310l-197 310h-98l253 -387v-313h84v313zM446 851l-147 -103l-36 41l136 117z" />
    <glyph glyph-name="Thorn" unicode="&#xde;" horiz-adv-x="567" 
d="M451.5 510.5c46.333 -36.333 69.5 -89.832 69.5 -160.499c0 -72.667 -22.833 -126.834 -68.5 -162.501s-106.167 -53.5 -181.5 -53.5h-91v-134h-84v700h84v-135h91c74 0 134.167 -18.167 180.5 -54.5zM388.5 244.001c28.333 22.667 42.5 58 42.5 106
c0 46 -14.167 80.833 -42.5 104.5s-67.5 35.5 -117.5 35.5h-91v-280h91c50 0 89.167 11.333 117.5 34z" />
    <glyph glyph-name="germandbls" unicode="&#xdf;" horiz-adv-x="553" 
d="M285 0c66.667 0 119.001 18.499 157.001 55.499s57 87.5 57 151.5c0 46.667 -11.833 85.834 -35.5 117.501s-58.167 52.5 -103.5 62.5c72 32.667 108 83.667 108 153c0 52.667 -17.667 94.834 -53 126.501s-82 47.5 -140 47.5c-60.667 0 -108.334 -22 -143.001 -66
s-52 -108.667 -52 -194v-454h77v454c0 65.333 10.333 113.5 31 144.5s49.667 46.5 87 46.5c33.333 0 60.333 -9.83301 81 -29.5s31 -44.834 31 -75.501c0 -39.333 -12.167 -68.833 -36.5 -88.5s-57.833 -33.167 -100.5 -40.5l-29 -5v-70l34 5c12 2 23 3 33 3
c40.667 0 72.167 -12.167 94.5 -36.5s33.5 -58.833 33.5 -103.5c0 -40 -11.5 -72.167 -34.5 -96.5s-54.5 -36.5 -94.5 -36.5c-24.667 0 -47.667 4.33301 -69 13l3 -77c18.667 -4.66699 40 -7 64 -7z" />
    <glyph glyph-name="agrave" unicode="&#xe0;" horiz-adv-x="506" 
d="M352 324c-22.667 1.33301 -40.3311 2 -52.998 2c-22 0 -46.333 -1.66699 -73 -5c-52.667 -8 -95.834 -26.5 -129.501 -55.5s-50.5 -69.167 -50.5 -120.5c0 -29.333 7 -56 21 -80s33.667 -43.167 59 -57.5s55 -21.5 89 -21.5c26.667 0 51.834 6.5 75.501 19.5
s44.167 30.833 61.5 53.5l9 -59h68v343c0 54 -17.333 96.667 -52 128s-79.334 47 -134.001 47c-27.333 -0.666992 -52.833 -4 -76.5 -10s-49.834 -16 -78.501 -30l-2 -76c45.333 34 98.333 50 159 48c32.667 -0.666992 58.667 -11 78 -31s29 -46.333 29 -79v-16z
M314.003 93.5c-24.667 -25 -55.999 -37.501 -93.999 -37.501c-25.333 0 -46.833 8.66699 -64.5 26s-26.5 40 -26.5 68c0 37.333 14 64.333 42 81s61.333 26.334 100 29.001c8 0.666992 20 1 36 1c21.333 0 36.333 -0.333008 45 -1v-67
c-0.666992 -41.333 -13.334 -74.5 -38.001 -99.5zM186.004 725.999l136 -117l-36 -41l-148 102z" />
    <glyph glyph-name="aacute" unicode="&#xe1;" horiz-adv-x="506" 
d="M352 324c-22.667 1.33301 -40.3311 2 -52.998 2c-22 0 -46.333 -1.66699 -73 -5c-52.667 -8 -95.834 -26.5 -129.501 -55.5s-50.5 -69.167 -50.5 -120.5c0 -29.333 7 -56 21 -80s33.667 -43.167 59 -57.5s55 -21.5 89 -21.5c26.667 0 51.834 6.5 75.501 19.5
s44.167 30.833 61.5 53.5l9 -59h68v343c0 54 -17.333 96.667 -52 128s-79.334 47 -134.001 47c-27.333 -0.666992 -52.833 -4 -76.5 -10s-49.834 -16 -78.501 -30l-2 -76c45.333 34 98.333 50 159 48c32.667 -0.666992 58.667 -11 78 -31s29 -46.333 29 -79v-16z
M314.003 93.5c-24.667 -25 -55.999 -37.501 -93.999 -37.501c-25.333 0 -46.833 8.66699 -64.5 26s-26.5 40 -26.5 68c0 37.333 14 64.333 42 81s61.333 26.334 100 29.001c8 0.666992 20 1 36 1c21.333 0 36.333 -0.333008 45 -1v-67
c-0.666992 -41.333 -13.334 -74.5 -38.001 -99.5zM382.004 668.999l-147 -103l-36 41l136 117z" />
    <glyph glyph-name="acircumflex" unicode="&#xe2;" horiz-adv-x="506" 
d="M352 324c-22.667 1.33301 -40.3311 2 -52.998 2c-22 0 -46.333 -1.66699 -73 -5c-52.667 -8 -95.834 -26.5 -129.501 -55.5s-50.5 -69.167 -50.5 -120.5c0 -29.333 7 -56 21 -80s33.667 -43.167 59 -57.5s55 -21.5 89 -21.5c26.667 0 51.834 6.5 75.501 19.5
s44.167 30.833 61.5 53.5l9 -59h68v343c0 54 -17.333 96.667 -52 128s-79.334 47 -134.001 47c-27.333 -0.666992 -52.833 -4 -76.5 -10s-49.834 -16 -78.501 -30l-2 -76c45.333 34 98.333 50 159 48c32.667 -0.666992 58.667 -11 78 -31s29 -46.333 29 -79v-16z
M314.003 93.5c-24.667 -25 -55.999 -37.501 -93.999 -37.501c-25.333 0 -46.833 8.66699 -64.5 26s-26.5 40 -26.5 68c0 37.333 14 64.333 42 81s61.333 26.334 100 29.001c8 0.666992 20 1 36 1c21.333 0 36.333 -0.333008 45 -1v-67
c-0.666992 -41.333 -13.334 -74.5 -38.001 -99.5zM257.004 645.999l-114 -77l-32 41l136 106h18l134 -107l-30 -40z" />
    <glyph glyph-name="atilde" unicode="&#xe3;" horiz-adv-x="506" 
d="M352 324c-22.667 1.33301 -40.3311 2 -52.998 2c-22 0 -46.333 -1.66699 -73 -5c-52.667 -8 -95.834 -26.5 -129.501 -55.5s-50.5 -69.167 -50.5 -120.5c0 -29.333 7 -56 21 -80s33.667 -43.167 59 -57.5s55 -21.5 89 -21.5c26.667 0 51.834 6.5 75.501 19.5
s44.167 30.833 61.5 53.5l9 -59h68v343c0 54 -17.333 96.667 -52 128s-79.334 47 -134.001 47c-27.333 -0.666992 -52.833 -4 -76.5 -10s-49.834 -16 -78.501 -30l-2 -76c45.333 34 98.333 50 159 48c32.667 -0.666992 58.667 -11 78 -31s29 -46.333 29 -79v-16z
M314.003 93.5c-24.667 -25 -55.999 -37.501 -93.999 -37.501c-25.333 0 -46.833 8.66699 -64.5 26s-26.5 40 -26.5 68c0 37.333 14 64.333 42 81s61.333 26.334 100 29.001c8 0.666992 20 1 36 1c21.333 0 36.333 -0.333008 45 -1v-67
c-0.666992 -41.333 -13.334 -74.5 -38.001 -99.5zM116.004 628.999c10 24 21.501 41.5 34.501 52.5s27.833 16.5 44.5 16.5c19.333 0 43 -7 71 -21c20 -10.667 35.333 -16 46 -16c16 0 29 11 39 33l43 -23c-10.667 -23.333 -22.334 -40.5 -35.001 -51.5s-27 -16.5 -43 -16.5
c-16.667 0 -37.667 6.33301 -63 19c-12 6 -21.833 10.5 -29.5 13.5s-15.167 4.5 -22.5 4.5c-18 0 -32.333 -11.667 -43 -35z" />
    <glyph glyph-name="adieresis" unicode="&#xe4;" horiz-adv-x="506" 
d="M352 324c-22.667 1.33301 -40.3311 2 -52.998 2c-22 0 -46.333 -1.66699 -73 -5c-52.667 -8 -95.834 -26.5 -129.501 -55.5s-50.5 -69.167 -50.5 -120.5c0 -29.333 7 -56 21 -80s33.667 -43.167 59 -57.5s55 -21.5 89 -21.5c26.667 0 51.834 6.5 75.501 19.5
s44.167 30.833 61.5 53.5l9 -59h68v343c0 54 -17.333 96.667 -52 128s-79.334 47 -134.001 47c-27.333 -0.666992 -52.833 -4 -76.5 -10s-49.834 -16 -78.501 -30l-2 -76c45.333 34 98.333 50 159 48c32.667 -0.666992 58.667 -11 78 -31s29 -46.333 29 -79v-16z
M314.003 93.5c-24.667 -25 -55.999 -37.501 -93.999 -37.501c-25.333 0 -46.833 8.66699 -64.5 26s-26.5 40 -26.5 68c0 37.333 14 64.333 42 81s61.333 26.334 100 29.001c8 0.666992 20 1 36 1c21.333 0 36.333 -0.333008 45 -1v-67
c-0.666992 -41.333 -13.334 -74.5 -38.001 -99.5zM125.004 610.999c-8 5.33301 -12 16.666 -12 33.999c0 16 4.33301 27 13 33s20.667 9 36 9s27.333 -3 36 -9s13 -17 13 -33c0 -17.333 -4 -28.666 -12 -33.999s-20.333 -8 -37 -8s-29 2.66699 -37 8zM310.004 610.999
c-8 5.33301 -12 16.666 -12 33.999c0 16 4.33301 27 13 33s20.667 9 36 9s27.5 -3 36.5 -9s13.5 -17 13.5 -33c0 -17.333 -4.16699 -28.666 -12.5 -33.999s-20.833 -8 -37.5 -8s-29 2.66699 -37 8z" />
    <glyph glyph-name="aring" unicode="&#xe5;" horiz-adv-x="506" 
d="M352 324c-22.667 1.33301 -40.3311 2 -52.998 2c-22 0 -46.333 -1.66699 -73 -5c-52.667 -8 -95.834 -26.5 -129.501 -55.5s-50.5 -69.167 -50.5 -120.5c0 -29.333 7 -56 21 -80s33.667 -43.167 59 -57.5s55 -21.5 89 -21.5c26.667 0 51.834 6.5 75.501 19.5
s44.167 30.833 61.5 53.5l9 -59h68v343c0 54 -17.333 96.667 -52 128s-79.334 47 -134.001 47c-27.333 -0.666992 -52.833 -4 -76.5 -10s-49.834 -16 -78.501 -30l-2 -76c45.333 34 98.333 50 159 48c32.667 -0.666992 58.667 -11 78 -31s29 -46.333 29 -79v-16z
M314.003 93.5c-24.667 -25 -55.999 -37.501 -93.999 -37.501c-25.333 0 -46.833 8.66699 -64.5 26s-26.5 40 -26.5 68c0 37.333 14 64.333 42 81s61.333 26.334 100 29.001c8 0.666992 20 1 36 1c21.333 0 36.333 -0.333008 45 -1v-67
c-0.666992 -41.333 -13.334 -74.5 -38.001 -99.5zM333.504 572.999c-21 -18 -46.833 -27 -77.5 -27s-57.167 8.5 -79.5 25.5s-33.5 41.167 -33.5 72.5s10.833 55.833 32.5 73.5s47.5 26.5 77.5 26.5s56.167 -8.83301 78.5 -26.5s33.5 -42.167 33.5 -73.5
c0 -29.333 -10.5 -53 -31.5 -71zM294.504 686.499c-11.667 9.66699 -25.501 14.499 -41.501 14.499c-15.333 0 -28.666 -5 -39.999 -15s-17 -24 -17 -42c0 -17.333 5.83301 -30.666 17.5 -39.999s25.167 -14 40.5 -14c16 0 29.667 4.66699 41 14s17 22.666 17 39.999
c0 18.667 -5.83301 32.834 -17.5 42.501z" />
    <glyph glyph-name="ae" unicode="&#xe6;" horiz-adv-x="783" 
d="M725 246l-303.001 -0.00195312c4 -126.667 49.667 -190 137 -190c48 0 97.333 19.667 148 59l-1 -81c-43.333 -32 -92.666 -48 -147.999 -48c-41.333 0 -77 8.83301 -107 26.5s-54 42.834 -72 75.501c-19.333 -32 -43.833 -57 -73.5 -75s-62.167 -27 -97.5 -27
c-32 0 -60.333 7.16699 -85 21.5s-43.667 33.5 -57 57.5s-20 50.667 -20 80c0 45.333 16.167 82.333 48.5 111s72.833 47 121.5 55c19.333 3.33301 42.333 5 69 5c14 0 33 -0.666992 57 -2v26c0 34.667 -10.333 61.667 -31 81s-50.667 29 -90 29c-48 0 -93 -16 -135 -48
l2 76c28.667 14 54 24.167 76 30.5s44.667 9.5 68 9.5c35.333 0 66.833 -6.66699 94.5 -20s49.5 -32.333 65.5 -57c36.667 51.333 89 77 157 77c60.667 0 106 -19.667 136 -59s45 -89.666 45 -150.999c0 -19.333 -1.66699 -40 -5 -62zM652.999 316.998
c-0.666992 40 -8.83496 71.667 -24.502 95s-42.5 35 -80.5 35c-37.333 0 -65.166 -11.333 -83.499 -34s-31.166 -54.667 -38.499 -96h227zM341.998 249.998c-8.66699 0.666992 -23.668 1.00098 -45.001 1.00098c-16 0 -28 -0.333008 -36 -1c-88 -6 -132 -40.667 -132 -104
c0 -26.667 7.5 -48.334 22.5 -65.001s36.167 -25 63.5 -25c22.667 0 43.834 5.83301 63.501 17.5s35.167 28 46.5 49s17 44.5 17 70.5v57z" />
    <glyph glyph-name="ccedilla" unicode="&#xe7;" horiz-adv-x="455" 
d="M292 -14l-13.998 -33.0039c24.667 -3.33301 43.167 -12.166 55.5 -26.499s18.5 -31.166 18.5 -50.499c0 -22.667 -8 -42.5 -24 -59.5s-37.667 -25.5 -65 -25.5c-30.667 0 -58.667 10 -84 30l20 45c5.33301 -6 13.333 -11.167 24 -15.5s21 -6.5 31 -6.5
c9.33301 0.666992 17 3.16699 23 7.5s10 9.83301 12 16.5c1.33301 6.66699 2 11 2 13c0 14 -7.5 23.833 -22.5 29.5s-31.167 8.83398 -48.5 9.50098l27 69c-62 8.66699 -109.167 37.334 -141.5 86.001s-48.5 107.667 -48.5 177c0 48.667 9 93.167 27 133.5
s44.667 72.5 80 96.5s77.666 36 126.999 36c39.333 0 74.666 -8 105.999 -24l2 -81c-11.333 10.667 -25.833 19 -43.5 25s-35.834 9 -54.501 9c-51.333 0 -91 -18.167 -119 -54.5s-42 -82.833 -42 -139.5c0 -55.333 12.667 -101.833 38 -139.5s64 -56.5 116 -56.5
c20.667 0 41.834 3.16699 63.501 9.5s41.5 14.833 59.5 25.5l-4 -80c-36.667 -16 -77 -24.667 -121 -26z" />
    <glyph glyph-name="egrave" unicode="&#xe8;" horiz-adv-x="518" 
d="M418.5 455.5c31 -41.667 46.502 -94.167 46.502 -157.5c0 -18.667 -1.66699 -39 -5 -61h-323c2 -52.667 14.5 -96 37.5 -130s59.5 -51 109.5 -51c29.333 0 56.666 4.83301 81.999 14.5s50.666 24.5 75.999 44.5l-1 -81c-43.333 -32 -94.333 -48 -153 -48
c-48.667 0 -90.334 11.167 -125.001 33.5s-61 53.333 -79 93s-27 85.167 -27 136.5c0 79.333 18.833 144 56.5 194s91.834 75 162.501 75c64 0 111.5 -20.833 142.5 -62.5zM388.002 308c-1.33301 92.667 -38.999 139 -112.999 139c-38.667 0 -68.834 -13 -90.501 -39
s-36.167 -59.333 -43.5 -100h247zM207.003 726l136 -117l-36 -41l-148 102z" />
    <glyph glyph-name="eacute" unicode="&#xe9;" horiz-adv-x="518" 
d="M418.5 455.5c31 -41.667 46.502 -94.167 46.502 -157.5c0 -18.667 -1.66699 -39 -5 -61h-323c2 -52.667 14.5 -96 37.5 -130s59.5 -51 109.5 -51c29.333 0 56.666 4.83301 81.999 14.5s50.666 24.5 75.999 44.5l-1 -81c-43.333 -32 -94.333 -48 -153 -48
c-48.667 0 -90.334 11.167 -125.001 33.5s-61 53.333 -79 93s-27 85.167 -27 136.5c0 79.333 18.833 144 56.5 194s91.834 75 162.501 75c64 0 111.5 -20.833 142.5 -62.5zM388.002 308c-1.33301 92.667 -38.999 139 -112.999 139c-38.667 0 -68.834 -13 -90.501 -39
s-36.167 -59.333 -43.5 -100h247zM403.003 669l-147 -103l-36 41l136 117z" />
    <glyph glyph-name="ecircumflex" unicode="&#xea;" horiz-adv-x="518" 
d="M418.5 455.5c31 -41.667 46.502 -94.167 46.502 -157.5c0 -18.667 -1.66699 -39 -5 -61h-323c2 -52.667 14.5 -96 37.5 -130s59.5 -51 109.5 -51c29.333 0 56.666 4.83301 81.999 14.5s50.666 24.5 75.999 44.5l-1 -81c-43.333 -32 -94.333 -48 -153 -48
c-48.667 0 -90.334 11.167 -125.001 33.5s-61 53.333 -79 93s-27 85.167 -27 136.5c0 79.333 18.833 144 56.5 194s91.834 75 162.501 75c64 0 111.5 -20.833 142.5 -62.5zM388.002 308c-1.33301 92.667 -38.999 139 -112.999 139c-38.667 0 -68.834 -13 -90.501 -39
s-36.167 -59.333 -43.5 -100h247zM278.003 646l-114 -77l-32 41l136 106h18l134 -107l-30 -40z" />
    <glyph glyph-name="edieresis" unicode="&#xeb;" horiz-adv-x="518" 
d="M418.5 455.5c31 -41.667 46.502 -94.167 46.502 -157.5c0 -18.667 -1.66699 -39 -5 -61h-323c2 -52.667 14.5 -96 37.5 -130s59.5 -51 109.5 -51c29.333 0 56.666 4.83301 81.999 14.5s50.666 24.5 75.999 44.5l-1 -81c-43.333 -32 -94.333 -48 -153 -48
c-48.667 0 -90.334 11.167 -125.001 33.5s-61 53.333 -79 93s-27 85.167 -27 136.5c0 79.333 18.833 144 56.5 194s91.834 75 162.501 75c64 0 111.5 -20.833 142.5 -62.5zM388.002 308c-1.33301 92.667 -38.999 139 -112.999 139c-38.667 0 -68.834 -13 -90.501 -39
s-36.167 -59.333 -43.5 -100h247zM146.003 611c-8 5.33301 -12 16.666 -12 33.999c0 16 4.33301 27 13 33s20.667 9 36 9s27.333 -3 36 -9s13 -17 13 -33c0 -17.333 -4 -28.666 -12 -33.999s-20.333 -8 -37 -8s-29 2.66699 -37 8zM331.003 611
c-8 5.33301 -12 16.666 -12 33.999c0 16 4.33301 27 13 33s20.667 9 36 9s27.5 -3 36.5 -9s13.5 -17 13.5 -33c0 -17.333 -4.16699 -28.666 -12.5 -33.999s-20.833 -8 -37.5 -8s-29 2.66699 -37 8z" />
    <glyph glyph-name="igrave" unicode="&#xec;" horiz-adv-x="248" 
d="M86 504h77v-504h-77v504zM56 712l136 -117l-36 -41l-148 102z" />
    <glyph glyph-name="iacute" unicode="&#xed;" horiz-adv-x="248" 
d="M86 504h77v-504h-77v504zM252 655l-147 -103l-36 41l136 117z" />
    <glyph glyph-name="icircumflex" unicode="&#xee;" horiz-adv-x="248" 
d="M241 576l-35 -34l-80 71l-80 -71l-35 34l106 116h18zM86 504h77v-504h-77v504z" />
    <glyph glyph-name="idieresis" unicode="&#xef;" horiz-adv-x="248" 
d="M15 577c-8 5.33301 -12 16.666 -12 33.999c0 16 4.33301 27 13 33s20.667 9 36 9s27.333 -3 36 -9s13 -17 13 -33c0 -17.333 -4 -28.666 -12 -33.999s-20.333 -8 -37 -8s-29 2.66699 -37 8zM160 577c-8 5.33301 -12 16.666 -12 33.999c0 16 4.33301 27 13 33
s20.667 9 36 9s27.5 -3 36.5 -9s13.5 -17 13.5 -33c0 -17.333 -4.16699 -28.666 -12.5 -33.999s-20.833 -8 -37.5 -8s-29 2.66699 -37 8zM86 504h77v-504h-77v504z" />
    <glyph glyph-name="eth" unicode="&#xf0;" horiz-adv-x="562" 
d="M439.5 571c20.333 -34.667 34.167 -76.334 41.5 -125.001s11 -110.334 11 -185.001c0 -80.667 -16.833 -146.667 -50.5 -198s-89.167 -77 -166.5 -77c-51.333 0 -93.333 12.333 -126 37s-56.167 56 -70.5 94s-21.5 78.333 -21.5 121c0 70.667 16.333 129.334 49 176.001
s82.667 70 150 70c69.333 0 122 -26.667 158 -80c-3.33301 54 -13.833 97.167 -31.5 129.5s-46.167 58.833 -85.5 79.5l-96 -80l-33 39l76 64c-32.667 12.667 -77.667 25.334 -135 38.001l5 60c78.667 -14.667 140.667 -31.667 186 -51l83 70l34 -40l-66 -55
c38.667 -23.333 68.167 -52.333 88.5 -87zM376.501 110c21.667 36.667 32.5 79.332 32.5 127.999s-11.167 90.5 -33.5 125.5s-56.5 52.5 -102.5 52.5s-79.833 -17.333 -101.5 -52s-32.5 -76.667 -32.5 -126s11.167 -92.166 33.5 -128.499s56.5 -54.5 102.5 -54.5
s79.833 18.333 101.5 55z" />
    <glyph glyph-name="ntilde" unicode="&#xf1;" 
d="M80 504l70.002 0.000976562l6 -53c17.333 20.667 38.166 37 62.499 49s50.5 18 78.5 18c55.333 0 97.666 -15.5 126.999 -46.5s44 -73.167 44 -126.5v-345h-77v345c0 31.333 -9.33301 56.666 -28 75.999s-44.334 29 -77.001 29c-39.333 0 -70.666 -14.5 -93.999 -43.5
s-35 -63.833 -35 -104.5v-302h-77v504zM139.002 638.001c10 24 21.501 41.5 34.501 52.5s27.833 16.5 44.5 16.5c19.333 0 43 -7 71 -21c20 -10.667 35.333 -16 46 -16c16 0 29 11 39 33l43 -23c-10.667 -23.333 -22.334 -40.5 -35.001 -51.5s-27 -16.5 -43 -16.5
c-16.667 0 -37.667 6.33301 -63 19c-12 6 -21.833 10.5 -29.5 13.5s-15.167 4.5 -22.5 4.5c-18 0 -32.333 -11.667 -43 -35z" />
    <glyph glyph-name="ograve" unicode="&#xf2;" horiz-adv-x="562" 
d="M411.5 478c33.667 -26.667 57.667 -60.167 72 -100.5s21.5 -82.166 21.5 -125.499s-7.16699 -85.166 -21.5 -125.499s-38.333 -73.833 -72 -100.5s-77.167 -40 -130.5 -40s-96.833 13.333 -130.5 40s-57.667 60.167 -72 100.5s-21.5 82.166 -21.5 125.499
s7.16699 85.166 21.5 125.499s38.333 73.833 72 100.5s77.167 40 130.5 40s96.833 -13.333 130.5 -40zM172.5 388c-21.667 -40 -32.498 -85.333 -32.498 -136s11 -96 33 -136s58 -60 108 -60s86 20 108 60s33 85.333 33 136s-10.833 96 -32.5 136s-57.834 60 -108.501 60
s-86.834 -20 -108.501 -60zM212.002 712l136 -117l-36 -41l-148 102z" />
    <glyph glyph-name="oacute" unicode="&#xf3;" horiz-adv-x="562" 
d="M411.5 478c33.667 -26.667 57.667 -60.167 72 -100.5s21.5 -82.166 21.5 -125.499s-7.16699 -85.166 -21.5 -125.499s-38.333 -73.833 -72 -100.5s-77.167 -40 -130.5 -40s-96.833 13.333 -130.5 40s-57.667 60.167 -72 100.5s-21.5 82.166 -21.5 125.499
s7.16699 85.166 21.5 125.499s38.333 73.833 72 100.5s77.167 40 130.5 40s96.833 -13.333 130.5 -40zM172.5 388c-21.667 -40 -32.498 -85.333 -32.498 -136s11 -96 33 -136s58 -60 108 -60s86 20 108 60s33 85.333 33 136s-10.833 96 -32.5 136s-57.834 60 -108.501 60
s-86.834 -20 -108.501 -60zM408.002 655l-147 -103l-36 41l136 117z" />
    <glyph glyph-name="ocircumflex" unicode="&#xf4;" horiz-adv-x="562" 
d="M411.5 478c33.667 -26.667 57.667 -60.167 72 -100.5s21.5 -82.166 21.5 -125.499s-7.16699 -85.166 -21.5 -125.499s-38.333 -73.833 -72 -100.5s-77.167 -40 -130.5 -40s-96.833 13.333 -130.5 40s-57.667 60.167 -72 100.5s-21.5 82.166 -21.5 125.499
s7.16699 85.166 21.5 125.499s38.333 73.833 72 100.5s77.167 40 130.5 40s96.833 -13.333 130.5 -40zM172.5 388c-21.667 -40 -32.498 -85.333 -32.498 -136s11 -96 33 -136s58 -60 108 -60s86 20 108 60s33 85.333 33 136s-10.833 96 -32.5 136s-57.834 60 -108.501 60
s-86.834 -20 -108.501 -60zM283.002 632l-114 -77l-32 41l136 106h18l134 -107l-30 -40z" />
    <glyph glyph-name="otilde" unicode="&#xf5;" horiz-adv-x="562" 
d="M411.5 478c33.667 -26.667 57.667 -60.167 72 -100.5s21.5 -82.166 21.5 -125.499s-7.16699 -85.166 -21.5 -125.499s-38.333 -73.833 -72 -100.5s-77.167 -40 -130.5 -40s-96.833 13.333 -130.5 40s-57.667 60.167 -72 100.5s-21.5 82.166 -21.5 125.499
s7.16699 85.166 21.5 125.499s38.333 73.833 72 100.5s77.167 40 130.5 40s96.833 -13.333 130.5 -40zM172.5 388c-21.667 -40 -32.498 -85.333 -32.498 -136s11 -96 33 -136s58 -60 108 -60s86 20 108 60s33 85.333 33 136s-10.833 96 -32.5 136s-57.834 60 -108.501 60
s-86.834 -20 -108.501 -60zM142.002 615c10 24 21.501 41.5 34.501 52.5s27.833 16.5 44.5 16.5c19.333 0 43 -7 71 -21c20 -10.667 35.333 -16 46 -16c16 0 29 11 39 33l43 -23c-10.667 -23.333 -22.334 -40.5 -35.001 -51.5s-27 -16.5 -43 -16.5
c-16.667 0 -37.667 6.33301 -63 19c-12 6 -21.833 10.5 -29.5 13.5s-15.167 4.5 -22.5 4.5c-18 0 -32.333 -11.667 -43 -35z" />
    <glyph glyph-name="odieresis" unicode="&#xf6;" horiz-adv-x="562" 
d="M411.5 478c33.667 -26.667 57.667 -60.167 72 -100.5s21.5 -82.166 21.5 -125.499s-7.16699 -85.166 -21.5 -125.499s-38.333 -73.833 -72 -100.5s-77.167 -40 -130.5 -40s-96.833 13.333 -130.5 40s-57.667 60.167 -72 100.5s-21.5 82.166 -21.5 125.499
s7.16699 85.166 21.5 125.499s38.333 73.833 72 100.5s77.167 40 130.5 40s96.833 -13.333 130.5 -40zM172.5 388c-21.667 -40 -32.498 -85.333 -32.498 -136s11 -96 33 -136s58 -60 108 -60s86 20 108 60s33 85.333 33 136s-10.833 96 -32.5 136s-57.834 60 -108.501 60
s-86.834 -20 -108.501 -60zM151.002 597c-8 5.33301 -12 16.666 -12 33.999c0 16 4.33301 27 13 33s20.667 9 36 9s27.333 -3 36 -9s13 -17 13 -33c0 -17.333 -4 -28.666 -12 -33.999s-20.333 -8 -37 -8s-29 2.66699 -37 8zM336.002 597c-8 5.33301 -12 16.666 -12 33.999
c0 16 4.33301 27 13 33s20.667 9 36 9s27.5 -3 36.5 -9s13.5 -17 13.5 -33c0 -17.333 -4.16699 -28.666 -12.5 -33.999s-20.833 -8 -37.5 -8s-29 2.66699 -37 8z" />
    <glyph glyph-name="divide" unicode="&#xf7;" horiz-adv-x="382" 
d="M0 290v-72h382v72h-382zM231.5 350.5c-6.33301 -9.66699 -19.833 -14.5 -40.5 -14.5c-19.333 0.666992 -32.666 6.16699 -39.999 16.5s-11 24.5 -11 42.5s3.66699 32.167 11 42.5s20.666 15.5 39.999 15.5c20 0 33.333 -4.83301 40 -14.5s10 -24.167 10 -43.5
c0 -20 -3.16699 -34.833 -9.5 -44.5zM231.5 69.5c-6.33301 -9.66699 -19.833 -14.5 -40.5 -14.5c-19.333 0.666992 -32.666 6.16699 -39.999 16.5s-11 24.5 -11 42.5s3.66699 32.167 11 42.5s20.666 15.5 39.999 15.5c20 0 33.333 -4.83301 40 -14.5s10 -24.167 10 -43.5
c0 -20 -3.16699 -34.833 -9.5 -44.5z" />
    <glyph glyph-name="oslash" unicode="&#xf8;" horiz-adv-x="562" 
d="M487.5 367.5c11.667 -37 17.501 -75.166 17.501 -114.499c0 -43.333 -7.16699 -85.166 -21.5 -125.499s-38.333 -74 -72 -101s-77.167 -40.5 -130.5 -40.5c-41.333 0 -78 9 -110 27l-30 -52l-44 25l33 58c-25.333 25.333 -43.833 56.666 -55.5 93.999
s-17.5 75.666 -17.5 114.999c0 43.333 7.16699 85 21.5 125s38.333 73.333 72 100s77.167 40 130.5 40c41.333 0 77.666 -8.66699 108.999 -26l30 52l45 -26l-33 -57c25.333 -25.333 43.833 -56.5 55.5 -93.5zM171.001 114.001l183 315
c-19.333 12.667 -43.666 19 -72.999 19c-50.667 0 -86.834 -19.833 -108.501 -59.5s-32.5 -84.834 -32.5 -135.501c0 -61.333 10.333 -107.666 31 -138.999zM389.001 117.001c22 40 33.001 85.333 33.001 136c0 60.667 -10.333 106.667 -31 138l-183 -315
c19.333 -12.667 43.666 -19 72.999 -19c50 0 86 20 108 60z" />
    <glyph glyph-name="ugrave" unicode="&#xf9;" 
d="M465 0h-71.001l-6 53c-16.667 -20.667 -37.167 -37 -61.5 -49s-50.5 -18 -78.5 -18c-55.333 0 -97.666 15.5 -126.999 46.5s-44 73.167 -44 126.5v345h77v-345c0 -31.333 9.16699 -56.5 27.5 -75.5s43.833 -28.5 76.5 -28.5c40 0 71.667 14.5 95 43.5s35 63.833 35 104.5
v301h77v-504zM201.999 712l136 -117l-36 -41l-148 102z" />
    <glyph glyph-name="uacute" unicode="&#xfa;" 
d="M465 0h-71.001l-6 53c-16.667 -20.667 -37.167 -37 -61.5 -49s-50.5 -18 -78.5 -18c-55.333 0 -97.666 15.5 -126.999 46.5s-44 73.167 -44 126.5v345h77v-345c0 -31.333 9.16699 -56.5 27.5 -75.5s43.833 -28.5 76.5 -28.5c40 0 71.667 14.5 95 43.5s35 63.833 35 104.5
v301h77v-504zM397.999 655l-147 -103l-36 41l136 117z" />
    <glyph glyph-name="ucircumflex" unicode="&#xfb;" 
d="M465 0h-71.001l-6 53c-16.667 -20.667 -37.167 -37 -61.5 -49s-50.5 -18 -78.5 -18c-55.333 0 -97.666 15.5 -126.999 46.5s-44 73.167 -44 126.5v345h77v-345c0 -31.333 9.16699 -56.5 27.5 -75.5s43.833 -28.5 76.5 -28.5c40 0 71.667 14.5 95 43.5s35 63.833 35 104.5
v301h77v-504zM272.999 632l-114 -77l-32 41l136 106h18l134 -107l-30 -40z" />
    <glyph glyph-name="udieresis" unicode="&#xfc;" 
d="M465 0h-71.001l-6 53c-16.667 -20.667 -37.167 -37 -61.5 -49s-50.5 -18 -78.5 -18c-55.333 0 -97.666 15.5 -126.999 46.5s-44 73.167 -44 126.5v345h77v-345c0 -31.333 9.16699 -56.5 27.5 -75.5s43.833 -28.5 76.5 -28.5c40 0 71.667 14.5 95 43.5s35 63.833 35 104.5
v301h77v-504zM140.999 597c-8 5.33301 -12 16.666 -12 33.999c0 16 4.33301 27 13 33s20.667 9 36 9s27.333 -3 36 -9s13 -17 13 -33c0 -17.333 -4 -28.666 -12 -33.999s-20.333 -8 -37 -8s-29 2.66699 -37 8zM325.999 597c-8 5.33301 -12 16.666 -12 33.999
c0 16 4.33301 27 13 33s20.667 9 36 9s27.5 -3 36.5 -9s13.5 -17 13.5 -33c0 -17.333 -4.16699 -28.666 -12.5 -33.999s-20.833 -8 -37.5 -8s-29 2.66699 -37 8z" />
    <glyph glyph-name="yacute" unicode="&#xfd;" horiz-adv-x="517" 
d="M408 504l-75.999 -202l-63 -182l-73 182l-85 202h-86l205 -478l-42 -112c-5.33301 -16 -13 -27.833 -23 -35.5s-23 -11.5 -39 -11.5c-10 0 -21 1.66699 -33 5s-23.333 7.66602 -34 12.999v-70c10 -7.33301 21.667 -12.666 35 -15.999s26 -5 38 -5
c31.333 0 58.666 10.167 81.999 30.5s40.333 45.833 51 76.5l226 603h-83zM387.001 665l-147 -103l-36 41l136 117z" />
    <glyph glyph-name="thorn" unicode="&#xfe;" horiz-adv-x="569" 
d="M80 -196l77 0.000976562v259c36.667 -51.333 84.334 -77 143.001 -77c47.333 0 86.833 12.333 118.5 37s55.167 57.167 70.5 97.5s23 84.166 23 131.499c0 42.667 -7 84.167 -21 124.5s-37 74 -69 101s-73.667 40.5 -125 40.5c-56.667 0 -103.334 -25.667 -140.001 -77
v259h-77v-896zM396 390.501c22.667 -40.333 34 -86.502 34 -138.502c0 -31.333 -4.5 -62.166 -13.5 -92.499s-23.833 -55.666 -44.5 -75.999s-47 -30.5 -79 -30.5c-46 0 -80.167 20.167 -102.5 60.5s-33.5 86.5 -33.5 138.5s11.167 98.167 33.5 138.5s56.5 60.5 102.5 60.5
s80.333 -20.167 103 -60.5z" />
    <glyph glyph-name="ydieresis" unicode="&#xff;" horiz-adv-x="517" 
d="M408 504l-75.999 -202l-63 -182l-73 182l-85 202h-86l205 -478l-42 -112c-5.33301 -16 -13 -27.833 -23 -35.5s-23 -11.5 -39 -11.5c-10 0 -21 1.66699 -33 5s-23.333 7.66602 -34 12.999v-70c10 -7.33301 21.667 -12.666 35 -15.999s26 -5 38 -5
c31.333 0 58.666 10.167 81.999 30.5s40.333 45.833 51 76.5l226 603h-83zM130.001 607c-8 5.33301 -12 16.666 -12 33.999c0 16 4.33301 27 13 33s20.667 9 36 9s27.333 -3 36 -9s13 -17 13 -33c0 -17.333 -4 -28.666 -12 -33.999s-20.333 -8 -37 -8s-29 2.66699 -37 8z
M315.001 607c-8 5.33301 -12 16.666 -12 33.999c0 16 4.33301 27 13 33s20.667 9 36 9s27.5 -3 36.5 -9s13.5 -17 13.5 -33c0 -17.333 -4.16699 -28.666 -12.5 -33.999s-20.833 -8 -37.5 -8s-29 2.66699 -37 8z" />
    <glyph glyph-name="Amacron" unicode="&#x100;" horiz-adv-x="652" 
d="M109 0h-91l296 712h19l301 -712h-96l-60 148h-309zM323 530l-124 -307h248zM183 857v-62h281v62h-281z" />
    <glyph glyph-name="amacron" unicode="&#x101;" horiz-adv-x="506" 
d="M352 324c-22.667 1.33301 -40.3311 2 -52.998 2c-22 0 -46.333 -1.66699 -73 -5c-52.667 -8 -95.834 -26.5 -129.501 -55.5s-50.5 -69.167 -50.5 -120.5c0 -29.333 7 -56 21 -80s33.667 -43.167 59 -57.5s55 -21.5 89 -21.5c26.667 0 51.834 6.5 75.501 19.5
s44.167 30.833 61.5 53.5l9 -59h68v343c0 54 -17.333 96.667 -52 128s-79.334 47 -134.001 47c-27.333 -0.666992 -52.833 -4 -76.5 -10s-49.834 -16 -78.501 -30l-2 -76c45.333 34 98.333 50 159 48c32.667 -0.666992 58.667 -11 78 -31s29 -46.333 29 -79v-16z
M314.003 93.5c-24.667 -25 -55.999 -37.501 -93.999 -37.501c-25.333 0 -46.833 8.66699 -64.5 26s-26.5 40 -26.5 68c0 37.333 14 64.333 42 81s61.333 26.334 100 29.001c8 0.666992 20 1 36 1c21.333 0 36.333 -0.333008 45 -1v-67
c-0.666992 -41.333 -13.334 -74.5 -38.001 -99.5zM114.004 679.999v-62h281v62h-281z" />
    <glyph glyph-name="Abreve" unicode="&#x102;" horiz-adv-x="652" 
d="M109 0h-91l296 712h19l301 -712h-96l-60 148h-309zM323 530l-124 -307h248zM241 887c5.33301 -20 15.8301 -35.667 31.4971 -47s32.834 -17 51.501 -17s35.834 5.66699 51.501 17s25.834 27 30.501 47l54 -14c-7.33301 -35.333 -24 -62.666 -50 -81.999s-55 -29 -87 -29
s-60.5 9.66699 -85.5 29s-41.167 46.666 -48.5 81.999z" />
    <glyph glyph-name="abreve" unicode="&#x103;" horiz-adv-x="506" 
d="M352 324c-22.667 1.33301 -40.3311 2 -52.998 2c-22 0 -46.333 -1.66699 -73 -5c-52.667 -8 -95.834 -26.5 -129.501 -55.5s-50.5 -69.167 -50.5 -120.5c0 -29.333 7 -56 21 -80s33.667 -43.167 59 -57.5s55 -21.5 89 -21.5c26.667 0 51.834 6.5 75.501 19.5
s44.167 30.833 61.5 53.5l9 -59h68v343c0 54 -17.333 96.667 -52 128s-79.334 47 -134.001 47c-27.333 -0.666992 -52.833 -4 -76.5 -10s-49.834 -16 -78.501 -30l-2 -76c45.333 34 98.333 50 159 48c32.667 -0.666992 58.667 -11 78 -31s29 -46.333 29 -79v-16z
M314.003 93.5c-24.667 -25 -55.999 -37.501 -93.999 -37.501c-25.333 0 -46.833 8.66699 -64.5 26s-26.5 40 -26.5 68c0 37.333 14 64.333 42 81s61.333 26.334 100 29.001c8 0.666992 20 1 36 1c21.333 0 36.333 -0.333008 45 -1v-67
c-0.666992 -41.333 -13.334 -74.5 -38.001 -99.5zM172.004 694.999c5.33301 -20 15.8301 -35.667 31.4971 -47s32.834 -17 51.501 -17s35.834 5.66699 51.501 17s25.834 27 30.501 47l54 -14c-7.33301 -35.333 -24 -62.666 -50 -81.999s-55 -29 -87 -29
s-60.5 9.66699 -85.5 29s-41.167 46.666 -48.5 81.999z" />
    <glyph glyph-name="Aogonek" unicode="&#x104;" horiz-adv-x="652" 
d="M109 0h-91l296 712h19l301 -712h-96l-60 148h-309zM323 530l-124 -307h248zM488.5 -66.5c-10.333 -22.333 -15.501 -43.833 -15.501 -64.5c0 -24 5.66699 -43.333 17 -58s29 -22 53 -22c12.667 0 25.834 2.33301 39.501 7s25.167 10.667 34.5 18l-9 54
c-6 -4.66699 -13.333 -8.5 -22 -11.5s-16.667 -4.5 -24 -4.5c-10.667 0 -18.5 3.16699 -23.5 9.5s-7.5 14.5 -7.5 24.5c0 17.333 7 37 21 59s29 40.333 45 55h-59c-22.667 -22 -39.167 -44.167 -49.5 -66.5z" />
    <glyph glyph-name="aogonek" unicode="&#x105;" horiz-adv-x="506" 
d="M440 -186c-9.33301 -7.33301 -20.835 -13.333 -34.502 -18s-26.834 -7 -39.501 -7c-24 0 -41.667 7.33301 -53 22s-17 34 -17 58c0 20.667 5.16699 42.167 15.5 64.5s26.833 44.5 49.5 66.5l-9 59c-17.333 -22.667 -37.833 -40.5 -61.5 -53.5
s-48.834 -19.5 -75.501 -19.5c-34 0 -63.667 7.16699 -89 21.5s-45 33.5 -59 57.5s-21 50.667 -21 80c0 51.333 16.833 91.5 50.5 120.5s76.834 47.5 129.501 55.5c26.667 3.33301 51 5 73 5c12.667 0 30.334 -0.666992 53.001 -2v16c0 32.667 -9.66699 59 -29 79
s-45.333 30.333 -78 31c-60.667 2 -113.667 -14 -159 -48l2 76c28.667 14 54.834 24 78.501 30s49.167 9.33301 76.5 10c54.667 0 99.334 -15.667 134.001 -47s52 -74 52 -128v-343h-9c-16 -14.667 -31 -33 -45 -55s-21 -41.667 -21 -59c0 -10 2.5 -18.167 7.5 -24.5
s12.833 -9.5 23.5 -9.5c7.33301 0 15.333 1.5 24 4.5s16 6.83301 22 11.5zM351.998 260c-8.66699 0.666992 -23.668 1.00098 -45.001 1.00098c-16 0 -28 -0.333008 -36 -1c-38.667 -2.66699 -72 -12.334 -100 -29.001s-42 -43.667 -42 -81c0 -28 8.83301 -50.667 26.5 -68
s39.167 -26 64.5 -26c38 0 69.333 12.5 94 37.5s37.334 58.167 38.001 99.5v67z" />
    <glyph glyph-name="Cacute" unicode="&#x106;" horiz-adv-x="533" 
d="M421.5 631c17 -4.66699 35.4961 -14.3311 55.4961 -28.998v87c-36 16.667 -76.667 25 -122 25c-100.667 0 -174.167 -34 -220.5 -102s-69.5 -155.333 -69.5 -262s23.167 -194 69.5 -262s119.833 -102 220.5 -102c24.667 0 49.334 3 74.001 9s47.334 14.667 68.001 26v85
c-41.333 -29.333 -88.666 -44 -141.999 -44c-48.667 0 -88.167 14.167 -118.5 42.5s-52 64.166 -65 107.499s-19.5 89.333 -19.5 138s6.5 94.667 19.5 138s34.833 79.166 65.5 107.499s70.334 42.5 119.001 42.5c26.667 0 48.5 -2.33301 65.5 -7zM450.996 865.003l-147 -103
l-36 41l136 117z" />
    <glyph glyph-name="cacute" unicode="&#x107;" horiz-adv-x="455" 
d="M84 385.5c18 40.333 44.6689 72.5 80.002 96.5s77.666 36 126.999 36c39.333 0 74.666 -8 105.999 -24l2 -81c-11.333 10.667 -25.833 19 -43.5 25s-35.834 9 -54.501 9c-51.333 0 -91 -18.167 -119 -54.5s-42 -82.833 -42 -139.5c0 -55.333 12.667 -101.833 38 -139.5
s64 -56.5 116 -56.5c20.667 0 41.834 3.16699 63.501 9.5s41.5 14.833 59.5 25.5l-4 -80c-38.667 -17.333 -81.667 -26 -129 -26c-49.333 0 -91 12 -125 36s-59.5 56 -76.5 96s-25.5 84.667 -25.5 134c0 48.667 9 93.167 27 133.5zM394.002 669l-147 -103l-36 41l136 117z
" />
    <glyph glyph-name="Ccircumflex" unicode="&#x108;" horiz-adv-x="533" 
d="M421.5 631c17 -4.66699 35.4961 -14.3311 55.4961 -28.998v87c-36 16.667 -76.667 25 -122 25c-100.667 0 -174.167 -34 -220.5 -102s-69.5 -155.333 -69.5 -262s23.167 -194 69.5 -262s119.833 -102 220.5 -102c24.667 0 49.334 3 74.001 9s47.334 14.667 68.001 26v85
c-41.333 -29.333 -88.666 -44 -141.999 -44c-48.667 0 -88.167 14.167 -118.5 42.5s-52 64.166 -65 107.499s-19.5 89.333 -19.5 138s6.5 94.667 19.5 138s34.833 79.166 65.5 107.499s70.334 42.5 119.001 42.5c26.667 0 48.5 -2.33301 65.5 -7zM325.996 842.003l-114 -77
l-32 41l136 106h18l134 -107l-30 -40z" />
    <glyph glyph-name="ccircumflex" unicode="&#x109;" horiz-adv-x="455" 
d="M84 385.5c18 40.333 44.6689 72.5 80.002 96.5s77.666 36 126.999 36c39.333 0 74.666 -8 105.999 -24l2 -81c-11.333 10.667 -25.833 19 -43.5 25s-35.834 9 -54.501 9c-51.333 0 -91 -18.167 -119 -54.5s-42 -82.833 -42 -139.5c0 -55.333 12.667 -101.833 38 -139.5
s64 -56.5 116 -56.5c20.667 0 41.834 3.16699 63.501 9.5s41.5 14.833 59.5 25.5l-4 -80c-38.667 -17.333 -81.667 -26 -129 -26c-49.333 0 -91 12 -125 36s-59.5 56 -76.5 96s-25.5 84.667 -25.5 134c0 48.667 9 93.167 27 133.5zM269.002 646l-114 -77l-32 41l136 106h18
l134 -107l-30 -40z" />
    <glyph glyph-name="Cdotaccent" unicode="&#x10a;" horiz-adv-x="533" 
d="M421.5 631c17 -4.66699 35.4961 -14.3311 55.4961 -28.998v87c-36 16.667 -76.667 25 -122 25c-100.667 0 -174.167 -34 -220.5 -102s-69.5 -155.333 -69.5 -262s23.167 -194 69.5 -262s119.833 -102 220.5 -102c24.667 0 49.334 3 74.001 9s47.334 14.667 68.001 26v85
c-41.333 -29.333 -88.666 -44 -141.999 -44c-48.667 0 -88.167 14.167 -118.5 42.5s-52 64.166 -65 107.499s-19.5 89.333 -19.5 138s6.5 94.667 19.5 138s34.833 79.166 65.5 107.499s70.334 42.5 119.001 42.5c26.667 0 48.5 -2.33301 65.5 -7zM282.996 803.503
c-8.66699 5.66699 -12.998 18.167 -12.998 37.5c0 17.333 4.83301 29.333 14.5 36s22.834 10 39.501 10c17.333 0 30.666 -3.33301 39.999 -10s14 -18.667 14 -36c0 -19.333 -4.33301 -31.833 -13 -37.5s-22.334 -8.5 -41.001 -8.5s-32.334 2.83301 -41.001 8.5z" />
    <glyph glyph-name="cdotaccent" unicode="&#x10b;" horiz-adv-x="455" 
d="M84 385.5c18 40.333 44.6689 72.5 80.002 96.5s77.666 36 126.999 36c39.333 0 74.666 -8 105.999 -24l2 -81c-11.333 10.667 -25.833 19 -43.5 25s-35.834 9 -54.501 9c-51.333 0 -91 -18.167 -119 -54.5s-42 -82.833 -42 -139.5c0 -55.333 12.667 -101.833 38 -139.5
s64 -56.5 116 -56.5c20.667 0 41.834 3.16699 63.501 9.5s41.5 14.833 59.5 25.5l-4 -80c-38.667 -17.333 -81.667 -26 -129 -26c-49.333 0 -91 12 -125 36s-59.5 56 -76.5 96s-25.5 84.667 -25.5 134c0 48.667 9 93.167 27 133.5zM226.002 607.5
c-8.66699 5.66699 -12.998 18.167 -12.998 37.5c0 17.333 4.83301 29.333 14.5 36s22.834 10 39.501 10c17.333 0 30.666 -3.33301 39.999 -10s14 -18.667 14 -36c0 -19.333 -4.33301 -31.833 -13 -37.5s-22.334 -8.5 -41.001 -8.5s-32.334 2.83301 -41.001 8.5z" />
    <glyph glyph-name="Ccaron" unicode="&#x10c;" horiz-adv-x="533" 
d="M421.5 631c17 -4.66699 35.4961 -14.3311 55.4961 -28.998v87c-36 16.667 -76.667 25 -122 25c-100.667 0 -174.167 -34 -220.5 -102s-69.5 -155.333 -69.5 -262s23.167 -194 69.5 -262s119.833 -102 220.5 -102c24.667 0 49.334 3 74.001 9s47.334 14.667 68.001 26v85
c-41.333 -29.333 -88.666 -44 -141.999 -44c-48.667 0 -88.167 14.167 -118.5 42.5s-52 64.166 -65 107.499s-19.5 89.333 -19.5 138s6.5 94.667 19.5 138s34.833 79.166 65.5 107.499s70.334 42.5 119.001 42.5c26.667 0 48.5 -2.33301 65.5 -7zM467.996 872.003l-134 -107
h-18l-136 106l32 41l114 -77l112 77z" />
    <glyph glyph-name="ccaron" unicode="&#x10d;" horiz-adv-x="455" 
d="M84 385.5c18 40.333 44.6689 72.5 80.002 96.5s77.666 36 126.999 36c39.333 0 74.666 -8 105.999 -24l2 -81c-11.333 10.667 -25.833 19 -43.5 25s-35.834 9 -54.501 9c-51.333 0 -91 -18.167 -119 -54.5s-42 -82.833 -42 -139.5c0 -55.333 12.667 -101.833 38 -139.5
s64 -56.5 116 -56.5c20.667 0 41.834 3.16699 63.501 9.5s41.5 14.833 59.5 25.5l-4 -80c-38.667 -17.333 -81.667 -26 -129 -26c-49.333 0 -91 12 -125 36s-59.5 56 -76.5 96s-25.5 84.667 -25.5 134c0 48.667 9 93.167 27 133.5zM411.002 676l-134 -107h-18l-136 106
l32 41l114 -77l112 77z" />
    <glyph glyph-name="Dcaron" unicode="&#x10e;" horiz-adv-x="647" 
d="M439 49.5c47.333 33 83.001 76.167 107.001 129.5s36 110.333 36 171s-12 117.667 -36 171s-59.833 96.5 -107.5 129.5s-105.5 49.5 -173.5 49.5h-169v-700h171c67.333 0 124.666 16.5 171.999 49.5zM390.501 587c34.333 -24.667 60.333 -57.832 78 -99.499
s26.5 -87.5 26.5 -137.5s-8.83301 -95.833 -26.5 -137.5s-43.667 -74.834 -78 -99.501s-75.5 -37 -123.5 -37h-87v548h86c48.667 0 90.167 -12.333 124.5 -37zM441.001 858.002l-134 -107h-18l-136 106l32 41l114 -77l112 77z" />
    <glyph glyph-name="dcaron" unicode="&#x10f;" horiz-adv-x="661" 
d="M489 700l-77 -0.000976562v-259c-16.667 24 -37.167 42.833 -61.5 56.5s-51.5 20.5 -81.5 20.5c-47.333 0 -87 -12.333 -119 -37s-55.5 -57.167 -70.5 -97.5s-22.5 -84.166 -22.5 -131.499c0 -43.333 6.83301 -85 20.5 -125s36.5 -73.5 68.5 -100.5
s73.667 -40.5 125 -40.5c30 0 56.833 7 80.5 21s44.167 33.333 61.5 58l6 -65h70v700zM646 645.999c0 18.667 -2.66895 32.333 -8.00195 41s-16.666 13 -33.999 13s-29.166 -4.33301 -35.499 -13s-9.5 -21.334 -9.5 -38.001c0 -14.667 2.5 -26.667 7.5 -36
s13.833 -14.666 26.5 -15.999c0 -12.667 -3 -25.5 -9 -38.5s-13.667 -24.167 -23 -33.5l39 -13c30.667 33.333 46 78 46 134zM172.498 113.498c-22.333 40.333 -33.5 86.501 -33.5 138.501c0 31.333 4.5 62.166 13.5 92.499s23.667 55.5 44 75.5s46.5 30 78.5 30
c46 0 80.333 -20 103 -60s34 -86 34 -138s-11.333 -98.167 -34 -138.5s-57 -60.5 -103 -60.5s-80.167 20.167 -102.5 60.5z" />
    <glyph glyph-name="Dcroat" unicode="&#x110;" horiz-adv-x="647" 
d="M438.5 650.5c47.667 -33 83.499 -76.167 107.499 -129.5s36 -110.333 36 -171s-12 -117.667 -36 -171s-59.667 -96.5 -107 -129.5s-104.666 -49.5 -171.999 -49.5h-171v319h-90v62h90v319h169c68 0 125.833 -16.5 173.5 -49.5zM390.499 113
c34.333 24.667 60.333 57.832 78 99.499s26.5 87.5 26.5 137.5s-8.83301 95.833 -26.5 137.5s-43.667 74.834 -78 99.501s-75.833 37 -124.5 37h-86v-243h130v-62h-130v-243h87c48 0 89.167 12.333 123.5 37z" />
    <glyph glyph-name="dcroat" unicode="&#x111;" horiz-adv-x="569" 
d="M566 564l-77 0.000976562v-564h-70l-6 65c-17.333 -24.667 -37.833 -44 -61.5 -58s-50.5 -21 -80.5 -21c-51.333 0 -93 13.5 -125 40.5s-54.833 60.5 -68.5 100.5s-20.5 81.667 -20.5 125c0 47.333 7.5 91.166 22.5 131.499s38.5 72.833 70.5 97.5s71.667 37 119 37
c30 0 57.167 -6.83301 81.5 -20.5s44.833 -32.5 61.5 -56.5v123h-117v58h117v78h77v-78h77v-58zM378 113.501c22.667 40.333 34 86.499 34 138.499s-11.333 98 -34 138s-57 60 -103 60c-32 0 -58.167 -10 -78.5 -30s-35 -45.167 -44 -75.5s-13.5 -61.166 -13.5 -92.499
c0 -52 11.167 -98.167 33.5 -138.5s56.5 -60.5 102.5 -60.5s80.333 20.167 103 60.5z" />
    <glyph glyph-name="Emacron" unicode="&#x112;" horiz-adv-x="522" 
d="M96 700h370v-76h-286v-218h264v-76h-264v-254h296v-76h-380v700zM140 872v-62h281v62h-281z" />
    <glyph glyph-name="emacron" unicode="&#x113;" horiz-adv-x="518" 
d="M418.5 455.5c31 -41.667 46.502 -94.167 46.502 -157.5c0 -18.667 -1.66699 -39 -5 -61h-323c2 -52.667 14.5 -96 37.5 -130s59.5 -51 109.5 -51c29.333 0 56.666 4.83301 81.999 14.5s50.666 24.5 75.999 44.5l-1 -81c-43.333 -32 -94.333 -48 -153 -48
c-48.667 0 -90.334 11.167 -125.001 33.5s-61 53.333 -79 93s-27 85.167 -27 136.5c0 79.333 18.833 144 56.5 194s91.834 75 162.501 75c64 0 111.5 -20.833 142.5 -62.5zM388.002 308c-1.33301 92.667 -38.999 139 -112.999 139c-38.667 0 -68.834 -13 -90.501 -39
s-36.167 -59.333 -43.5 -100h247zM135.003 690v-62h281v62h-281z" />
    <glyph glyph-name="Ebreve" unicode="&#x114;" horiz-adv-x="522" 
d="M96 700h370v-76h-286v-218h264v-76h-264v-254h296v-76h-380v700zM198 877c5.33301 -20 15.8301 -35.667 31.4971 -47s32.834 -17 51.501 -17s35.834 5.66699 51.501 17s25.834 27 30.501 47l54 -14c-7.33301 -35.333 -24 -62.666 -50 -81.999s-55 -29 -87 -29
s-60.5 9.66699 -85.5 29s-41.167 46.666 -48.5 81.999z" />
    <glyph glyph-name="ebreve" unicode="&#x115;" horiz-adv-x="518" 
d="M418.5 455.5c31 -41.667 46.502 -94.167 46.502 -157.5c0 -18.667 -1.66699 -39 -5 -61h-323c2 -52.667 14.5 -96 37.5 -130s59.5 -51 109.5 -51c29.333 0 56.666 4.83301 81.999 14.5s50.666 24.5 75.999 44.5l-1 -81c-43.333 -32 -94.333 -48 -153 -48
c-48.667 0 -90.334 11.167 -125.001 33.5s-61 53.333 -79 93s-27 85.167 -27 136.5c0 79.333 18.833 144 56.5 194s91.834 75 162.501 75c64 0 111.5 -20.833 142.5 -62.5zM388.002 308c-1.33301 92.667 -38.999 139 -112.999 139c-38.667 0 -68.834 -13 -90.501 -39
s-36.167 -59.333 -43.5 -100h247zM193.003 695c5.33301 -20 15.8301 -35.667 31.4971 -47s32.834 -17 51.501 -17s35.834 5.66699 51.501 17s25.834 27 30.501 47l54 -14c-7.33301 -35.333 -24 -62.666 -50 -81.999s-55 -29 -87 -29s-60.5 9.66699 -85.5 29
s-41.167 46.666 -48.5 81.999z" />
    <glyph glyph-name="Edotaccent" unicode="&#x116;" horiz-adv-x="522" 
d="M96 700h370v-76h-286v-218h264v-76h-264v-254h296v-76h-380v700zM240 789.5c-8.66699 5.66699 -12.998 18.167 -12.998 37.5c0 17.333 4.83301 29.333 14.5 36s22.834 10 39.501 10c17.333 0 30.666 -3.33301 39.999 -10s14 -18.667 14 -36
c0 -19.333 -4.33301 -31.833 -13 -37.5s-22.334 -8.5 -41.001 -8.5s-32.334 2.83301 -41.001 8.5z" />
    <glyph glyph-name="edotaccent" unicode="&#x117;" horiz-adv-x="518" 
d="M418.5 455.5c31 -41.667 46.502 -94.167 46.502 -157.5c0 -18.667 -1.66699 -39 -5 -61h-323c2 -52.667 14.5 -96 37.5 -130s59.5 -51 109.5 -51c29.333 0 56.666 4.83301 81.999 14.5s50.666 24.5 75.999 44.5l-1 -81c-43.333 -32 -94.333 -48 -153 -48
c-48.667 0 -90.334 11.167 -125.001 33.5s-61 53.333 -79 93s-27 85.167 -27 136.5c0 79.333 18.833 144 56.5 194s91.834 75 162.501 75c64 0 111.5 -20.833 142.5 -62.5zM388.002 308c-1.33301 92.667 -38.999 139 -112.999 139c-38.667 0 -68.834 -13 -90.501 -39
s-36.167 -59.333 -43.5 -100h247zM235.003 607.5c-8.66699 5.66699 -12.998 18.167 -12.998 37.5c0 17.333 4.83301 29.333 14.5 36s22.834 10 39.501 10c17.333 0 30.666 -3.33301 39.999 -10s14 -18.667 14 -36c0 -19.333 -4.33301 -31.833 -13 -37.5
s-22.334 -8.5 -41.001 -8.5s-32.334 2.83301 -41.001 8.5z" />
    <glyph glyph-name="Eogonek" unicode="&#x118;" horiz-adv-x="522" 
d="M415.5 -52.5c-17 -22.333 -25.499 -42.833 -25.499 -61.5c0 -10 2.5 -18.167 7.5 -24.5s12.833 -9.5 23.5 -9.5c7.33301 0 15.333 1.5 24 4.5s16 6.83301 22 11.5l9 -54c-9.33301 -7.33301 -20.833 -13.333 -34.5 -18s-26.834 -7 -39.501 -7
c-24 0 -41.667 7.33301 -53 22s-17 34 -17 58c0 48 25 91.667 75 131h-311v700h370v-76h-286v-218h264v-76h-264v-254h296v-76c-23.333 -12.667 -43.5 -30.167 -60.5 -52.5z" />
    <glyph glyph-name="eogonek" unicode="&#x119;" horiz-adv-x="518" 
d="M460 237l-323 -0.000976562c4.66699 -120.667 54.667 -181 150 -181c52.667 0 104.334 19.667 155.001 59l-1 -81c-34.667 -25.333 -62 -51.5 -82 -78.5s-30 -50.5 -30 -70.5c0 -10 2.5 -18 7.5 -24s12.833 -9 23.5 -9c7.33301 0 15.333 1.66699 24 5s16 7 22 11l9 -54
c-9.33301 -7.33301 -20.833 -13.333 -34.5 -18s-26.834 -7 -39.501 -7c-23.333 0 -41.666 7.5 -54.999 22.5s-20 32.833 -20 53.5c0 19.333 5.16699 40 15.5 62s24.833 42.333 43.5 61c-16 -1.33301 -28.333 -2 -37 -2c-72.667 0 -129.334 24.333 -170.001 73
s-61 113 -61 193c0 50 8.16699 95 24.5 135s41 71.833 74 95.5s73.167 35.5 120.5 35.5c64 0 111.5 -20.667 142.5 -62s46.5 -93.666 46.5 -156.999c0 -19.333 -1.66699 -40 -5 -62zM388 307.999c-0.666992 41.333 -9.5 74.833 -26.5 100.5s-45.5 38.5 -85.5 38.5
c-39.333 0 -69.833 -12.833 -91.5 -38.5s-36.167 -59.167 -43.5 -100.5h247z" />
    <glyph glyph-name="Ecaron" unicode="&#x11a;" horiz-adv-x="522" 
d="M96 700h370v-76h-286v-218h264v-76h-264v-254h296v-76h-380v700zM425 858l-134 -107h-18l-136 106l32 41l114 -77l112 77z" />
    <glyph glyph-name="ecaron" unicode="&#x11b;" horiz-adv-x="518" 
d="M418.5 455.5c31 -41.667 46.502 -94.167 46.502 -157.5c0 -18.667 -1.66699 -39 -5 -61h-323c2 -52.667 14.5 -96 37.5 -130s59.5 -51 109.5 -51c29.333 0 56.666 4.83301 81.999 14.5s50.666 24.5 75.999 44.5l-1 -81c-43.333 -32 -94.333 -48 -153 -48
c-48.667 0 -90.334 11.167 -125.001 33.5s-61 53.333 -79 93s-27 85.167 -27 136.5c0 79.333 18.833 144 56.5 194s91.834 75 162.501 75c64 0 111.5 -20.833 142.5 -62.5zM388.002 308c-1.33301 92.667 -38.999 139 -112.999 139c-38.667 0 -68.834 -13 -90.501 -39
s-36.167 -59.333 -43.5 -100h247zM420.003 676l-134 -107h-18l-136 106l32 41l114 -77l112 77z" />
    <glyph glyph-name="Gcircumflex" unicode="&#x11c;" horiz-adv-x="595" 
d="M524 19c-20 -10.667 -43.167 -18.834 -69.5 -24.501s-52.166 -8.5 -77.499 -8.5c-69.333 0 -127.333 16.333 -174 49s-81.334 76.5 -104.001 131.5s-34 115.833 -34 182.5c0 67.333 11.5 128.666 34.5 183.999s57.833 99.333 104.5 132s104.334 49 173.001 49
c48 0 90.333 -9 127 -27v-86c-20.667 14 -40.334 23.667 -59.001 29s-41 8 -67 8c-48.667 0 -90 -14.167 -124 -42.5s-59.5 -64.666 -76.5 -108.999s-25.5 -90.166 -25.5 -137.499c0 -46.667 8.33301 -92 25 -136s42 -80.167 76 -108.5s75.333 -42.5 124 -42.5
c22.667 0 43.667 2.33301 63 7v267h84v-317zM351 828l-114 -77l-32 41l136 106h18l134 -107l-30 -40z" />
    <glyph glyph-name="gcircumflex" unicode="&#x11d;" horiz-adv-x="568" 
d="M412 445l7 59.002h69v-504c0 -67.333 -19 -119.5 -57 -156.5s-92.333 -55.5 -163 -55.5c-60.667 0 -112.667 13 -156 39v84c22 -18.667 45.5 -31.834 70.5 -39.501s53.5 -11.5 85.5 -11.5c44.667 0 79.667 12.167 105 36.5s38 58.833 38 103.5v81
c-37.333 -47.333 -86 -71 -146 -71c-50 0 -90.5 12.667 -121.5 38s-53.167 57.166 -66.5 95.499s-20 78.5 -20 120.5c0 72.667 17.833 133.167 53.5 181.5s88.5 72.5 158.5 72.5c58 0 105.667 -24.333 143 -73zM198.5 421.002
c-20.333 -18.667 -35.1641 -42.166 -44.4971 -70.499s-14 -57.166 -14 -86.499s4.66699 -58.333 14 -87s24.166 -52.334 44.499 -71.001s45.833 -28 76.5 -28c31.333 0 57.166 9.16699 77.499 27.5s35.166 41.666 44.499 69.999s14 57.833 14 88.5
c0 49.333 -11.333 92.5 -34 129.5s-56.667 55.5 -102 55.5c-30.667 0 -56.167 -9.33301 -76.5 -28zM295.002 657.003l-114 -77l-32 41l136 106h18l134 -107l-30 -40z" />
    <glyph glyph-name="Gbreve" unicode="&#x11e;" horiz-adv-x="595" 
d="M524 19c-20 -10.667 -43.167 -18.834 -69.5 -24.501s-52.166 -8.5 -77.499 -8.5c-69.333 0 -127.333 16.333 -174 49s-81.334 76.5 -104.001 131.5s-34 115.833 -34 182.5c0 67.333 11.5 128.666 34.5 183.999s57.833 99.333 104.5 132s104.334 49 173.001 49
c48 0 90.333 -9 127 -27v-86c-20.667 14 -40.334 23.667 -59.001 29s-41 8 -67 8c-48.667 0 -90 -14.167 -124 -42.5s-59.5 -64.666 -76.5 -108.999s-25.5 -90.166 -25.5 -137.499c0 -46.667 8.33301 -92 25 -136s42 -80.167 76 -108.5s75.333 -42.5 124 -42.5
c22.667 0 43.667 2.33301 63 7v267h84v-317zM266 877c5.33301 -20 15.8301 -35.667 31.4971 -47s32.834 -17 51.501 -17s35.834 5.66699 51.501 17s25.834 27 30.501 47l54 -14c-7.33301 -35.333 -24 -62.666 -50 -81.999s-55 -29 -87 -29s-60.5 9.66699 -85.5 29
s-41.167 46.666 -48.5 81.999z" />
    <glyph glyph-name="gbreve" unicode="&#x11f;" horiz-adv-x="568" 
d="M412 445l7 59.002h69v-504c0 -67.333 -19 -119.5 -57 -156.5s-92.333 -55.5 -163 -55.5c-60.667 0 -112.667 13 -156 39v84c22 -18.667 45.5 -31.834 70.5 -39.501s53.5 -11.5 85.5 -11.5c44.667 0 79.667 12.167 105 36.5s38 58.833 38 103.5v81
c-37.333 -47.333 -86 -71 -146 -71c-50 0 -90.5 12.667 -121.5 38s-53.167 57.166 -66.5 95.499s-20 78.5 -20 120.5c0 72.667 17.833 133.167 53.5 181.5s88.5 72.5 158.5 72.5c58 0 105.667 -24.333 143 -73zM198.5 421.002
c-20.333 -18.667 -35.1641 -42.166 -44.4971 -70.499s-14 -57.166 -14 -86.499s4.66699 -58.333 14 -87s24.166 -52.334 44.499 -71.001s45.833 -28 76.5 -28c31.333 0 57.166 9.16699 77.499 27.5s35.166 41.666 44.499 69.999s14 57.833 14 88.5
c0 49.333 -11.333 92.5 -34 129.5s-56.667 55.5 -102 55.5c-30.667 0 -56.167 -9.33301 -76.5 -28zM210.002 706.003c5.33301 -20 15.8301 -35.667 31.4971 -47s32.834 -17 51.501 -17s35.834 5.66699 51.501 17s25.834 27 30.501 47l54 -14
c-7.33301 -35.333 -24 -62.666 -50 -81.999s-55 -29 -87 -29s-60.5 9.66699 -85.5 29s-41.167 46.666 -48.5 81.999z" />
    <glyph glyph-name="Gdotaccent" unicode="&#x120;" horiz-adv-x="595" 
d="M524 19c-20 -10.667 -43.167 -18.834 -69.5 -24.501s-52.166 -8.5 -77.499 -8.5c-69.333 0 -127.333 16.333 -174 49s-81.334 76.5 -104.001 131.5s-34 115.833 -34 182.5c0 67.333 11.5 128.666 34.5 183.999s57.833 99.333 104.5 132s104.334 49 173.001 49
c48 0 90.333 -9 127 -27v-86c-20.667 14 -40.334 23.667 -59.001 29s-41 8 -67 8c-48.667 0 -90 -14.167 -124 -42.5s-59.5 -64.666 -76.5 -108.999s-25.5 -90.166 -25.5 -137.499c0 -46.667 8.33301 -92 25 -136s42 -80.167 76 -108.5s75.333 -42.5 124 -42.5
c22.667 0 43.667 2.33301 63 7v267h84v-317zM308 789.5c-8.66699 5.66699 -12.998 18.167 -12.998 37.5c0 17.333 4.83301 29.333 14.5 36s22.834 10 39.501 10c17.333 0 30.666 -3.33301 39.999 -10s14 -18.667 14 -36c0 -19.333 -4.33301 -31.833 -13 -37.5
s-22.334 -8.5 -41.001 -8.5s-32.334 2.83301 -41.001 8.5z" />
    <glyph glyph-name="gdotaccent" unicode="&#x121;" horiz-adv-x="568" 
d="M412 445l7 59.002h69v-504c0 -67.333 -19 -119.5 -57 -156.5s-92.333 -55.5 -163 -55.5c-60.667 0 -112.667 13 -156 39v84c22 -18.667 45.5 -31.834 70.5 -39.501s53.5 -11.5 85.5 -11.5c44.667 0 79.667 12.167 105 36.5s38 58.833 38 103.5v81
c-37.333 -47.333 -86 -71 -146 -71c-50 0 -90.5 12.667 -121.5 38s-53.167 57.166 -66.5 95.499s-20 78.5 -20 120.5c0 72.667 17.833 133.167 53.5 181.5s88.5 72.5 158.5 72.5c58 0 105.667 -24.333 143 -73zM198.5 421.002
c-20.333 -18.667 -35.1641 -42.166 -44.4971 -70.499s-14 -57.166 -14 -86.499s4.66699 -58.333 14 -87s24.166 -52.334 44.499 -71.001s45.833 -28 76.5 -28c31.333 0 57.166 9.16699 77.499 27.5s35.166 41.666 44.499 69.999s14 57.833 14 88.5
c0 49.333 -11.333 92.5 -34 129.5s-56.667 55.5 -102 55.5c-30.667 0 -56.167 -9.33301 -76.5 -28zM252.002 618.503c-8.66699 5.66699 -12.998 18.167 -12.998 37.5c0 17.333 4.83301 29.333 14.5 36s22.834 10 39.501 10c17.333 0 30.666 -3.33301 39.999 -10
s14 -18.667 14 -36c0 -19.333 -4.33301 -31.833 -13 -37.5s-22.334 -8.5 -41.001 -8.5s-32.334 2.83301 -41.001 8.5z" />
    <glyph glyph-name="Gcommaaccent" unicode="&#x122;" horiz-adv-x="595" 
d="M524 19c-20 -10.667 -43.167 -18.834 -69.5 -24.501s-52.166 -8.5 -77.499 -8.5c-69.333 0 -127.333 16.333 -174 49s-81.334 76.5 -104.001 131.5s-34 115.833 -34 182.5c0 67.333 11.5 128.666 34.5 183.999s57.833 99.333 104.5 132s104.334 49 173.001 49
c48 0 90.333 -9 127 -27v-86c-20.667 14 -40.334 23.667 -59.001 29s-41 8 -67 8c-48.667 0 -90 -14.167 -124 -42.5s-59.5 -64.666 -76.5 -108.999s-25.5 -90.166 -25.5 -137.499c0 -46.667 8.33301 -92 25 -136s42 -80.167 76 -108.5s75.333 -42.5 124 -42.5
c22.667 0 43.667 2.33301 63 7v267h84v-317zM397 -116c0 18.667 -2.66895 32.333 -8.00195 41s-16.666 13 -33.999 13s-29.166 -4.33301 -35.499 -13s-9.5 -21.334 -9.5 -38.001c0 -14.667 2.5 -26.667 7.5 -36s13.833 -14.666 26.5 -15.999c0 -12.667 -3 -25.5 -9 -38.5
s-13.667 -24.167 -23 -33.5l39 -13c30.667 33.333 46 78 46 134z" />
    <glyph glyph-name="gcommaaccent" unicode="&#x123;" horiz-adv-x="568" 
d="M232 615c0 -18.667 2.66895 -32.333 8.00195 -41s16.666 -13 33.999 -13s29.166 4.33301 35.499 13s9.5 21.334 9.5 38.001c0 14.667 -2.5 26.667 -7.5 36s-13.833 14.666 -26.5 15.999c0 12.667 3 25.5 9 38.5s13.667 24.167 23 33.5l-39 13
c-30.667 -33.333 -46 -78 -46 -134zM412.002 445.001l7 59.002h69v-504c0 -67.333 -19 -119.5 -57 -156.5s-92.333 -55.5 -163 -55.5c-60.667 0 -112.667 13 -156 39v84c22 -18.667 45.5 -31.834 70.5 -39.501s53.5 -11.5 85.5 -11.5c44.667 0 79.667 12.167 105 36.5
s38 58.833 38 103.5v81c-37.333 -47.333 -86 -71 -146 -71c-50 0 -90.5 12.667 -121.5 38s-53.167 57.166 -66.5 95.499s-20 78.5 -20 120.5c0 72.667 17.833 133.167 53.5 181.5s88.5 72.5 158.5 72.5c58 0 105.667 -24.333 143 -73zM198.502 421.003
c-20.333 -18.667 -35.1641 -42.166 -44.4971 -70.499s-14 -57.166 -14 -86.499s4.66699 -58.333 14 -87s24.166 -52.334 44.499 -71.001s45.833 -28 76.5 -28c31.333 0 57.166 9.16699 77.499 27.5s35.166 41.666 44.499 69.999s14 57.833 14 88.5
c0 49.333 -11.333 92.5 -34 129.5s-56.667 55.5 -102 55.5c-30.667 0 -56.167 -9.33301 -76.5 -28z" />
    <glyph glyph-name="Hcircumflex" unicode="&#x124;" horiz-adv-x="661" 
d="M96 700h84v-297h301v297h84v-700h-84v328h-301v-328h-84v700zM333 828l-114 -77l-32 41l136 106h18l134 -107l-30 -40z" />
    <glyph glyph-name="hcircumflex" unicode="&#x125;" horiz-adv-x="546" 
d="M392 0l77.002 0.00292969v344c0 55.333 -14.333 98.166 -43 128.499s-71.334 45.5 -128.001 45.5c-28.667 0 -55.334 -6.16699 -80.001 -18.5s-45 -29.5 -61 -51.5v252h-77v-700h77v289c0 45.333 11.167 83.5 33.5 114.5s54.833 46.5 97.5 46.5
c28 -0.666992 52.333 -9.83398 73 -27.501s31 -43.834 31 -78.501v-344zM121.002 828.003l-114 -77l-32 41l136 106h18l134 -107l-30 -40z" />
    <glyph glyph-name="Hbar" unicode="&#x126;" horiz-adv-x="659" 
d="M654 518h-90v-518h-84v328h-301v-328h-84v518h-90v62h90v120h84v-120h301v120h84v-120h90v-62zM480 518h-301v-115h301v115z" />
    <glyph glyph-name="hbar" unicode="&#x127;" horiz-adv-x="546" 
d="M426 472.5c28.667 -30.333 42.998 -73.1689 42.998 -128.502v-344h-77v344c0 34.667 -10.333 60.834 -31 78.501s-45 26.834 -73 27.501c-42.667 0 -75.167 -15.5 -97.5 -46.5s-33.5 -69.167 -33.5 -114.5v-289h-77v564h-77v58h77v78h77v-78h117v-58h-117v-116
c16 22 36.333 39.167 61 51.5s51.334 18.5 80.001 18.5c56.667 0 99.334 -15.167 128.001 -45.5z" />
    <glyph glyph-name="Itilde" unicode="&#x128;" horiz-adv-x="276" 
d="M96 700h84v-700h-84v700zM-1 811c10 24 21.501 41.5 34.501 52.5s27.833 16.5 44.5 16.5c19.333 0 43 -7 71 -21c20 -10.667 35.333 -16 46 -16c16 0 29 11 39 33l43 -23c-10.667 -23.333 -22.334 -40.5 -35.001 -51.5s-27 -16.5 -43 -16.5
c-16.667 0 -37.667 6.33301 -63 19c-12 6 -21.833 10.5 -29.5 13.5s-15.167 4.5 -22.5 4.5c-18 0 -32.333 -11.667 -43 -35z" />
    <glyph glyph-name="itilde" unicode="&#x129;" horiz-adv-x="248" 
d="M86 504h77v-504h-77v504zM-14 595c10 24 21.501 41.5 34.501 52.5s27.833 16.5 44.5 16.5c19.333 0 43 -7 71 -21c20 -10.667 35.333 -16 46 -16c16 0 29 11 39 33l43 -23c-10.667 -23.333 -22.334 -40.5 -35.001 -51.5s-27 -16.5 -43 -16.5
c-16.667 0 -37.667 6.33301 -63 19c-12 6 -21.833 10.5 -29.5 13.5s-15.167 4.5 -22.5 4.5c-18 0 -32.333 -11.667 -43 -35z" />
    <glyph glyph-name="Imacron" unicode="&#x12a;" horiz-adv-x="276" 
d="M27 852v-62h221v62h-221zM96 700h84v-700h-84v700z" />
    <glyph glyph-name="imacron" unicode="&#x12b;" horiz-adv-x="248" 
d="M4 620v-56h241v56h-241zM86 504h77v-504h-77v504z" />
    <glyph glyph-name="Ibreve" unicode="&#x12c;" horiz-adv-x="276" 
d="M96 700h84v-700h-84v700zM55 877c5.33301 -20 15.8301 -35.667 31.4971 -47s32.834 -17 51.501 -17s35.834 5.66699 51.501 17s25.834 27 30.501 47l54 -14c-7.33301 -35.333 -24 -62.666 -50 -81.999s-55 -29 -87 -29s-60.5 9.66699 -85.5 29
s-41.167 46.666 -48.5 81.999z" />
    <glyph glyph-name="ibreve" unicode="&#x12d;" horiz-adv-x="248" 
d="M86 504h77v-504h-77v504zM42 681c5.33301 -20 15.8301 -35.667 31.4971 -47s32.834 -17 51.501 -17s35.834 5.66699 51.501 17s25.834 27 30.501 47l54 -14c-7.33301 -35.333 -24 -62.666 -50 -81.999s-55 -29 -87 -29s-60.5 9.66699 -85.5 29
s-41.167 46.666 -48.5 81.999z" />
    <glyph glyph-name="Iogonek" unicode="&#x12e;" horiz-adv-x="276" 
d="M207 -186c-9.33301 -7.33301 -20.832 -13.333 -34.499 -18s-26.834 -7 -39.501 -7c-23.333 0 -40.833 7.33301 -52.5 22s-17.5 33.667 -17.5 57c0 39.333 15.333 83.333 46 132h-13v700h84v-700h-12c-13.333 -16.667 -24.5 -35.167 -33.5 -55.5
s-13.5 -38.833 -13.5 -55.5c0 -24.667 10.333 -37 31 -37c7.33301 0 15.333 1.5 24 4.5s16 6.83301 22 11.5z" />
    <glyph glyph-name="iogonek" unicode="&#x12f;" horiz-adv-x="248" 
d="M88 604c-6.66699 10 -10 23.332 -10 39.999c0 17.333 3.33301 30.833 10 40.5s18.667 14.834 36 15.501c18.667 0 31 -4.66699 37 -14s9 -23.333 9 -42c0 -18 -3 -31.667 -9 -41s-18.333 -14 -37 -14c-17.333 0 -29.333 5 -36 15zM193 -186.001
c-9.33301 -7.33301 -20.832 -13.333 -34.499 -18s-26.834 -7 -39.501 -7c-23.333 0 -40.833 7.33301 -52.5 22s-17.5 33.667 -17.5 57c0 39.333 15.333 83.333 46 132h-9v504h77v-504h-9c-13.333 -16.667 -24.5 -35.167 -33.5 -55.5s-13.5 -38.833 -13.5 -55.5
c0 -24.667 10.333 -37 31 -37c7.33301 0 15.333 1.5 24 4.5s16 6.83301 22 11.5z" />
    <glyph glyph-name="Idotaccent" unicode="&#x130;" horiz-adv-x="276" 
d="M96 700h84v-700h-84v700zM97 789.5c-8.66699 5.66699 -12.998 18.167 -12.998 37.5c0 17.333 4.83301 29.333 14.5 36s22.834 10 39.501 10c17.333 0 30.666 -3.33301 39.999 -10s14 -18.667 14 -36c0 -19.333 -4.33301 -31.833 -13 -37.5s-22.334 -8.5 -41.001 -8.5
s-32.334 2.83301 -41.001 8.5z" />
    <glyph glyph-name="dotlessi" unicode="&#x131;" horiz-adv-x="248" 
d="M86 504h77v-504h-77v504z" />
    <glyph glyph-name="IJ" unicode="&#x132;" horiz-adv-x="709" 
d="M96 700h84v-700h-84v700zM534 624v-425.001c0 -46 -11.167 -80.333 -33.5 -103s-56.833 -34 -103.5 -34c-52 0 -102 16 -150 48v-78c19.333 -14.667 42.833 -26 70.5 -34s54.5 -12 80.5 -12c66.667 0 120 18.833 160 56.5s60 89.834 60 156.501v501h-297v-76h213z" />
    <glyph glyph-name="ij" unicode="&#x133;" horiz-adv-x="486" 
d="M161 603c-6 -9.33301 -18.333 -14.001 -37 -14.001c-17.333 0 -29.333 5 -36 15s-10 23.333 -10 40c0 17.333 3.33301 30.833 10 40.5s18.667 14.834 36 15.501c18.667 0 31 -4.66699 37 -14s9 -23.333 9 -42c0 -18 -3 -31.667 -9 -41zM86 503.999h77v-504h-77v504z
M398 602.999c-6 -9.33301 -18.333 -14 -37 -14c-30.667 0 -46 18.333 -46 55c0 16.667 3.33301 30 10 40s18.667 15.333 36 16c18.667 0 31 -4.66699 37 -14s9 -23.333 9 -42c0 -18 -3 -31.667 -9 -41zM305.5 -120.501c-11.667 -11 -28.167 -16.5 -49.5 -16.5
c-22 0 -41.667 5.33301 -59 16v-74c24 -7.33301 48 -11 72 -11c42.667 0 75.167 11.667 97.5 35s33.5 56 33.5 98v577h-77v-577c0 -20.667 -5.83301 -36.5 -17.5 -47.5z" />
    <glyph glyph-name="Jcircumflex" unicode="&#x134;" horiz-adv-x="486" 
d="M311 624v-425.001c0 -46 -11.167 -80.333 -33.5 -103s-56.833 -34 -103.5 -34c-52 0 -102 16 -150 48v-78c19.333 -14.667 42.833 -26 70.5 -34s54.5 -12 80.5 -12c66.667 0 120 18.833 160 56.5s60 89.834 60 156.501v501h-297v-76h213zM271 827.999l-114 -77l-32 41
l136 106h18l134 -107l-30 -40z" />
    <glyph glyph-name="jcircumflex" unicode="&#x135;" horiz-adv-x="239" 
d="M195 540l-80 71l-80 -71l-35 34l106 116h18l106 -116zM58.5 -120.5c-11.667 -11 -28.167 -16.5 -49.5 -16.5c-22 0 -41.667 5.33301 -59 16v-74c24 -7.33301 48 -11 72 -11c42.667 0 75.167 11.667 97.5 35s33.5 56 33.5 98v577h-77v-577
c0 -20.667 -5.83301 -36.5 -17.5 -47.5z" />
    <glyph glyph-name="Kcommaaccent" unicode="&#x136;" horiz-adv-x="635" 
d="M96 700h84v-700h-84v700zM467 700l-251 -324v-19l291 -357h110l-304 373l256 327h-102zM375 -116c0 18.667 -2.66895 32.333 -8.00195 41s-16.666 13 -33.999 13s-29.166 -4.33301 -35.499 -13s-9.5 -21.334 -9.5 -38.001c0 -14.667 2.5 -26.667 7.5 -36
s13.833 -14.666 26.5 -15.999c0 -12.667 -3 -25.5 -9 -38.5s-13.667 -24.167 -23 -33.5l39 -13c30.667 33.333 46 78 46 134z" />
    <glyph glyph-name="kcommaaccent" unicode="&#x137;" horiz-adv-x="509" 
d="M80 0v700h77v-700h-77zM369 504h95l-204 -236l229 -268h-98l-214 252v27zM303 -116c0 18.667 -2.66895 32.333 -8.00195 41s-16.666 13 -33.999 13s-29.166 -4.33301 -35.499 -13s-9.5 -21.334 -9.5 -38.001c0 -14.667 2.5 -26.667 7.5 -36s13.833 -14.666 26.5 -15.999
c0 -12.667 -3 -25.5 -9 -38.5s-13.667 -24.167 -23 -33.5l39 -13c30.667 33.333 46 78 46 134z" />
    <glyph glyph-name="kgreenlandic" unicode="&#x138;" horiz-adv-x="509" 
d="M80 0v504h77v-504h-77zM369 504h95l-204 -236l229 -268h-98l-214 252v27z" />
    <glyph glyph-name="Lacute" unicode="&#x139;" horiz-adv-x="493" 
d="M96 700h84v-624h289v-76h-373v700zM265 851l-147 -103l-36 41l136 117z" />
    <glyph glyph-name="lacute" unicode="&#x13a;" horiz-adv-x="237" 
d="M80 700h77v-700h-77v700zM246 851l-147 -103l-36 41l136 117z" />
    <glyph glyph-name="Lcommaaccent" unicode="&#x13b;" horiz-adv-x="493" 
d="M96 700h84v-624h289v-76h-373v700zM327 -116c0 18.667 -2.66895 32.333 -8.00195 41s-16.666 13 -33.999 13s-29.166 -4.33301 -35.499 -13s-9.5 -21.334 -9.5 -38.001c0 -14.667 2.5 -26.667 7.5 -36s13.833 -14.666 26.5 -15.999c0 -12.667 -3 -25.5 -9 -38.5
s-13.667 -24.167 -23 -33.5l39 -13c30.667 33.333 46 78 46 134z" />
    <glyph glyph-name="lcommaaccent" unicode="&#x13c;" horiz-adv-x="237" 
d="M80 700h77v-700h-77v700zM163 -116c0 18.667 -2.66895 32.333 -8.00195 41s-16.666 13 -33.999 13s-29.166 -4.33301 -35.499 -13s-9.5 -21.334 -9.5 -38.001c0 -14.667 2.5 -26.667 7.5 -36s13.833 -14.666 26.5 -15.999c0 -12.667 -3 -25.5 -9 -38.5
s-13.667 -24.167 -23 -33.5l39 -13c30.667 33.333 46 78 46 134z" />
    <glyph glyph-name="Lcaron" unicode="&#x13d;" horiz-adv-x="493" 
d="M96 700h84v-624h289v-76h-373v700zM442 646c0 18.667 -2.66895 32.333 -8.00195 41s-16.666 13 -33.999 13s-29.166 -4.33301 -35.499 -13s-9.5 -21.334 -9.5 -38.001c0 -14.667 2.5 -26.667 7.5 -36s13.833 -14.666 26.5 -15.999c0 -12.667 -3 -25.5 -9 -38.5
s-13.667 -24.167 -23 -33.5l39 -13c30.667 33.333 46 78 46 134z" />
    <glyph glyph-name="lcaron" unicode="&#x13e;" horiz-adv-x="329" 
d="M80 700h77v-700h-77v700zM314 646c0 18.667 -2.66895 32.333 -8.00195 41s-16.666 13 -33.999 13s-29.166 -4.33301 -35.499 -13s-9.5 -21.334 -9.5 -38.001c0 -14.667 2.5 -26.667 7.5 -36s13.833 -14.666 26.5 -15.999c0 -12.667 -3 -25.5 -9 -38.5
s-13.667 -24.167 -23 -33.5l39 -13c30.667 33.333 46 78 46 134z" />
    <glyph glyph-name="Ldot" unicode="&#x13f;" horiz-adv-x="493" 
d="M96 700h84v-624h289v-76h-373v700zM382.5 336.5c-6.33301 -9.66699 -19.833 -14.5 -40.5 -14.5c-19.333 0.666992 -32.666 6.16699 -39.999 16.5s-11 24.5 -11 42.5s3.66699 32.167 11 42.5s20.666 15.5 39.999 15.5c20 0 33.333 -4.83301 40 -14.5s10 -24.167 10 -43.5
c0 -20 -3.16699 -34.833 -9.5 -44.5z" />
    <glyph glyph-name="ldot" unicode="&#x140;" horiz-adv-x="338" 
d="M80 700h77v-700h-77v700zM328.5 264.5c-6.33301 -9.66699 -19.833 -14.5 -40.5 -14.5c-19.333 0.666992 -32.666 6.16699 -39.999 16.5s-11 24.5 -11 42.5s3.66699 32.167 11 42.5s20.666 15.5 39.999 15.5c20 0 33.333 -4.83301 40 -14.5s10 -24.167 10 -43.5
c0 -20 -3.16699 -34.833 -9.5 -44.5z" />
    <glyph glyph-name="Lslash" unicode="&#x141;" horiz-adv-x="493" 
d="M469 76v-76h-373v226l-65 -37l-31 54l96 55v402h84v-353l117 67l31 -54l-148 -85v-199h289z" />
    <glyph glyph-name="lslash" unicode="&#x142;" horiz-adv-x="279" 
d="M178 307v-307h-77v263l-71 -41l-25 44l96 56v378h77v-334l70 41l26 -45z" />
    <glyph glyph-name="Nacute" unicode="&#x143;" horiz-adv-x="683" 
d="M115 712l388 -504v492h84v-713h-19l-388 500v-487h-84v712h19zM461 851l-147 -103l-36 41l136 117z" />
    <glyph glyph-name="nacute" unicode="&#x144;" 
d="M80 504l70.002 0.000976562l6 -53c17.333 20.667 38.166 37 62.499 49s50.5 18 78.5 18c55.333 0 97.666 -15.5 126.999 -46.5s44 -73.167 44 -126.5v-345h-77v345c0 31.333 -9.33301 56.666 -28 75.999s-44.334 29 -77.001 29c-39.333 0 -70.666 -14.5 -93.999 -43.5
s-35 -63.833 -35 -104.5v-302h-77v504zM405.002 678.001l-147 -103l-36 41l136 117z" />
    <glyph glyph-name="Ncommaaccent" unicode="&#x145;" horiz-adv-x="683" 
d="M115 712l388 -504v492h84v-713h-19l-388 500v-487h-84v712h19zM382 -116c0 18.667 -2.66895 32.333 -8.00195 41s-16.666 13 -33.999 13s-29.166 -4.33301 -35.499 -13s-9.5 -21.334 -9.5 -38.001c0 -14.667 2.5 -26.667 7.5 -36s13.833 -14.666 26.5 -15.999
c0 -12.667 -3 -25.5 -9 -38.5s-13.667 -24.167 -23 -33.5l39 -13c30.667 33.333 46 78 46 134z" />
    <glyph glyph-name="ncommaaccent" unicode="&#x146;" 
d="M80 504l70.002 0.000976562l6 -53c17.333 20.667 38.166 37 62.499 49s50.5 18 78.5 18c55.333 0 97.666 -15.5 126.999 -46.5s44 -73.167 44 -126.5v-345h-77v345c0 31.333 -9.33301 56.666 -28 75.999s-44.334 29 -77.001 29c-39.333 0 -70.666 -14.5 -93.999 -43.5
s-35 -63.833 -35 -104.5v-302h-77v504zM318.002 -115.999c0 18.667 -2.66895 32.333 -8.00195 41s-16.666 13 -33.999 13s-29.166 -4.33301 -35.499 -13s-9.5 -21.334 -9.5 -38.001c0 -14.667 2.5 -26.667 7.5 -36s13.833 -14.666 26.5 -15.999c0 -12.667 -3 -25.5 -9 -38.5
s-13.667 -24.167 -23 -33.5l39 -13c30.667 33.333 46 78 46 134z" />
    <glyph glyph-name="Ncaron" unicode="&#x147;" horiz-adv-x="683" 
d="M115 712l388 -504v492h84v-713h-19l-388 500v-487h-84v712h19zM478 858l-134 -107h-18l-136 106l32 41l114 -77l112 77z" />
    <glyph glyph-name="ncaron" unicode="&#x148;" 
d="M80 504l70.002 0.000976562l6 -53c17.333 20.667 38.166 37 62.499 49s50.5 18 78.5 18c55.333 0 97.666 -15.5 126.999 -46.5s44 -73.167 44 -126.5v-345h-77v345c0 31.333 -9.33301 56.666 -28 75.999s-44.334 29 -77.001 29c-39.333 0 -70.666 -14.5 -93.999 -43.5
s-35 -63.833 -35 -104.5v-302h-77v504zM422.002 685.001l-134 -107h-18l-136 106l32 41l114 -77l112 77z" />
    <glyph glyph-name="napostrophe" unicode="&#x149;" horiz-adv-x="601" 
d="M136 504l70.002 0.000976562l6 -53c17.333 20.667 38.166 37 62.499 49s50.5 18 78.5 18c55.333 0 97.666 -15.5 126.999 -46.5s44 -73.167 44 -126.5v-345h-77v345c0 31.333 -9.33301 56.666 -28 75.999s-44.334 29 -77.001 29c-39.333 0 -70.666 -14.5 -93.999 -43.5
s-35 -63.833 -35 -104.5v-302h-77v504zM93.002 541.001c0 18.667 -2.66895 32.333 -8.00195 41s-16.666 13 -33.999 13s-29.166 -4.33301 -35.499 -13s-9.5 -21.334 -9.5 -38.001c0 -14.667 2.5 -26.667 7.5 -36s13.833 -14.666 26.5 -15.999c0 -12.667 -3 -25.5 -9 -38.5
s-13.667 -24.167 -23 -33.5l39 -13c30.667 33.333 46 78 46 134z" />
    <glyph glyph-name="Eng" unicode="&#x14a;" horiz-adv-x="683" 
d="M587 700v-773c0 -42 -11.167 -74.667 -33.5 -98s-54.833 -35 -97.5 -35c-24 0 -48 3.66699 -72 11v74c17.333 -10.667 37 -16 59 -16c21.333 0 37.833 5.5 49.5 16.5s17.5 26.833 17.5 47.5v95l-330 462v-484h-84v712h19l388 -542v530h84z" />
    <glyph glyph-name="eng" unicode="&#x14b;" 
d="M424 471.5c29.333 -31 44.002 -73.166 44.002 -126.499v-418c0 -42 -11.167 -74.667 -33.5 -98s-54.833 -35 -97.5 -35c-24 0 -48 3.66699 -72 11v74c17.333 -10.667 37 -16 59 -16c21.333 0 37.833 5.5 49.5 16.5s17.5 26.833 17.5 47.5v418
c0 31.333 -9.33301 56.666 -28 75.999s-44.334 29 -77.001 29c-39.333 0 -70.666 -14.5 -93.999 -43.5s-35 -63.833 -35 -104.5v-302h-77v504h70l6 -53c17.333 20.667 38.166 37 62.499 49s50.5 18 78.5 18c55.333 0 97.666 -15.5 126.999 -46.5z" />
    <glyph glyph-name="Omacron" unicode="&#x14c;" horiz-adv-x="703" 
d="M569.5 611c45.667 -68.667 68.5 -155.667 68.5 -261s-22.667 -192.333 -68 -261s-118 -103 -218 -103s-172.833 34.5 -218.5 103.5s-68.5 155.833 -68.5 260.5c0 105.333 23 192.333 69 261s118.667 103 218 103s171.833 -34.333 217.5 -103zM235.5 594.5
c-29.667 -29 -51 -65.501 -64 -109.501s-19.5 -89 -19.5 -135c0 -46.667 6.5 -91.834 19.5 -135.501s34.5 -80 64.5 -109s68.667 -43.5 116 -43.5s85.833 14.5 115.5 43.5s51 65.333 64 109s19.5 88.834 19.5 135.501s-6.5 91.834 -19.5 135.501s-34.333 80 -64 109
s-68.167 43.5 -115.5 43.5c-48 0 -86.833 -14.5 -116.5 -43.5zM211 885.999v-62h281v62h-281z" />
    <glyph glyph-name="omacron" unicode="&#x14d;" horiz-adv-x="562" 
d="M411.5 478c33.667 -26.667 57.667 -60.167 72 -100.5s21.5 -82.166 21.5 -125.499s-7.16699 -85.166 -21.5 -125.499s-38.333 -73.833 -72 -100.5s-77.167 -40 -130.5 -40s-96.833 13.333 -130.5 40s-57.667 60.167 -72 100.5s-21.5 82.166 -21.5 125.499
s7.16699 85.166 21.5 125.499s38.333 73.833 72 100.5s77.167 40 130.5 40s96.833 -13.333 130.5 -40zM172.5 388c-21.667 -40 -32.498 -85.333 -32.498 -136s11 -96 33 -136s58 -60 108 -60s86 20 108 60s33 85.333 33 136s-10.833 96 -32.5 136s-57.834 60 -108.501 60
s-86.834 -20 -108.501 -60zM140.002 676v-62h281v62h-281z" />
    <glyph glyph-name="Obreve" unicode="&#x14e;" horiz-adv-x="703" 
d="M569.5 611c45.667 -68.667 68.5 -155.667 68.5 -261s-22.667 -192.333 -68 -261s-118 -103 -218 -103s-172.833 34.5 -218.5 103.5s-68.5 155.833 -68.5 260.5c0 105.333 23 192.333 69 261s118.667 103 218 103s171.833 -34.333 217.5 -103zM235.5 594.5
c-29.667 -29 -51 -65.501 -64 -109.501s-19.5 -89 -19.5 -135c0 -46.667 6.5 -91.834 19.5 -135.501s34.5 -80 64.5 -109s68.667 -43.5 116 -43.5s85.833 14.5 115.5 43.5s51 65.333 64 109s19.5 88.834 19.5 135.501s-6.5 91.834 -19.5 135.501s-34.333 80 -64 109
s-68.167 43.5 -115.5 43.5c-48 0 -86.833 -14.5 -116.5 -43.5zM269 890.999c5.33301 -20 15.8301 -35.667 31.4971 -47s32.834 -17 51.501 -17s35.834 5.66699 51.501 17s25.834 27 30.501 47l54 -14c-7.33301 -35.333 -24 -62.666 -50 -81.999s-55 -29 -87 -29
s-60.5 9.66699 -85.5 29s-41.167 46.666 -48.5 81.999z" />
    <glyph glyph-name="obreve" unicode="&#x14f;" horiz-adv-x="542" 
d="M324 692c16 5.33301 29.167 11.333 39.5 18s15.5 10.334 15.5 11.001c16.667 -4.66699 27.667 -16.667 33 -36c0 -1.33301 -6.16699 -7.16602 -18.5 -17.499s-29 -19.833 -50 -28.5s-45.5 -13 -73.5 -13s-52.5 4.33301 -73.5 13s-37.667 18.167 -50 28.5
s-18.5 16.166 -18.5 17.499c6 18 17 30 33 36c0 -0.666992 5.16699 -4.33398 15.5 -11.001s23.5 -12.667 39.5 -18s34 -8 54 -8s38 2.66699 54 8zM111.5 471.5c36.333 43 89.5 64.5 159.5 64.5s123.167 -21.5 159.5 -64.5s54.5 -112.5 54.5 -208.5
s-18.167 -165.5 -54.5 -208.5s-89.5 -64.5 -159.5 -64.5s-123.167 21.5 -159.5 64.5s-54.5 112.5 -54.5 208.5s18.167 165.5 54.5 208.5zM375.5 430.5c-23.667 32.333 -58.5 48.5 -104.5 48.5s-80.833 -16.167 -104.5 -48.5s-35.5 -88.166 -35.5 -167.499
s11.833 -135.166 35.5 -167.499s58.5 -48.5 104.5 -48.5s80.833 16.167 104.5 48.5s35.5 88.166 35.5 167.499s-11.833 135.166 -35.5 167.499z" />
    <glyph glyph-name="Ohungarumlaut" unicode="&#x150;" horiz-adv-x="703" 
d="M569.5 611c45.667 -68.667 68.5 -155.667 68.5 -261s-22.667 -192.333 -68 -261s-118 -103 -218 -103s-172.833 34.5 -218.5 103.5s-68.5 155.833 -68.5 260.5c0 105.333 23 192.333 69 261s118.667 103 218 103s171.833 -34.333 217.5 -103zM235.5 594.5
c-29.667 -29 -51 -65.501 -64 -109.501s-19.5 -89 -19.5 -135c0 -46.667 6.5 -91.834 19.5 -135.501s34.5 -80 64.5 -109s68.667 -43.5 116 -43.5s85.833 14.5 115.5 43.5s51 65.333 64 109s19.5 88.834 19.5 135.501s-6.5 91.834 -19.5 135.501s-34.333 80 -64 109
s-68.167 43.5 -115.5 43.5c-48 0 -86.833 -14.5 -116.5 -43.5zM382 889.999l-88 -126l-48 27l73 135zM522 889.999l-88 -126l-48 27l73 135z" />
    <glyph glyph-name="ohungarumlaut" unicode="&#x151;" horiz-adv-x="562" 
d="M411.5 478c33.667 -26.667 57.667 -60.167 72 -100.5s21.5 -82.166 21.5 -125.499s-7.16699 -85.166 -21.5 -125.499s-38.333 -73.833 -72 -100.5s-77.167 -40 -130.5 -40s-96.833 13.333 -130.5 40s-57.667 60.167 -72 100.5s-21.5 82.166 -21.5 125.499
s7.16699 85.166 21.5 125.499s38.333 73.833 72 100.5s77.167 40 130.5 40s96.833 -13.333 130.5 -40zM172.5 388c-21.667 -40 -32.498 -85.333 -32.498 -136s11 -96 33 -136s58 -60 108 -60s86 20 108 60s33 85.333 33 136s-10.833 96 -32.5 136s-57.834 60 -108.501 60
s-86.834 -20 -108.501 -60zM311.002 680l-88 -126l-48 27l73 135zM451.002 680l-88 -126l-48 27l73 135z" />
    <glyph glyph-name="OE" unicode="&#x152;" horiz-adv-x="883" 
d="M837 76v-76h-360v24c-16.667 -11.333 -35.834 -20.5 -57.501 -27.5s-43.167 -10.5 -64.5 -10.5c-100.667 0 -174.167 34 -220.5 102s-69.5 155.333 -69.5 262s23.167 194 69.5 262s119.833 102 220.5 102c21.333 0 42.833 -3.5 64.5 -10.5s40.834 -16.167 57.501 -27.5
v24h350v-76h-266v-218h244v-76h-244v-254h276zM419.5 74c21.667 8 40.834 18.665 57.501 31.998v488c-16.667 13.333 -35.834 24 -57.501 32s-43.167 12 -64.5 12c-48.667 0 -88.167 -14.167 -118.5 -42.5s-52 -64.166 -65 -107.499s-19.5 -89.333 -19.5 -138
s6.5 -94.667 19.5 -138s34.667 -79.166 65 -107.499s69.833 -42.5 118.5 -42.5c21.333 0 42.833 4 64.5 12z" />
    <glyph glyph-name="oe" unicode="&#x153;" horiz-adv-x="833" 
d="M775 237l-303.003 0.00390625c2 -54.667 13 -98.5 33 -131.5s54.333 -49.5 103 -49.5s98.334 19.667 149.001 59l-1 -81c-43.333 -32 -92.666 -48 -147.999 -48c-40 0 -74.667 9.16699 -104 27.5s-53.333 47.166 -72 86.499c-30 -76 -85.333 -114 -166 -114
c-50.667 0 -91.5 13.333 -122.5 40s-53.167 60.167 -66.5 100.5s-20 82.166 -20 125.499s6.66699 85.166 20 125.499s35.5 73.833 66.5 100.5s71.833 40 122.5 40c82 0 137.667 -39 167 -117c34.667 78 89.334 117 164.001 117c62 0 108 -20.833 138 -62.5
s45 -93.834 45 -156.501c0 -19.333 -1.66699 -40 -5 -62zM363.497 115.504c19 39.667 28.5 85.167 28.5 136.5s-9.5 96.833 -28.5 136.5s-51.5 59.5 -97.5 59.5s-78.5 -19.833 -97.5 -59.5s-28.5 -85.167 -28.5 -136.5s9.5 -96.833 28.5 -136.5s51.5 -59.5 97.5 -59.5
s78.5 19.833 97.5 59.5zM702.997 308.004c-0.666992 41.333 -8.99902 74.833 -24.999 100.5s-42.667 38.5 -80 38.5c-36.667 0 -64.334 -12.5 -83.001 -37.5s-31.667 -58.833 -39 -101.5h227z" />
    <glyph glyph-name="Racute" unicode="&#x154;" horiz-adv-x="612" 
d="M225 338l-0.000976562 24.001h65c46.667 0 83.5 11.167 110.5 33.5s40.5 56.166 40.5 101.499c0 44 -13.667 76 -41 96s-64 30 -110 30h-110v-623h-84v700h194c71.333 0 129.333 -16.5 174 -49.5s67 -84.167 67 -153.5c0 -57.333 -15.667 -103 -47 -137
s-73.666 -56 -126.999 -66l214 -294h-104zM416.999 851.001l-147 -103l-36 41l136 117z" />
    <glyph glyph-name="racute" unicode="&#x155;" horiz-adv-x="367" 
d="M80 504h71.999l5 -53c16.667 21.333 37.667 37.833 63 49.5s52.666 17.5 81.999 17.5c17.333 0 33 -1.33301 47 -4v-75c-13.333 7.33301 -32.666 11 -57.999 11c-26 0 -49.167 -7 -69.5 -21s-36.166 -33 -47.499 -57s-17 -50 -17 -78v-294h-77v504zM341.999 682
l-147 -103l-36 41l136 117z" />
    <glyph glyph-name="Rcommaaccent" unicode="&#x156;" horiz-adv-x="612" 
d="M225 338l-0.000976562 24.001h65c46.667 0 83.5 11.167 110.5 33.5s40.5 56.166 40.5 101.499c0 44 -13.667 76 -41 96s-64 30 -110 30h-110v-623h-84v700h194c71.333 0 129.333 -16.5 174 -49.5s67 -84.167 67 -153.5c0 -57.333 -15.667 -103 -47 -137
s-73.666 -56 -126.999 -66l214 -294h-104zM345.999 -115.999c0 18.667 -2.66895 32.333 -8.00195 41s-16.666 13 -33.999 13s-29.166 -4.33301 -35.499 -13s-9.5 -21.334 -9.5 -38.001c0 -14.667 2.5 -26.667 7.5 -36s13.833 -14.666 26.5 -15.999
c0 -12.667 -3 -25.5 -9 -38.5s-13.667 -24.167 -23 -33.5l39 -13c30.667 33.333 46 78 46 134z" />
    <glyph glyph-name="rcommaaccent" unicode="&#x157;" horiz-adv-x="367" 
d="M80 504h71.999l5 -53c16.667 21.333 37.667 37.833 63 49.5s52.666 17.5 81.999 17.5c17.333 0 33 -1.33301 47 -4v-75c-13.333 7.33301 -32.666 11 -57.999 11c-26 0 -49.167 -7 -69.5 -21s-36.166 -33 -47.499 -57s-17 -50 -17 -78v-294h-77v504zM162.999 -116
c0 18.667 -2.66895 32.333 -8.00195 41s-16.666 13 -33.999 13s-29.166 -4.33301 -35.499 -13s-9.5 -21.334 -9.5 -38.001c0 -14.667 2.5 -26.667 7.5 -36s13.833 -14.666 26.5 -15.999c0 -12.667 -3 -25.5 -9 -38.5s-13.667 -24.167 -23 -33.5l39 -13
c30.667 33.333 46 78 46 134z" />
    <glyph glyph-name="Rcaron" unicode="&#x158;" horiz-adv-x="612" 
d="M225 338l-0.000976562 24.001h65c46.667 0 83.5 11.167 110.5 33.5s40.5 56.166 40.5 101.499c0 44 -13.667 76 -41 96s-64 30 -110 30h-110v-623h-84v700h194c71.333 0 129.333 -16.5 174 -49.5s67 -84.167 67 -153.5c0 -57.333 -15.667 -103 -47 -137
s-73.666 -56 -126.999 -66l214 -294h-104zM433.999 858.001l-134 -107h-18l-136 106l32 41l114 -77l112 77z" />
    <glyph glyph-name="rcaron" unicode="&#x159;" horiz-adv-x="367" 
d="M217 642l-94 -77l-32 41l116 106h18l114 -107l-30 -40zM80 504h71.999l5 -53c16.667 21.333 37.667 37.833 63 49.5s52.666 17.5 81.999 17.5c17.333 0 33 -1.33301 47 -4v-75c-13.333 7.33301 -32.666 11 -57.999 11c-26 0 -49.167 -7 -69.5 -21
s-36.166 -33 -47.499 -57s-17 -50 -17 -78v-294h-77v504z" />
    <glyph glyph-name="Sacute" unicode="&#x15a;" horiz-adv-x="543" 
d="M177 470.5c12.667 -16.333 28 -29.332 46 -38.999s44.667 -21.834 80 -36.501c57.333 -24 103.333 -52.667 138 -86s52 -74.333 52 -123c0 -39.333 -10.333 -74.166 -31 -104.499s-48.334 -53.833 -83.001 -70.5s-72.334 -25 -113.001 -25
c-44 0 -82.5 3.83301 -115.5 11.5s-63.167 19.5 -90.5 35.5v91c54 -39.333 113 -59 177 -59c46.667 0 85.5 10.333 116.5 31s46.5 50.667 46.5 90c0 25.333 -6.66699 46.5 -20 63.5s-29.333 30.5 -48 40.5s-45.667 22.333 -81 37
c-59.333 24.667 -104.666 52.667 -135.999 84s-47 71.666 -47 120.999c0 58 19.333 102.833 58 134.5s88.334 47.5 149.001 47.5c29.333 0 58.333 -3.83301 87 -11.5s55 -18.5 79 -32.5l1 -84c-48 32 -102 48.667 -162 50c-34.667 0 -63.667 -9.5 -87 -28.5
s-35 -44.167 -35 -75.5c0 -24.667 6.33301 -45.167 19 -61.5zM392 865.001l-147 -103l-36 41l136 117z" />
    <glyph glyph-name="sacute" unicode="&#x15b;" horiz-adv-x="446" 
d="M202 57c34.667 0 62.165 6.66895 82.498 20.002s30.5 34 30.5 62c0 26 -8.16699 44.667 -24.5 56s-41.166 21.666 -74.499 30.999c-50 14.667 -88.667 33 -116 55s-41 54.667 -41 98c0 45.333 14.667 79.833 44 103.5s68.333 35.5 117 35.5c22 0 44.333 -2.33301 67 -7
s43.334 -11.334 62.001 -20.001l4 -81c-37.333 24 -77.333 36 -120 36c-30.667 0 -53.667 -6.16699 -69 -18.5s-23 -28.833 -23 -49.5c0 -25.333 9.5 -44.166 28.5 -56.499s45.167 -22.833 78.5 -31.5c41.333 -10.667 76.833 -26.834 106.5 -48.501s44.5 -55.5 44.5 -101.5
c0 -48 -18 -85.667 -54 -113s-82.667 -41 -140 -41c-46 0 -94.333 10 -145 30l-6 87c46 -30.667 95.333 -46 148 -46zM345.998 655.002l-147 -103l-36 41l136 117z" />
    <glyph glyph-name="Scircumflex" unicode="&#x15c;" horiz-adv-x="543" 
d="M177 470.5c12.667 -16.333 28 -29.332 46 -38.999s44.667 -21.834 80 -36.501c57.333 -24 103.333 -52.667 138 -86s52 -74.333 52 -123c0 -39.333 -10.333 -74.166 -31 -104.499s-48.334 -53.833 -83.001 -70.5s-72.334 -25 -113.001 -25
c-44 0 -82.5 3.83301 -115.5 11.5s-63.167 19.5 -90.5 35.5v91c54 -39.333 113 -59 177 -59c46.667 0 85.5 10.333 116.5 31s46.5 50.667 46.5 90c0 25.333 -6.66699 46.5 -20 63.5s-29.333 30.5 -48 40.5s-45.667 22.333 -81 37
c-59.333 24.667 -104.666 52.667 -135.999 84s-47 71.666 -47 120.999c0 58 19.333 102.833 58 134.5s88.334 47.5 149.001 47.5c29.333 0 58.333 -3.83301 87 -11.5s55 -18.5 79 -32.5l1 -84c-48 32 -102 48.667 -162 50c-34.667 0 -63.667 -9.5 -87 -28.5
s-35 -44.167 -35 -75.5c0 -24.667 6.33301 -45.167 19 -61.5zM267 842.001l-114 -77l-32 41l136 106h18l134 -107l-30 -40z" />
    <glyph glyph-name="scircumflex" unicode="&#x15d;" horiz-adv-x="446" 
d="M202 57c34.667 0 62.165 6.66895 82.498 20.002s30.5 34 30.5 62c0 26 -8.16699 44.667 -24.5 56s-41.166 21.666 -74.499 30.999c-50 14.667 -88.667 33 -116 55s-41 54.667 -41 98c0 45.333 14.667 79.833 44 103.5s68.333 35.5 117 35.5c22 0 44.333 -2.33301 67 -7
s43.334 -11.334 62.001 -20.001l4 -81c-37.333 24 -77.333 36 -120 36c-30.667 0 -53.667 -6.16699 -69 -18.5s-23 -28.833 -23 -49.5c0 -25.333 9.5 -44.166 28.5 -56.499s45.167 -22.833 78.5 -31.5c41.333 -10.667 76.833 -26.834 106.5 -48.501s44.5 -55.5 44.5 -101.5
c0 -48 -18 -85.667 -54 -113s-82.667 -41 -140 -41c-46 0 -94.333 10 -145 30l-6 87c46 -30.667 95.333 -46 148 -46zM220.998 632.002l-114 -77l-32 41l136 106h18l134 -107l-30 -40z" />
    <glyph glyph-name="Scedilla" unicode="&#x15e;" horiz-adv-x="543" 
d="M465 87c-18.667 -29.333 -43.6689 -52.6689 -75.002 -70.002s-66 -27.333 -104 -30l-14 -34c24.667 -3.33301 43.167 -12.166 55.5 -26.499s18.5 -31.166 18.5 -50.499c0 -22.667 -8 -42.5 -24 -59.5s-37.667 -25.5 -65 -25.5c-30.667 0 -58.667 10 -84 30l20 45
c5.33301 -6 13.333 -11.167 24 -15.5s21 -6.5 31 -6.5c9.33301 0.666992 17 3.16699 23 7.5s10 9.83301 12 16.5c1.33301 6.66699 2 11 2 13c0 14 -7.5 23.833 -22.5 29.5s-31.167 8.83398 -48.5 9.50098l26 66c-37.333 1.33301 -70.5 5.83301 -99.5 13.5
s-55.833 18.834 -80.5 33.501v91c54 -39.333 113 -59 177 -59c46.667 0 85.5 10.333 116.5 31s46.5 50.667 46.5 90c0 25.333 -6.66699 46.5 -20 63.5s-29.333 30.5 -48 40.5s-45.667 22.333 -81 37c-59.333 24.667 -104.666 52.667 -135.999 84s-47 71.666 -47 120.999
c0 58 19.333 102.833 58 134.5s88.334 47.5 149.001 47.5c29.333 0 58.333 -3.83301 87 -11.5s55 -18.5 79 -32.5l1 -84c-48 32 -102 48.667 -162 50c-34.667 0 -63.667 -9.5 -87 -28.5s-35 -44.167 -35 -75.5c0 -24.667 6.33301 -45.167 19 -61.5s28 -29.333 46 -39
s44.667 -21.834 80 -36.501c57.333 -24 103.333 -52.667 138 -86s52 -74.333 52 -123c0 -36.667 -9.33301 -69.667 -28 -99z" />
    <glyph glyph-name="scedilla" unicode="&#x15f;" horiz-adv-x="446" 
d="M352 32.5c-31.333 -27 -72.668 -42.1689 -124.001 -45.502l-14 -34c24.667 -3.33301 43.167 -12.166 55.5 -26.499s18.5 -31.166 18.5 -50.499c0 -22.667 -8 -42.5 -24 -59.5s-37.667 -25.5 -65 -25.5c-30.667 0 -58.667 10 -84 30l20 45
c5.33301 -6 13.333 -11.167 24 -15.5s21 -6.5 31 -6.5c9.33301 0.666992 17 3.16699 23 7.5s10 9.83301 12 16.5c1.33301 6.66699 2 11 2 13c0 14 -7.5 23.833 -22.5 29.5s-31.167 8.83398 -48.5 9.50098l26 67c-40.667 2.66699 -81.334 12.334 -122.001 29.001l-6 87
c46 -30.667 95.333 -46 148 -46c34.667 0 62.167 6.66699 82.5 20s30.5 34 30.5 62c0 26 -8.16699 44.667 -24.5 56s-41.166 21.666 -74.499 30.999c-50 14.667 -88.667 33 -116 55s-41 54.667 -41 98c0 45.333 14.667 79.833 44 103.5s68.333 35.5 117 35.5
c22 0 44.333 -2.33301 67 -7s43.334 -11.334 62.001 -20.001l4 -81c-37.333 24 -77.333 36 -120 36c-30.667 0 -53.667 -6.16699 -69 -18.5s-23 -28.833 -23 -49.5c0 -25.333 9.5 -44.166 28.5 -56.499s45.167 -22.833 78.5 -31.5
c41.333 -10.667 76.833 -26.834 106.5 -48.501s44.5 -55.5 44.5 -101.5c0 -44.667 -15.667 -80.5 -47 -107.5z" />
    <glyph glyph-name="Scaron" unicode="&#x160;" horiz-adv-x="543" 
d="M177 470.5c12.667 -16.333 28 -29.332 46 -38.999s44.667 -21.834 80 -36.501c57.333 -24 103.333 -52.667 138 -86s52 -74.333 52 -123c0 -39.333 -10.333 -74.166 -31 -104.499s-48.334 -53.833 -83.001 -70.5s-72.334 -25 -113.001 -25
c-44 0 -82.5 3.83301 -115.5 11.5s-63.167 19.5 -90.5 35.5v91c54 -39.333 113 -59 177 -59c46.667 0 85.5 10.333 116.5 31s46.5 50.667 46.5 90c0 25.333 -6.66699 46.5 -20 63.5s-29.333 30.5 -48 40.5s-45.667 22.333 -81 37
c-59.333 24.667 -104.666 52.667 -135.999 84s-47 71.666 -47 120.999c0 58 19.333 102.833 58 134.5s88.334 47.5 149.001 47.5c29.333 0 58.333 -3.83301 87 -11.5s55 -18.5 79 -32.5l1 -84c-48 32 -102 48.667 -162 50c-34.667 0 -63.667 -9.5 -87 -28.5
s-35 -44.167 -35 -75.5c0 -24.667 6.33301 -45.167 19 -61.5zM409 872.001l-134 -107h-18l-136 106l32 41l114 -77l112 77z" />
    <glyph glyph-name="scaron" unicode="&#x161;" horiz-adv-x="446" 
d="M202 57c34.667 0 62.165 6.66895 82.498 20.002s30.5 34 30.5 62c0 26 -8.16699 44.667 -24.5 56s-41.166 21.666 -74.499 30.999c-50 14.667 -88.667 33 -116 55s-41 54.667 -41 98c0 45.333 14.667 79.833 44 103.5s68.333 35.5 117 35.5c22 0 44.333 -2.33301 67 -7
s43.334 -11.334 62.001 -20.001l4 -81c-37.333 24 -77.333 36 -120 36c-30.667 0 -53.667 -6.16699 -69 -18.5s-23 -28.833 -23 -49.5c0 -25.333 9.5 -44.166 28.5 -56.499s45.167 -22.833 78.5 -31.5c41.333 -10.667 76.833 -26.834 106.5 -48.501s44.5 -55.5 44.5 -101.5
c0 -48 -18 -85.667 -54 -113s-82.667 -41 -140 -41c-46 0 -94.333 10 -145 30l-6 87c46 -30.667 95.333 -46 148 -46zM362.998 662.002l-134 -107h-18l-136 106l32 41l114 -77l112 77z" />
    <glyph glyph-name="uni0162" unicode="&#x162;" horiz-adv-x="520" 
d="M218 625h-189v75h462v-75h-189v-625h-84v625zM304 -116c0 18.667 -2.66895 32.333 -8.00195 41s-16.666 13 -33.999 13s-29.166 -4.33301 -35.499 -13s-9.5 -21.334 -9.5 -38.001c0 -14.667 2.5 -26.667 7.5 -36s13.833 -14.666 26.5 -15.999
c0 -12.667 -3 -25.5 -9 -38.5s-13.667 -24.167 -23 -33.5l39 -13c30.667 33.333 46 78 46 134z" />
    <glyph glyph-name="uni0163" unicode="&#x163;" horiz-adv-x="334" 
d="M28 504h77.999v104l77 17v-121h112v-70h-112v-311c0 -45.333 21.333 -68.333 64 -69c20.667 0 41.334 5.66699 62.001 17l1 -74c-16 -4.66699 -29.333 -7.66699 -40 -9s-23 -2 -37 -2c-40.667 0 -72 12.333 -94 37s-33 57.667 -33 99v312h-78v70zM245.999 -116
c0 18.667 -2.66895 32.333 -8.00195 41s-16.666 13 -33.999 13s-29.166 -4.33301 -35.499 -13s-9.5 -21.334 -9.5 -38.001c0 -14.667 2.5 -26.667 7.5 -36s13.833 -14.666 26.5 -15.999c0 -12.667 -3 -25.5 -9 -38.5s-13.667 -24.167 -23 -33.5l39 -13
c30.667 33.333 46 78 46 134z" />
    <glyph glyph-name="Tcaron" unicode="&#x164;" horiz-adv-x="520" 
d="M218 625h-189v75h462v-75h-189v-625h-84v625zM404 858l-134 -107h-18l-136 106l32 41l114 -77l112 77z" />
    <glyph glyph-name="tcaron" unicode="&#x165;" horiz-adv-x="334" 
d="M318 664c0 17.333 -2.49902 30 -7.49902 38s-15.5 12 -31.5 12s-26.833 -4 -32.5 -12s-8.5 -19.667 -8.5 -35c0 -14 2.16699 -25.333 6.5 -34s12.5 -13.334 24.5 -14.001c0 -11.333 -2.83301 -23.166 -8.5 -35.499s-12.834 -22.833 -21.501 -31.5l36 -12
c28.667 30.667 43 72 43 124zM28.001 504h77.999v104l77 17v-121h112v-70h-112v-311c0 -45.333 21.333 -68.333 64 -69c20.667 0 41.334 5.66699 62.001 17l1 -74c-16 -4.66699 -29.333 -7.66699 -40 -9s-23 -2 -37 -2c-40.667 0 -72 12.333 -94 37s-33 57.667 -33 99v312
h-78v70z" />
    <glyph glyph-name="Tbar" unicode="&#x166;" horiz-adv-x="520" 
d="M302 625v-214h110v-62h-110v-349h-84v349h-110v62h110v214h-189v75h462v-75h-189z" />
    <glyph glyph-name="tbar" unicode="&#x167;" horiz-adv-x="334" 
d="M310 -3c-16 -4.66699 -29.334 -7.66699 -40.001 -9s-23 -2 -37 -2c-40.667 0 -72 12.333 -94 37s-33 57.667 -33 99v120h-63v58h63v134h-78v70h78v104l77 17v-121h112v-70h-112v-134h96v-58h-96v-119c0 -45.333 21.333 -68.333 64 -69c20.667 0 41.334 5.66699 62.001 17
z" />
    <glyph glyph-name="Utilde" unicode="&#x168;" horiz-adv-x="673" 
d="M583 700l-84.001 -0.00195312v-432c0 -58 -13.167 -106.833 -39.5 -146.5s-67.166 -59.5 -122.499 -59.5c-56 0 -97.167 19.833 -123.5 59.5s-39.5 88.5 -39.5 146.5v432h-84v-432c0 -85.333 20 -153.666 60 -204.999s102.333 -77 187 -77
c54.667 0 100.5 12.5 137.5 37.5s64.333 58.833 82 101.5s26.5 90.334 26.5 143.001v432zM197.999 810.998c10 24 21.501 41.5 34.501 52.5s27.833 16.5 44.5 16.5c19.333 0 43 -7 71 -21c20 -10.667 35.333 -16 46 -16c16 0 29 11 39 33l43 -23
c-10.667 -23.333 -22.334 -40.5 -35.001 -51.5s-27 -16.5 -43 -16.5c-16.667 0 -37.667 6.33301 -63 19c-12 6 -21.833 10.5 -29.5 13.5s-15.167 4.5 -22.5 4.5c-18 0 -32.333 -11.667 -43 -35z" />
    <glyph glyph-name="utilde" unicode="&#x169;" 
d="M465 0h-71.001l-6 53c-16.667 -20.667 -37.167 -37 -61.5 -49s-50.5 -18 -78.5 -18c-55.333 0 -97.666 15.5 -126.999 46.5s-44 73.167 -44 126.5v345h77v-345c0 -31.333 9.16699 -56.5 27.5 -75.5s43.833 -28.5 76.5 -28.5c40 0 71.667 14.5 95 43.5s35 63.833 35 104.5
v301h77v-504zM131.999 615c10 24 21.501 41.5 34.501 52.5s27.833 16.5 44.5 16.5c19.333 0 43 -7 71 -21c20 -10.667 35.333 -16 46 -16c16 0 29 11 39 33l43 -23c-10.667 -23.333 -22.334 -40.5 -35.001 -51.5s-27 -16.5 -43 -16.5c-16.667 0 -37.667 6.33301 -63 19
c-12 6 -21.833 10.5 -29.5 13.5s-15.167 4.5 -22.5 4.5c-18 0 -32.333 -11.667 -43 -35z" />
    <glyph glyph-name="Umacron" unicode="&#x16a;" horiz-adv-x="673" 
d="M583 700l-84.001 -0.00195312v-432c0 -58 -13.167 -106.833 -39.5 -146.5s-67.166 -59.5 -122.499 -59.5c-56 0 -97.167 19.833 -123.5 59.5s-39.5 88.5 -39.5 146.5v432h-84v-432c0 -85.333 20 -153.666 60 -204.999s102.333 -77 187 -77
c54.667 0 100.5 12.5 137.5 37.5s64.333 58.833 82 101.5s26.5 90.334 26.5 143.001v432zM195.999 871.998v-62h281v62h-281z" />
    <glyph glyph-name="umacron" unicode="&#x16b;" 
d="M465 0h-71.001l-6 53c-16.667 -20.667 -37.167 -37 -61.5 -49s-50.5 -18 -78.5 -18c-55.333 0 -97.666 15.5 -126.999 46.5s-44 73.167 -44 126.5v345h77v-345c0 -31.333 9.16699 -56.5 27.5 -75.5s43.833 -28.5 76.5 -28.5c40 0 71.667 14.5 95 43.5s35 63.833 35 104.5
v301h77v-504zM129.999 676v-62h281v62h-281z" />
    <glyph glyph-name="Uring" unicode="&#x16e;" horiz-adv-x="673" 
d="M583 700l-84.001 -0.00195312v-432c0 -58 -13.167 -106.833 -39.5 -146.5s-67.166 -59.5 -122.499 -59.5c-56 0 -97.167 19.833 -123.5 59.5s-39.5 88.5 -39.5 146.5v432h-84v-432c0 -85.333 20 -153.666 60 -204.999s102.333 -77 187 -77
c54.667 0 100.5 12.5 137.5 37.5s64.333 58.833 82 101.5s26.5 90.334 26.5 143.001v432zM415.499 754.998c-21 -18 -46.833 -27 -77.5 -27s-57.167 8.5 -79.5 25.5s-33.5 41.167 -33.5 72.5s10.833 55.833 32.5 73.5s47.5 26.5 77.5 26.5s56.167 -8.83301 78.5 -26.5
s33.5 -42.167 33.5 -73.5c0 -29.333 -10.5 -53 -31.5 -71zM376.499 868.498c-11.667 9.66699 -25.501 14.499 -41.501 14.499c-15.333 0 -28.666 -5 -39.999 -15s-17 -24 -17 -42c0 -17.333 5.83301 -30.666 17.5 -39.999s25.167 -14 40.5 -14c16 0 29.667 4.66699 41 14
s17 22.666 17 39.999c0 18.667 -5.83301 32.834 -17.5 42.501z" />
    <glyph glyph-name="uring" unicode="&#x16f;" 
d="M465 0h-71.001l-6 53c-16.667 -20.667 -37.167 -37 -61.5 -49s-50.5 -18 -78.5 -18c-55.333 0 -97.666 15.5 -126.999 46.5s-44 73.167 -44 126.5v345h77v-345c0 -31.333 9.16699 -56.5 27.5 -75.5s43.833 -28.5 76.5 -28.5c40 0 71.667 14.5 95 43.5s35 63.833 35 104.5
v301h77v-504zM349.499 559c-21 -18 -46.833 -27 -77.5 -27s-57.167 8.5 -79.5 25.5s-33.5 41.167 -33.5 72.5s10.833 55.833 32.5 73.5s47.5 26.5 77.5 26.5s56.167 -8.83301 78.5 -26.5s33.5 -42.167 33.5 -73.5c0 -29.333 -10.5 -53 -31.5 -71zM310.499 672.5
c-11.667 9.66699 -25.501 14.499 -41.501 14.499c-15.333 0 -28.666 -5 -39.999 -15s-17 -24 -17 -42c0 -17.333 5.83301 -30.666 17.5 -39.999s25.167 -14 40.5 -14c16 0 29.667 4.66699 41 14s17 22.666 17 39.999c0 18.667 -5.83301 32.834 -17.5 42.501z" />
    <glyph glyph-name="Uhungarumlaut" unicode="&#x170;" horiz-adv-x="673" 
d="M583 700l-84.001 -0.00195312v-432c0 -58 -13.167 -106.833 -39.5 -146.5s-67.166 -59.5 -122.499 -59.5c-56 0 -97.167 19.833 -123.5 59.5s-39.5 88.5 -39.5 146.5v432h-84v-432c0 -85.333 20 -153.666 60 -204.999s102.333 -77 187 -77
c54.667 0 100.5 12.5 137.5 37.5s64.333 58.833 82 101.5s26.5 90.334 26.5 143.001v432zM366.999 875.998l-88 -126l-48 27l73 135zM506.999 875.998l-88 -126l-48 27l73 135z" />
    <glyph glyph-name="uhungarumlaut" unicode="&#x171;" 
d="M465 0h-71.001l-6 53c-16.667 -20.667 -37.167 -37 -61.5 -49s-50.5 -18 -78.5 -18c-55.333 0 -97.666 15.5 -126.999 46.5s-44 73.167 -44 126.5v345h77v-345c0 -31.333 9.16699 -56.5 27.5 -75.5s43.833 -28.5 76.5 -28.5c40 0 71.667 14.5 95 43.5s35 63.833 35 104.5
v301h77v-504zM300.999 680l-88 -126l-48 27l73 135zM440.999 680l-88 -126l-48 27l73 135z" />
    <glyph glyph-name="Uogonek" unicode="&#x172;" horiz-adv-x="673" 
d="M583 700l0.00195312 -431.999c0 -54.667 -9.33301 -103.5 -28 -146.5s-47 -76.5 -85 -100.5c-36 -23.333 -61.667 -46.5 -77 -69.5s-23 -44.833 -23 -65.5c0 -10 2.5 -18.167 7.5 -24.5s12.833 -9.5 23.5 -9.5c7.33301 0 15.333 1.66699 24 5s16 7 22 11l9 -54
c-9.33301 -7.33301 -20.833 -13.333 -34.5 -18s-26.834 -7 -39.501 -7c-24 0 -41.667 7.33301 -53 22s-17 34 -17 58c0 38.667 18.333 78 55 118c-6.66699 -0.666992 -16.667 -1 -30 -1c-84.667 0 -147 25.667 -187 77s-60 119.666 -60 204.999v432h84v-432
c0 -58 13.167 -106.833 39.5 -146.5s67.5 -59.5 123.5 -59.5c55.333 0 96.166 19.833 122.499 59.5s39.5 88.5 39.5 146.5v432h84z" />
    <glyph glyph-name="uogonek" unicode="&#x173;" 
d="M401.5 -54.5c-16.333 -21.667 -24.5 -41.5 -24.5 -59.5c0 -10 2.5 -18.167 7.5 -24.5s12.833 -9.5 23.5 -9.5c7.33301 0 15.333 1.66699 24 5s16 7 22 11l9 -54c-9.33301 -7.33301 -20.833 -13.333 -34.5 -18s-26.834 -7 -39.501 -7c-24 0 -41.667 7.33301 -53 22
s-17 34 -17 58c0 20.667 6.5 42.334 19.5 65.001s31.5 44.667 55.5 66l-6 53c-16.667 -20.667 -37.167 -37 -61.5 -49s-50.5 -18 -78.5 -18c-55.333 0 -97.666 15.5 -126.999 46.5s-44 73.167 -44 126.5v345h77v-345c0 -31.333 9.16699 -56.5 27.5 -75.5
s43.833 -28.5 76.5 -28.5c40 0 71.667 14.5 95 43.5s35 63.833 35 104.5v301h77v-504h-12c-18 -14.667 -35.167 -32.834 -51.5 -54.501z" />
    <glyph glyph-name="Wcircumflex" unicode="&#x174;" horiz-adv-x="944" 
d="M255 -13l-227 713h89l156 -511l185 478h28l186 -478l155 511h89l-226 -713h-20l-198 508l-198 -508h-19zM474 828l-114 -77l-32 41l136 106h18l134 -107l-30 -40z" />
    <glyph glyph-name="wcircumflex" unicode="&#x175;" horiz-adv-x="776" 
d="M186 299l-73 205h-84l187 -518h23l149 355l149 -355h24l186 518h-83l-74 -205l-44 -151l-145 344h-25l-146 -344zM391 632l-114 -77l-32 41l136 106h18l134 -107l-30 -40z" />
    <glyph glyph-name="Ycircumflex" unicode="&#x176;" horiz-adv-x="637" 
d="M613 700h-97l-197 -310l-197 310h-98l253 -387v-313h84v313zM321 828l-114 -77l-32 41l136 106h18l134 -107l-30 -40z" />
    <glyph glyph-name="ycircumflex" unicode="&#x177;" horiz-adv-x="517" 
d="M408 504l-75.999 -202l-63 -182l-73 182l-85 202h-86l205 -478l-42 -112c-5.33301 -16 -13 -27.833 -23 -35.5s-23 -11.5 -39 -11.5c-10 0 -21 1.66699 -33 5s-23.333 7.66602 -34 12.999v-70c10 -7.33301 21.667 -12.666 35 -15.999s26 -5 38 -5
c31.333 0 58.666 10.167 81.999 30.5s40.333 45.833 51 76.5l226 603h-83zM262.001 642l-114 -77l-32 41l136 106h18l134 -107l-30 -40z" />
    <glyph glyph-name="Ydieresis" unicode="&#x178;" horiz-adv-x="637" 
d="M613 700h-97l-197 -310l-197 310h-98l253 -387v-313h84v313zM189 793c-8 5.33301 -12 16.666 -12 33.999c0 16 4.33301 27 13 33s20.667 9 36 9s27.333 -3 36 -9s13 -17 13 -33c0 -17.333 -4 -28.666 -12 -33.999s-20.333 -8 -37 -8s-29 2.66699 -37 8zM374 793
c-8 5.33301 -12 16.666 -12 33.999c0 16 4.33301 27 13 33s20.667 9 36 9s27.5 -3 36.5 -9s13.5 -17 13.5 -33c0 -17.333 -4.16699 -28.666 -12.5 -33.999s-20.833 -8 -37.5 -8s-29 2.66699 -37 8z" />
    <glyph glyph-name="Zacute" unicode="&#x179;" horiz-adv-x="591" 
d="M536 700h-458v-76h326l-364 -607v-17h507v75h-376l365 606v19zM427 851l-147 -103l-36 41l136 117z" />
    <glyph glyph-name="zacute" unicode="&#x17a;" horiz-adv-x="461" 
d="M407 504v-23l-252 -413h260v-68h-375v27l253 409h-231v68h345zM355 655l-147 -103l-36 41l136 117z" />
    <glyph glyph-name="Zdotaccent" unicode="&#x17b;" horiz-adv-x="591" 
d="M536 700h-458v-76h326l-364 -607v-17h507v75h-376l365 606v19zM259 789.5c-8.66699 5.66699 -12.998 18.167 -12.998 37.5c0 17.333 4.83301 29.333 14.5 36s22.834 10 39.501 10c17.333 0 30.666 -3.33301 39.999 -10s14 -18.667 14 -36
c0 -19.333 -4.33301 -31.833 -13 -37.5s-22.334 -8.5 -41.001 -8.5s-32.334 2.83301 -41.001 8.5z" />
    <glyph glyph-name="zdotaccent" unicode="&#x17c;" horiz-adv-x="461" 
d="M407 504v-23l-252 -413h260v-68h-375v27l253 409h-231v68h345zM187 593.5c-8.66699 5.66699 -12.998 18.167 -12.998 37.5c0 17.333 4.83301 29.333 14.5 36s22.834 10 39.501 10c17.333 0 30.666 -3.33301 39.999 -10s14 -18.667 14 -36
c0 -19.333 -4.33301 -31.833 -13 -37.5s-22.334 -8.5 -41.001 -8.5s-32.334 2.83301 -41.001 8.5z" />
    <glyph glyph-name="Zcaron" unicode="&#x17d;" horiz-adv-x="591" 
d="M536 700h-458v-76h326l-364 -607v-17h507v75h-376l365 606v19zM444 858l-134 -107h-18l-136 106l32 41l114 -77l112 77z" />
    <glyph glyph-name="zcaron" unicode="&#x17e;" horiz-adv-x="461" 
d="M407 504v-23l-252 -413h260v-68h-375v27l253 409h-231v68h345zM372 662l-134 -107h-18l-136 106l32 41l114 -77l112 77z" />
    <glyph glyph-name="longs" unicode="&#x17f;" horiz-adv-x="278" 
d="M198.5 627c10.333 12 23.499 18.0029 39.499 18.0029c14 0.666992 26.333 -0.333008 37 -3s22.334 -7.66699 35.001 -15v77c-18.667 4.66699 -33.5 7.66699 -44.5 9s-24.5 1.66602 -40.5 0.999023c-34 -0.666992 -62.333 -12.834 -85 -36.501s-34 -54.834 -34 -93.501
v-80h-74v-70h74v-434h77v584c0 16.667 5.16699 31 15.5 43z" />
    <glyph glyph-name="Aringacute" unicode="&#x1fa;" horiz-adv-x="652" 
d="M297 872l-20 38l125 57l27 -54zM634 0h-96.001l-60 148h-309l-60 -148h-91l281 676c-22.667 4 -41.167 13.667 -55.5 29s-21.5 34 -21.5 56c0 26.667 9.5 48.334 28.5 65.001s42.833 25 71.5 25s52.834 -8.33301 72.501 -25s29.5 -38.334 29.5 -65.001
c0 -22 -7 -40.667 -21 -56s-32 -25.333 -54 -30zM289.499 729.5c9.66699 -8.33301 20.832 -12.5 33.499 -12.5s23.834 4.16699 33.501 12.5s14.5 18.833 14.5 31.5c0 13.333 -5 24.5 -15 33.5s-21.333 13.5 -34 13.5s-23.667 -4.5 -33 -13.5s-14 -20.167 -14 -33.5
c0 -12.667 4.83301 -23.167 14.5 -31.5zM446.997 223l-124 307l-124 -307h248z" />
    <glyph glyph-name="aringacute" unicode="&#x1fb;" horiz-adv-x="506" 
d="M367 786l-132 -41l-20 38l125 57zM333.5 570.5c-19 -16.333 -42.499 -24.5 -70.499 -24.5c-29.333 0 -53.833 8.16699 -73.5 24.5s-29.5 37.5 -29.5 63.5c0 26.667 9.5 48.334 28.5 65.001s42.833 25 71.5 25c29.333 0 53.666 -8.33301 72.999 -25s29 -38.334 29 -65.001
c0 -26 -9.5 -47.167 -28.5 -63.5zM294.001 667.5c-10 9 -21.335 13.5 -34.002 13.5s-23.667 -4.5 -33 -13.5s-14 -20.167 -14 -33.5c0 -12.667 4.83301 -23.167 14.5 -31.5s20.834 -12.5 33.501 -12.5s23.834 4.16699 33.501 12.5s14.5 18.833 14.5 31.5
c0 13.333 -5 24.5 -15 33.5zM351.999 324c-22.667 1.33301 -40.3311 2 -52.998 2c-22 0 -46.333 -1.66699 -73 -5c-52.667 -8 -95.834 -26.5 -129.501 -55.5s-50.5 -69.167 -50.5 -120.5c0 -29.333 7 -56 21 -80s33.667 -43.167 59 -57.5s55 -21.5 89 -21.5
c26.667 0 51.834 6.5 75.501 19.5s44.167 30.833 61.5 53.5l9 -59h68v343c0 54 -17.333 96.667 -52 128s-79.334 47 -134.001 47c-27.333 -0.666992 -52.833 -4 -76.5 -10s-49.834 -16 -78.501 -30l-2 -76c45.333 34 98.333 50 159 48c32.667 -0.666992 58.667 -11 78 -31
s29 -46.333 29 -79v-16zM314.002 93.5c-24.667 -25 -55.999 -37.501 -93.999 -37.501c-25.333 0 -46.833 8.66699 -64.5 26s-26.5 40 -26.5 68c0 37.333 14 64.333 42 81s61.333 26.334 100 29.001c8 0.666992 20 1 36 1c21.333 0 36.333 -0.333008 45 -1v-67
c-0.666992 -41.333 -13.334 -74.5 -38.001 -99.5z" />
    <glyph glyph-name="AEacute" unicode="&#x1fc;" horiz-adv-x="795" 
d="M749 76v-76h-360v148h-211l-77 -148h-96l383 700h351v-76h-266v-218h244v-76h-244v-254h276zM389 223v332l-172 -332h172zM583 851l-147 -103l-36 41l136 117z" />
    <glyph glyph-name="aeacute" unicode="&#x1fd;" horiz-adv-x="783" 
d="M725 246l-303.001 -0.00195312c4 -126.667 49.667 -190 137 -190c48 0 97.333 19.667 148 59l-1 -81c-43.333 -32 -92.666 -48 -147.999 -48c-41.333 0 -77 8.83301 -107 26.5s-54 42.834 -72 75.501c-19.333 -32 -43.833 -57 -73.5 -75s-62.167 -27 -97.5 -27
c-32 0 -60.333 7.16699 -85 21.5s-43.667 33.5 -57 57.5s-20 50.667 -20 80c0 45.333 16.167 82.333 48.5 111s72.833 47 121.5 55c19.333 3.33301 42.333 5 69 5c14 0 33 -0.666992 57 -2v26c0 34.667 -10.333 61.667 -31 81s-50.667 29 -90 29c-48 0 -93 -16 -135 -48
l2 76c28.667 14 54 24.167 76 30.5s44.667 9.5 68 9.5c35.333 0 66.833 -6.66699 94.5 -20s49.5 -32.333 65.5 -57c36.667 51.333 89 77 157 77c60.667 0 106 -19.667 136 -59s45 -89.666 45 -150.999c0 -19.333 -1.66699 -40 -5 -62zM652.999 316.998
c-0.666992 40 -8.83496 71.667 -24.502 95s-42.5 35 -80.5 35c-37.333 0 -65.166 -11.333 -83.499 -34s-31.166 -54.667 -38.499 -96h227zM341.998 249.998c-8.66699 0.666992 -23.668 1.00098 -45.001 1.00098c-16 0 -28 -0.333008 -36 -1c-88 -6 -132 -40.667 -132 -104
c0 -26.667 7.5 -48.334 22.5 -65.001s36.167 -25 63.5 -25c22.667 0 43.834 5.83301 63.501 17.5s35.167 28 46.5 49s17 44.5 17 70.5v57zM517.997 668.999l-147 -103l-36 41l136 117z" />
    <glyph glyph-name="Oslashacute" unicode="&#x1fe;" horiz-adv-x="703" 
d="M617 510.5c14 -49 21 -102.5 21 -160.5c0 -105.333 -22.667 -192.333 -68 -261s-118 -103 -218 -103c-58.667 0 -109.334 13.333 -152.001 40l-42 -72l-54 32l47 81c-29.333 33.333 -51 74.5 -65 123.5s-21 102.167 -21 159.5c0 105.333 23 192.333 69 261
s118.667 103 218 103c58.667 0 109.334 -13.333 152.001 -40l42 73l54 -31l-48 -83c29.333 -32.667 51 -73.5 65 -122.5zM196 145l267 459c-29.333 22.667 -66.333 34 -111 34c-48 0 -86.833 -14.5 -116.5 -43.5s-51 -65.5 -64 -109.5s-19.5 -89 -19.5 -135
c0 -88 14.667 -156.333 44 -205zM467.5 105.5c29.667 29 51.001 65.332 64.001 108.999s19.5 88.834 19.5 135.501c0 88 -14.667 156.333 -44 205l-267 -459c29.333 -22.667 66.666 -34 111.999 -34c47.333 0 85.833 14.5 115.5 43.5zM479.001 864.999l-147 -103l-36 41
l136 117z" />
    <glyph glyph-name="oslashacute" unicode="&#x1ff;" horiz-adv-x="562" 
d="M487.5 367.5c11.667 -37 17.501 -75.166 17.501 -114.499c0 -43.333 -7.16699 -85.166 -21.5 -125.499s-38.333 -74 -72 -101s-77.167 -40.5 -130.5 -40.5c-41.333 0 -78 9 -110 27l-30 -52l-44 25l33 58c-25.333 25.333 -43.833 56.666 -55.5 93.999
s-17.5 75.666 -17.5 114.999c0 43.333 7.16699 85 21.5 125s38.333 73.333 72 100s77.167 40 130.5 40c41.333 0 77.666 -8.66699 108.999 -26l30 52l45 -26l-33 -57c25.333 -25.333 43.833 -56.5 55.5 -93.5zM171.001 114.001l183 315
c-19.333 12.667 -43.666 19 -72.999 19c-50.667 0 -86.834 -19.833 -108.501 -59.5s-32.5 -84.834 -32.5 -135.501c0 -61.333 10.333 -107.666 31 -138.999zM389.001 117.001c22 40 33.001 85.333 33.001 136c0 60.667 -10.333 106.667 -31 138l-183 -315
c19.333 -12.667 43.666 -19 72.999 -19c50 0 86 20 108 60zM408.002 657.001l-147 -103l-36 41l136 117z" />
    <glyph glyph-name="Scommaaccent" unicode="&#x218;" horiz-adv-x="543" 
d="M177 470.5c12.667 -16.333 28 -29.332 46 -38.999s44.667 -21.834 80 -36.501c57.333 -24 103.333 -52.667 138 -86s52 -74.333 52 -123c0 -39.333 -10.333 -74.166 -31 -104.499s-48.334 -53.833 -83.001 -70.5s-72.334 -25 -113.001 -25
c-44 0 -82.5 3.83301 -115.5 11.5s-63.167 19.5 -90.5 35.5v91c54 -39.333 113 -59 177 -59c46.667 0 85.5 10.333 116.5 31s46.5 50.667 46.5 90c0 25.333 -6.66699 46.5 -20 63.5s-29.333 30.5 -48 40.5s-45.667 22.333 -81 37
c-59.333 24.667 -104.666 52.667 -135.999 84s-47 71.666 -47 120.999c0 58 19.333 102.833 58 134.5s88.334 47.5 149.001 47.5c29.333 0 58.333 -3.83301 87 -11.5s55 -18.5 79 -32.5l1 -84c-48 32 -102 48.667 -162 50c-34.667 0 -63.667 -9.5 -87 -28.5
s-35 -44.167 -35 -75.5c0 -24.667 6.33301 -45.167 19 -61.5zM310 -115.999c0 18.667 -2.66895 32.333 -8.00195 41s-16.666 13 -33.999 13s-29.166 -4.33301 -35.499 -13s-9.5 -21.334 -9.5 -38.001c0 -14.667 2.5 -26.667 7.5 -36s13.833 -14.666 26.5 -15.999
c0 -12.667 -3 -25.5 -9 -38.5s-13.667 -24.167 -23 -33.5l39 -13c30.667 33.333 46 78 46 134z" />
    <glyph glyph-name="scommaaccent" unicode="&#x219;" horiz-adv-x="446" 
d="M202 57c34.667 0 62.165 6.66895 82.498 20.002s30.5 34 30.5 62c0 26 -8.16699 44.667 -24.5 56s-41.166 21.666 -74.499 30.999c-50 14.667 -88.667 33 -116 55s-41 54.667 -41 98c0 45.333 14.667 79.833 44 103.5s68.333 35.5 117 35.5c22 0 44.333 -2.33301 67 -7
s43.334 -11.334 62.001 -20.001l4 -81c-37.333 24 -77.333 36 -120 36c-30.667 0 -53.667 -6.16699 -69 -18.5s-23 -28.833 -23 -49.5c0 -25.333 9.5 -44.166 28.5 -56.499s45.167 -22.833 78.5 -31.5c41.333 -10.667 76.833 -26.834 106.5 -48.501s44.5 -55.5 44.5 -101.5
c0 -48 -18 -85.667 -54 -113s-82.667 -41 -140 -41c-46 0 -94.333 10 -145 30l-6 87c46 -30.667 95.333 -46 148 -46zM251.998 -115.998c0 18.667 -2.66895 32.333 -8.00195 41s-16.666 13 -33.999 13s-29.166 -4.33301 -35.499 -13s-9.5 -21.334 -9.5 -38.001
c0 -14.667 2.5 -26.667 7.5 -36s13.833 -14.666 26.5 -15.999c0 -12.667 -3 -25.5 -9 -38.5s-13.667 -24.167 -23 -33.5l39 -13c30.667 33.333 46 78 46 134z" />
    <glyph glyph-name="uni021A" unicode="&#x21a;" horiz-adv-x="520" 
d="M218 625h-189v75h462v-75h-189v-625h-84v625zM304 -116c0 18.667 -2.66895 32.333 -8.00195 41s-16.666 13 -33.999 13s-29.166 -4.33301 -35.499 -13s-9.5 -21.334 -9.5 -38.001c0 -14.667 2.5 -26.667 7.5 -36s13.833 -14.666 26.5 -15.999
c0 -12.667 -3 -25.5 -9 -38.5s-13.667 -24.167 -23 -33.5l39 -13c30.667 33.333 46 78 46 134z" />
    <glyph glyph-name="uni021B" unicode="&#x21b;" horiz-adv-x="334" 
d="M28 504h77.999v104l77 17v-121h112v-70h-112v-311c0 -45.333 21.333 -68.333 64 -69c20.667 0 41.334 5.66699 62.001 17l1 -74c-16 -4.66699 -29.333 -7.66699 -40 -9s-23 -2 -37 -2c-40.667 0 -72 12.333 -94 37s-33 57.667 -33 99v312h-78v70zM245.999 -116
c0 18.667 -2.66895 32.333 -8.00195 41s-16.666 13 -33.999 13s-29.166 -4.33301 -35.499 -13s-9.5 -21.334 -9.5 -38.001c0 -14.667 2.5 -26.667 7.5 -36s13.833 -14.666 26.5 -15.999c0 -12.667 -3 -25.5 -9 -38.5s-13.667 -24.167 -23 -33.5l39 -13
c30.667 33.333 46 78 46 134z" />
    <glyph glyph-name="uni0237" unicode="&#x237;" horiz-adv-x="239" 
d="M58.5 -120.5c-11.667 -11 -28.167 -16.5 -49.5 -16.5c-22 0 -41.667 5.33301 -59 16v-74c24 -7.33301 48 -11 72 -11c42.667 0 75.167 11.667 97.5 35s33.5 56 33.5 98v577h-77v-577c0 -20.667 -5.83301 -36.5 -17.5 -47.5z" />
    <glyph glyph-name="circumflex" unicode="&#x2c6;" horiz-adv-x="600" 
d="M271 828l-114 -77l-32 41l136 106h18l134 -107l-30 -40z" />
    <glyph glyph-name="caron" unicode="&#x2c7;" horiz-adv-x="600" 
d="M413 858l-134 -107h-18l-136 106l32 41l114 -77l112 77z" />
    <glyph glyph-name="breve" unicode="&#x2d8;" horiz-adv-x="600" 
d="M257 877c5.33301 -20 15.8301 -35.667 31.4971 -47s32.834 -17 51.501 -17s35.834 5.66699 51.501 17s25.834 27 30.501 47l54 -14c-7.33301 -35.333 -24 -62.666 -50 -81.999s-55 -29 -87 -29s-60.5 9.66699 -85.5 29s-41.167 46.666 -48.5 81.999z" />
    <glyph glyph-name="dotaccent" unicode="&#x2d9;" horiz-adv-x="600" 
d="M163 789.5c-8.66699 5.66699 -12.998 18.167 -12.998 37.5c0 17.333 4.83301 29.333 14.5 36s22.834 10 39.501 10c17.333 0 30.666 -3.33301 39.999 -10s14 -18.667 14 -36c0 -19.333 -4.33301 -31.833 -13 -37.5s-22.334 -8.5 -41.001 -8.5
s-32.334 2.83301 -41.001 8.5z" />
    <glyph glyph-name="ring" unicode="&#x2da;" horiz-adv-x="600" 
d="M405.5 755c-21 -18 -46.833 -27 -77.5 -27s-57.167 8.5 -79.5 25.5s-33.5 41.167 -33.5 72.5s10.833 55.833 32.5 73.5s47.5 26.5 77.5 26.5s56.167 -8.83301 78.5 -26.5s33.5 -42.167 33.5 -73.5c0 -29.333 -10.5 -53 -31.5 -71zM366.5 868.5
c-11.667 9.66699 -25.501 14.499 -41.501 14.499c-15.333 0 -28.666 -5 -39.999 -15s-17 -24 -17 -42c0 -17.333 5.83301 -30.666 17.5 -39.999s25.167 -14 40.5 -14c16 0 29.667 4.66699 41 14s17 22.666 17 39.999c0 18.667 -5.83301 32.834 -17.5 42.501z" />
    <glyph glyph-name="ogonek" unicode="&#x2db;" horiz-adv-x="600" 
d="M246.5 -66.5c-10.333 -22.333 -15.501 -43.833 -15.501 -64.5c0 -24 5.66699 -43.333 17 -58s29 -22 53 -22c12.667 0 25.834 2.33301 39.501 7s25.167 10.667 34.5 18l-9 54c-6 -4.66699 -13.333 -8.5 -22 -11.5s-16.667 -4.5 -24 -4.5
c-10.667 0 -18.5 3.16699 -23.5 9.5s-7.5 14.5 -7.5 24.5c0 17.333 7 37 21 59s29 40.333 45 55h-59c-22.667 -22 -39.167 -44.167 -49.5 -66.5z" />
    <glyph glyph-name="tilde" unicode="&#x2dc;" horiz-adv-x="600" 
d="M169 811c10 24 21.501 41.5 34.501 52.5s27.833 16.5 44.5 16.5c19.333 0 43 -7 71 -21c20 -10.667 35.333 -16 46 -16c16 0 29 11 39 33l43 -23c-10.667 -23.333 -22.334 -40.5 -35.001 -51.5s-27 -16.5 -43 -16.5c-16.667 0 -37.667 6.33301 -63 19
c-12 6 -21.833 10.5 -29.5 13.5s-15.167 4.5 -22.5 4.5c-18 0 -32.333 -11.667 -43 -35z" />
    <glyph glyph-name="gravecomb" unicode="&#x300;" horiz-adv-x="0" 
d="M-418 908l136 -117l-36 -41l-148 102z" />
    <glyph glyph-name="acutecomb" unicode="&#x301;" horiz-adv-x="0" 
d="M-177 851l-147 -103l-36 41l136 117z" />
    <glyph glyph-name="uni0302" unicode="&#x302;" horiz-adv-x="0" 
d="M-329 828l-114 -77l-32 41l136 106h18l134 -107l-30 -40z" />
    <glyph glyph-name="tildecomb" unicode="&#x303;" horiz-adv-x="0" 
d="M-431 811c10 24 21.501 41.5 34.501 52.5s27.833 16.5 44.5 16.5c19.333 0 43 -7 71 -21c20 -10.667 35.333 -16 46 -16c16 0 29 11 39 33l43 -23c-10.667 -23.333 -22.334 -40.5 -35.001 -51.5s-27 -16.5 -43 -16.5c-16.667 0 -37.667 6.33301 -63 19
c-12 6 -21.833 10.5 -29.5 13.5s-15.167 4.5 -22.5 4.5c-18 0 -32.333 -11.667 -43 -35z" />
    <glyph glyph-name="uni0304" unicode="&#x304;" horiz-adv-x="0" 
d="M-424 872v-62h281v62h-281z" />
    <glyph glyph-name="uni0306" unicode="&#x306;" horiz-adv-x="0" 
d="M-343 877c5.33301 -20 15.8301 -35.667 31.4971 -47s32.834 -17 51.501 -17s35.834 5.66699 51.501 17s25.834 27 30.501 47l54 -14c-7.33301 -35.333 -24 -62.666 -50 -81.999s-55 -29 -87 -29s-60.5 9.66699 -85.5 29s-41.167 46.666 -48.5 81.999z" />
    <glyph glyph-name="uni0307" unicode="&#x307;" horiz-adv-x="0" 
d="M-437 789.5c-8.66699 5.66699 -12.998 18.167 -12.998 37.5c0 17.333 4.83301 29.333 14.5 36s22.834 10 39.501 10c17.333 0 30.666 -3.33301 39.999 -10s14 -18.667 14 -36c0 -19.333 -4.33301 -31.833 -13 -37.5s-22.334 -8.5 -41.001 -8.5
s-32.334 2.83301 -41.001 8.5z" />
    <glyph glyph-name="uni0308" unicode="&#x308;" horiz-adv-x="0" 
d="M-433 793c-8 5.33301 -12 16.666 -12 33.999c0 16 4.33301 27 13 33s20.667 9 36 9s27.333 -3 36 -9s13 -17 13 -33c0 -17.333 -4 -28.666 -12 -33.999s-20.333 -8 -37 -8s-29 2.66699 -37 8zM-248 793c-8 5.33301 -12 16.666 -12 33.999c0 16 4.33301 27 13 33
s20.667 9 36 9s27.5 -3 36.5 -9s13.5 -17 13.5 -33c0 -17.333 -4.16699 -28.666 -12.5 -33.999s-20.833 -8 -37.5 -8s-29 2.66699 -37 8z" />
    <glyph glyph-name="uni030A" unicode="&#x30a;" horiz-adv-x="0" 
d="M-194.5 755c-21 -18 -46.833 -27 -77.5 -27s-57.167 8.5 -79.5 25.5s-33.5 41.167 -33.5 72.5s10.833 55.833 32.5 73.5s47.5 26.5 77.5 26.5s56.167 -8.83301 78.5 -26.5s33.5 -42.167 33.5 -73.5c0 -29.333 -10.5 -53 -31.5 -71zM-233.5 868.5
c-11.667 9.66699 -25.501 14.499 -41.501 14.499c-15.333 0 -28.666 -5 -39.999 -15s-17 -24 -17 -42c0 -17.333 5.83301 -30.666 17.5 -39.999s25.167 -14 40.5 -14c16 0 29.667 4.66699 41 14s17 22.666 17 39.999c0 18.667 -5.83301 32.834 -17.5 42.501z" />
    <glyph glyph-name="uni030B" unicode="&#x30b;" horiz-adv-x="0" 
d="M-291 876l-88 -126l-48 27l73 135zM-151 876l-88 -126l-48 27l73 135z" />
    <glyph glyph-name="uni030C" unicode="&#x30c;" horiz-adv-x="0" 
d="M-187 858l-134 -107h-18l-136 106l32 41l114 -77l112 77z" />
    <glyph glyph-name="uni0312" unicode="&#x312;" horiz-adv-x="0" 
d="M-166 830c0 -18.667 2.66895 -32.333 8.00195 -41s16.666 -13 33.999 -13s29.166 4.33301 35.499 13s9.5 21.334 9.5 38.001c0 14.667 -2.5 26.667 -7.5 36s-13.833 14.666 -26.5 15.999c0 12.667 3 25.5 9 38.5s13.667 24.167 23 33.5l-39 13
c-30.667 -33.333 -46 -78 -46 -134z" />
    <glyph glyph-name="uni0326" unicode="&#x326;" horiz-adv-x="0" 
d="M-79 -116c0 18.667 -2.66895 32.333 -8.00195 41s-16.666 13 -33.999 13s-29.166 -4.33301 -35.499 -13s-9.5 -21.334 -9.5 -38.001c0 -14.667 2.5 -26.667 7.5 -36s13.833 -14.666 26.5 -15.999c0 -12.667 -3 -25.5 -9 -38.5s-13.667 -24.167 -23 -33.5l39 -13
c30.667 33.333 46 78 46 134z" />
    <glyph glyph-name="uni0327" unicode="&#x327;" horiz-adv-x="0" 
d="M-355 -209c27.333 0 49 8.50293 65 25.5029s24 36.833 24 59.5c0 19.333 -6.16699 36.166 -18.5 50.499s-30.833 23.166 -55.5 26.499l19 45l-46 2l-31 -80c17.333 -0.666992 33.5 -3.83398 48.5 -9.50098s22.5 -15.5 22.5 -29.5c0 -2 -0.666992 -6.33301 -2 -13
c-2 -6.66699 -6 -12.167 -12 -16.5s-13.667 -6.83301 -23 -7.5c-10 0 -20.333 2.16699 -31 6.5s-18.667 9.5 -24 15.5l-20 -45c25.333 -20 53.333 -30 84 -30z" />
    <glyph glyph-name="uni0328" unicode="&#x328;" horiz-adv-x="0" 
d="M-353.5 -66.5c-10.333 -22.333 -15.501 -43.833 -15.501 -64.5c0 -24 5.66699 -43.333 17 -58s29 -22 53 -22c12.667 0 25.834 2.33301 39.501 7s25.167 10.667 34.5 18l-9 54c-6 -4.66699 -13.333 -8.5 -22 -11.5s-16.667 -4.5 -24 -4.5
c-10.667 0 -18.5 3.16699 -23.5 9.5s-7.5 14.5 -7.5 24.5c0 17.333 7 37 21 59s29 40.333 45 55h-59c-22.667 -22 -39.167 -44.167 -49.5 -66.5z" />
    <glyph glyph-name="uni0394" unicode="&#x394;" horiz-adv-x="652" 
d="M634 0h-616l296 712h19zM508 75l-185 455l-184 -455h369z" />
    <glyph glyph-name="uni03A9" unicode="&#x3a9;" horiz-adv-x="766" 
d="M707 76v-76h-266v15c37.333 46 66 86.167 86 120.5s34.167 69.5 42.5 105.5s12.5 78.667 12.5 128c0 42 -6.5 83.5 -19.5 124.5s-34.333 75.333 -64 103s-68.167 41.5 -115.5 41.5s-85.833 -13.833 -115.5 -41.5s-51 -62 -64 -103s-19.5 -82.5 -19.5 -124.5
c0 -49.333 4.16699 -92 12.5 -128s22.5 -71.167 42.5 -105.5s48.667 -74.5 86 -120.5v-15h-266v76h130c-61.333 68.667 -92 169.667 -92 303c0 58 9.5 112.333 28.5 163s49.833 92 92.5 124s97.667 48 165 48s122.333 -16 165 -48s73.5 -73.333 92.5 -124
s28.5 -105 28.5 -163c0 -133.333 -30.667 -234.333 -92 -303h130z" />
    <glyph glyph-name="uni03BC" unicode="&#x3bc;" 
d="M465 504v-504h-71l-6 53c-17.333 -22 -36.5 -38.667 -57.5 -50s-45.167 -17 -72.5 -17c-23.333 0 -45.5 4.5 -66.5 13.5s-38.5 23.833 -52.5 44.5l6 -240h-68v700h77v-345c0 -31.333 9 -56.5 27 -75.5s43.333 -28.5 76 -28.5c40.667 0 72.667 14.333 96 43
s35 63.667 35 105v301h77z" />
    <glyph glyph-name="pi" unicode="&#x3c0;" horiz-adv-x="608" 
d="M451 434v-301c0 -45.333 21.333 -68.333 64 -69l-14 -68c-40.667 0 -72 12.333 -94 37s-33 57.667 -33 99v302h-195v-434h-77v434h-74v70h497v-70h-74z" />
    <glyph glyph-name="uni0401" unicode="&#x401;" horiz-adv-x="522" 
d="M96 700h370v-76h-286v-218h264v-76h-264v-255h296v-75h-380v700zM151 793c-8 5.33301 -12 16.666 -12 33.999c0 16 4.33301 27 13 33s20.667 9 36 9s27.333 -3 36 -9s13 -17 13 -33c0 -17.333 -4 -28.666 -12 -33.999s-20.333 -8 -37 -8s-29 2.66699 -37 8zM336 793
c-8 5.33301 -12 16.666 -12 33.999c0 16 4.33301 27 13 33s20.667 9 36 9s27.5 -3 36.5 -9s13.5 -17 13.5 -33c0 -17.333 -4.16699 -28.666 -12.5 -33.999s-20.833 -8 -37.5 -8s-29 2.66699 -37 8z" />
    <glyph glyph-name="uni0410" unicode="&#x410;" horiz-adv-x="652" 
d="M109 0h-91l296 712h19l301 -712h-96l-60 148h-309zM323 530l-124 -307h248z" />
    <glyph glyph-name="uni0411" unicode="&#x411;" horiz-adv-x="569" 
d="M96 700l360.998 -0.000976562v-76h-277v-193h92c74.667 0 134.834 -17.667 180.501 -53s68.5 -89.666 68.5 -162.999c0 -70.667 -23.167 -124.167 -69.5 -160.5s-106.166 -54.5 -179.499 -54.5h-176v700zM271.998 74.999c50 0 89.167 11.833 117.5 35.5
s42.5 58.5 42.5 104.5c0 48 -14.167 83.5 -42.5 106.5s-67.5 34.5 -117.5 34.5h-92v-281h92z" />
    <glyph glyph-name="uni0412" unicode="&#x412;" horiz-adv-x="582" 
d="M490 311.5c21.333 -30.333 32 -68.167 32 -113.5c0 -69.333 -21.167 -119.666 -63.5 -150.999s-99.833 -47 -172.5 -47h-190v700h180c62 0 113 -14.833 153 -44.5s60 -74.834 60 -135.501c0 -33.333 -8.16699 -62.333 -24.5 -87s-39.833 -44 -70.5 -58
c42.667 -12 74.667 -33.167 96 -63.5zM180 405.999h96c36.667 0 66 9.16699 88 27.5s33 45.5 33 81.5c0 72.667 -40.333 109 -121 109h-96v-218zM180 74.999h106c46.667 0 82 10.167 106 30.5s36 52.833 36 97.5c0 85.333 -50.667 128 -152 128h-96v-256z" />
    <glyph glyph-name="uni0413" unicode="&#x413;" horiz-adv-x="469" 
d="M96 700h349v-76h-265v-624h-84v700z" />
    <glyph glyph-name="uni0414" unicode="&#x414;" horiz-adv-x="691" 
d="M605 75l-250 637h-19l-250 -637h-56v-204h80l4 129h463l3 -129h81v204h-56zM346 524l169 -449h-339z" />
    <glyph glyph-name="uni0415" unicode="&#x415;" horiz-adv-x="522" 
d="M96 700h370v-76h-286v-218h264v-76h-264v-255h296v-75h-380v700z" />
    <glyph glyph-name="uni0416" unicode="&#x416;" horiz-adv-x="909" 
d="M394 380l-227 320h-101l231 -325l-278 -375h108l267 361v19zM497 0v700h-84v-700h84zM515 380l227 320h101l-232 -325l279 -375h-108l-267 361v19z" />
    <glyph glyph-name="uni0417" unicode="&#x417;" horiz-adv-x="534" 
d="M154 408l-0.000976562 -75h97c40.667 0 73.5 -11.5 98.5 -34.5s37.5 -53.833 37.5 -92.5c0 -45.333 -15.833 -80.666 -47.5 -105.999s-72.167 -38 -121.5 -38c-62 0 -121 22 -177 66l-1 -91c29.333 -19.333 60.333 -32.666 93 -39.999s69 -11 109 -11
c43.333 0 82.666 9.33301 117.999 28s63.166 44.834 83.499 78.501s30.5 71.5 30.5 113.5c0 44.667 -12.833 82.167 -38.5 112.5s-60.5 52.166 -104.5 65.499c32 10 57.333 29.167 76 57.5s28 61.833 28 100.5c0 34 -8.83301 64 -26.5 90s-41.667 46.167 -72 60.5
s-64.5 21.5 -102.5 21.5c-27.333 0 -54.833 -4 -82.5 -12s-53.5 -19.333 -77.5 -34l-1 -80c46.667 33.333 96.334 50.333 149.001 51c38.667 0 69.334 -10.833 92.001 -32.5s34 -48.834 34 -81.501s-11.667 -60.334 -35 -83.001s-51.666 -34 -84.999 -34h-74z" />
    <glyph glyph-name="uni0418" unicode="&#x418;" horiz-adv-x="683" 
d="M568 712l-388 -514v502h-84v-713h18l389 515v-502h84v712h-19z" />
    <glyph glyph-name="uni0419" unicode="&#x419;" horiz-adv-x="682" 
d="M363 809c-46.667 0 -93.667 10 -141 30l5 -73c38 -19.333 83.333 -29 136 -29s98 9.66699 136 29l5 73c-46.667 -20 -93.667 -30 -141 -30zM568 712l-388 -514v502h-84v-713h18l389 515v-502h84v712h-19z" />
    <glyph glyph-name="uni041A" unicode="&#x41a;" horiz-adv-x="634" 
d="M96 700h84v-700h-84v700zM466 700l-250 -324v-19l291 -357h109l-303 373l256 327h-103z" />
    <glyph glyph-name="uni041B" unicode="&#x41b;" horiz-adv-x="634" 
d="M304 712l-286 -712h91l204 530l207 -530h96l-293 712h-19z" />
    <glyph glyph-name="uni041C" unicode="&#x41c;" horiz-adv-x="765" 
d="M389 104l193 387l79 -491h86l-122 712h-19l-227 -458l-226 458h-19l-116 -712h86l73 491l193 -387h19z" />
    <glyph glyph-name="uni041D" unicode="&#x41d;" horiz-adv-x="661" 
d="M96 700h84v-297h301v297h84v-700h-84v328h-301v-328h-84v700z" />
    <glyph glyph-name="uni041E" unicode="&#x41e;" horiz-adv-x="703" 
d="M569.5 611c45.667 -68.667 68.5 -155.667 68.5 -261s-22.667 -192.333 -68 -261s-118 -103 -218 -103s-172.833 34.5 -218.5 103.5s-68.5 155.833 -68.5 260.5c0 105.333 23 192.333 69 261s118.667 103 218 103s171.833 -34.333 217.5 -103zM235.5 594.5
c-29.667 -29 -51 -65.501 -64 -109.501s-19.5 -89 -19.5 -135c0 -46.667 6.5 -91.834 19.5 -135.501s34.5 -80 64.5 -109s68.667 -43.5 116 -43.5s85.833 14.5 115.5 43.5s51 65.333 64 109s19.5 88.834 19.5 135.501s-6.5 91.834 -19.5 135.501s-34.333 80 -64 109
s-68.167 43.5 -115.5 43.5c-48 0 -86.833 -14.5 -116.5 -43.5z" />
    <glyph glyph-name="uni041F" unicode="&#x41f;" horiz-adv-x="652" 
d="M96 700h460v-700h-84v625h-292v-625h-84v700z" />
    <glyph glyph-name="uni0420" unicode="&#x420;" horiz-adv-x="567" 
d="M96 0l84 -0.000976562v269h91c75.333 0 135.833 17.833 181.5 53.5s68.5 89.834 68.5 162.501c0 70.667 -23.167 124.167 -69.5 160.5s-106.5 54.5 -180.5 54.5h-175v-700zM271 624.999c50 0 89.167 -11.833 117.5 -35.5s42.5 -58.5 42.5 -104.5
c0 -48 -14.167 -83.333 -42.5 -106s-67.5 -34 -117.5 -34h-91v280h91z" />
    <glyph glyph-name="uni0421" unicode="&#x421;" horiz-adv-x="533" 
d="M421.5 631c17 -4.66699 35.4961 -14.3311 55.4961 -28.998v87c-36 16.667 -76.667 25 -122 25c-100.667 0 -174.167 -34 -220.5 -102s-69.5 -155.333 -69.5 -262s23.167 -194 69.5 -262s119.833 -102 220.5 -102c24.667 0 49.334 3 74.001 9s47.334 14.667 68.001 26v85
c-41.333 -29.333 -88.666 -44 -141.999 -44c-48.667 0 -88.167 14.167 -118.5 42.5s-52 64.166 -65 107.499s-19.5 89.333 -19.5 138s6.5 94.667 19.5 138s34.833 79.166 65.5 107.499s70.334 42.5 119.001 42.5c26.667 0 48.5 -2.33301 65.5 -7z" />
    <glyph glyph-name="uni0422" unicode="&#x422;" horiz-adv-x="520" 
d="M218 625h-189v75h462v-75h-189v-625h-84v625z" />
    <glyph glyph-name="uni0423" unicode="&#x423;" horiz-adv-x="559" 
d="M445 700l-152.998 -408.001l-178 408h-93l231 -516c-15.333 -37.333 -33 -65.833 -53 -85.5s-47.667 -29.5 -83 -29.5c-10 0 -17.667 0.333008 -23 1v-83c54.667 -2.66699 98.167 5.83301 130.5 25.5s57.166 45.334 74.499 77.001s37.666 78.5 60.999 140.5l177 470h-91z
" />
    <glyph glyph-name="uni0424" unicode="&#x424;" horiz-adv-x="816" 
d="M88.5 524c26.333 48.667 63.333 86.667 111 114s103.167 43.666 166.5 48.999v82h84v-82c63.333 -5.33301 118.833 -21.666 166.5 -48.999s84.667 -65.333 111 -114s39.5 -106.667 39.5 -174c0 -66.667 -13.167 -124.5 -39.5 -173.5s-63.333 -87.167 -111 -114.5
s-103.167 -43.666 -166.5 -48.999v-82h-84v82c-63.333 5.33301 -118.833 21.666 -166.5 48.999s-84.667 65.5 -111 114.5s-39.5 106.833 -39.5 173.5c0 67.333 13.167 125.333 39.5 174zM198 532c-40.667 -45.333 -61 -106.003 -61 -182.003
c0 -75.333 20.333 -135.666 61 -180.999s96.667 -71.666 168 -78.999v521c-71.333 -7.33301 -127.333 -33.666 -168 -78.999zM618 168.997c40.667 45.333 61 105.669 61 181.002c0 76 -20.333 136.667 -61 182s-96.667 71.666 -168 78.999v-521
c71.333 7.33301 127.333 33.666 168 78.999z" />
    <glyph glyph-name="uni0425" unicode="&#x425;" horiz-adv-x="637" 
d="M613 0h-98l-197 300l-197 -300h-98l246 375l-212 325h98l163 -249l163 249h98l-212 -325z" />
    <glyph glyph-name="uni0426" unicode="&#x426;" horiz-adv-x="654" 
d="M96 700h84v-624h291v624h84v-624h53v-204h-80l-4 128h-428v700z" />
    <glyph glyph-name="uni0427" unicode="&#x427;" horiz-adv-x="603" 
d="M423 281c-38.667 -22.667 -82.002 -33.999 -130.002 -33.999c-46.667 0 -87.667 9.5 -123 28.5s-62.666 46 -81.999 81s-29 76.5 -29 124.5v219h84v-220c0 -48 14.5 -85.833 43.5 -113.5s67.833 -41.834 116.5 -42.501c20.667 0 41.834 3.5 63.501 10.5
s40.5 16.833 56.5 29.5v336h84v-700h-84v281z" />
    <glyph glyph-name="uni0428" unicode="&#x428;" horiz-adv-x="916" 
d="M96 700h84v-624h236v624h84v-624h236v624h84v-700h-724v700z" />
    <glyph glyph-name="uni0429" unicode="&#x429;" horiz-adv-x="920" 
d="M874 -128h-80l-4 128h-694v700h84v-624h236v624h84v-624h236v624h84v-624h54v-204z" />
    <glyph glyph-name="uni042A" unicode="&#x42a;" horiz-adv-x="650" 
d="M26 700l236.999 0.00195312v-268h92c74.667 0 134.834 -17.833 180.501 -53.5s68.5 -89.834 68.5 -162.501c0 -70.667 -23 -124.334 -69 -161.001s-106 -55 -180 -55h-176v625h-153v75zM354.999 76.002c50 0 89.167 11.833 117.5 35.5s42.5 58.5 42.5 104.5
c0 47.333 -14.167 82.5 -42.5 105.5s-67.5 34.5 -117.5 34.5h-92v-280h92z" />
    <glyph glyph-name="uni042B" unicode="&#x42b;" horiz-adv-x="772" 
d="M96 0l-0.00195312 700.002h84v-268h92c74.667 0 134.834 -17.833 180.501 -53.5s68.5 -89.834 68.5 -162.501c0 -70.667 -23.167 -124.334 -69.5 -161.001s-106.166 -55 -179.499 -55h-176zM389.498 111.502c28.333 23.667 42.5 58.5 42.5 104.5
c0 47.333 -14.167 82.5 -42.5 105.5s-67.5 34.5 -117.5 34.5h-92v-280h92c50 0 89.167 11.833 117.5 35.5zM591.998 700.002h84v-700h-84v700z" />
    <glyph glyph-name="uni042C" unicode="&#x42c;" horiz-adv-x="567" 
d="M96 0l-0.00195312 700.002h84v-268h92c74.667 0 134.834 -17.833 180.501 -53.5s68.5 -89.834 68.5 -162.501c0 -70.667 -23.167 -124.334 -69.5 -161.001s-106.166 -55 -179.499 -55h-176zM389.498 111.502c28.333 23.667 42.5 58.5 42.5 104.5
c0 47.333 -14.167 82.5 -42.5 105.5s-67.5 34.5 -117.5 34.5h-92v-280h92c50 0 89.167 11.833 117.5 35.5z" />
    <glyph glyph-name="uni042D" unicode="&#x42d;" horiz-adv-x="533" 
d="M398.5 612c46.333 -68 69.5049 -155.332 69.5049 -261.999s-23.167 -194 -69.5 -262s-119.833 -102 -220.5 -102c-24.667 0 -49.334 3 -74.001 9s-47.334 14.667 -68.001 26v85c41.333 -29.333 88.666 -44 141.999 -44c64.667 0 113.167 24.167 145.5 72.5
s51.166 107.5 56.499 177.5h-220v76h220c-5.33301 70 -24.333 129.167 -57 177.5s-81.334 72.5 -146.001 72.5c-26.667 0 -48.5 -2.33301 -65.5 -7s-35.5 -14.334 -55.5 -29.001v87c36 16.667 76.667 25 122 25c100.667 0 174.167 -34 220.5 -102z" />
    <glyph glyph-name="uni042E" unicode="&#x42e;" horiz-adv-x="921" 
d="M788 611c45.333 -68.667 68 -155.667 68 -261c0 -104 -22.5 -190.667 -67.5 -260s-117.167 -104 -216.5 -104c-94 0 -163.5 31.167 -208.5 93.5s-69.833 141.5 -74.5 237.5h-109v-317h-84v700h84v-307h109c6 94 31.667 171 77 231s114 90 206 90
c98.667 0 170.667 -34.333 216 -103zM453.5 594.5c-29.667 -29 -51 -65.332 -64 -108.999s-19.5 -88.834 -19.5 -135.501s6.5 -91.834 19.5 -135.501s34.333 -80 64 -109s68.167 -43.5 115.5 -43.5s85.833 14.5 115.5 43.5s51 65.5 64 109.5s19.5 89 19.5 135
c0 46.667 -6.5 91.834 -19.5 135.501s-34.333 80 -64 109s-68.167 43.5 -115.5 43.5s-85.833 -14.5 -115.5 -43.5z" />
    <glyph glyph-name="uni042F" unicode="&#x42f;" horiz-adv-x="617" 
d="M392 343l0.000976562 20.001h-65c-46.667 0 -83.5 11.167 -110.5 33.5s-40.5 56.166 -40.5 101.499c0 44 13.667 76 41 96s64 30 110 30h110v-624h84v700h-194c-72 0 -130.167 -16.333 -174.5 -49s-66.5 -83.667 -66.5 -153c0 -57.333 15.667 -103 47 -137
s73.666 -56 126.999 -66l-214 -295h104z" />
    <glyph glyph-name="uni0430" unicode="&#x430;" horiz-adv-x="506" 
d="M352 324c-22.667 1.33301 -40.3311 2 -52.998 2c-22 0 -46.333 -1.66699 -73 -5c-52.667 -8 -95.834 -26.5 -129.501 -55.5s-50.5 -69.167 -50.5 -120.5c0 -29.333 7 -56 21 -80s33.667 -43.167 59 -57.5s55 -21.5 89 -21.5c26.667 0 51.834 6.5 75.501 19.5
s44.167 30.833 61.5 53.5l9 -59h68v343c0 54 -17.333 96.667 -52 128s-79.334 47 -134.001 47c-27.333 -0.666992 -52.833 -4 -76.5 -10s-49.834 -16 -78.501 -30l-2 -76c45.333 34 98.333 50 159 48c32.667 -0.666992 58.667 -11 78 -31s29 -46.333 29 -79v-16z
M314.003 93.5c-24.667 -25 -55.999 -37.501 -93.999 -37.501c-25.333 0 -46.833 8.66699 -64.5 26s-26.5 40 -26.5 68c0 37.333 14 64.333 42 81s61.333 26.334 100 29.001c8 0.666992 20 1 36 1c21.333 0 36.333 -0.333008 45 -1v-67
c-0.666992 -41.333 -13.334 -74.5 -38.001 -99.5z" />
    <glyph glyph-name="uni0431" unicode="&#x431;" horiz-adv-x="562" 
d="M395 703.5c-20.667 -5.66699 -47 -10.499 -79 -14.499l-26 -3c-62.667 -8.66699 -110 -31.334 -142 -68.001s-53 -83.334 -63 -140.001s-15 -129 -15 -217c0 -80.667 16.833 -146.667 50.5 -198s89.167 -77 166.5 -77c51.333 0 93.333 12.333 126 37s56.167 56 70.5 94
s21.5 78.333 21.5 121c0 70.667 -16.333 129.334 -49 176.001s-82.667 70 -150 70c-69.333 0 -122 -26.667 -158 -80c6.66699 48 14.5 85.333 23.5 112s23.167 47.834 42.5 63.501s47.333 26.5 84 32.5l27 4c30.667 4.66699 56 9.5 76 14.5s39.333 12.833 58 23.5l-6 80
c-18 -14.667 -37.333 -24.834 -58 -30.501zM390.5 364.001c21.667 -34.667 32.5 -76.6689 32.5 -126.002s-11.167 -92.166 -33.5 -128.499s-56.5 -54.5 -102.5 -54.5s-79.833 18.333 -101.5 55s-32.5 79.334 -32.5 128.001s11.167 90.5 33.5 125.5s56.5 52.5 102.5 52.5
s79.833 -17.333 101.5 -52z" />
    <glyph glyph-name="uni0432" unicode="&#x432;" horiz-adv-x="553" 
d="M131.5 51.5c34.333 -43.667 84.8311 -65.498 151.498 -65.498s119.334 19.5 158.001 58.5s58 90.833 58 155.5c0 47.333 -12 87.833 -36 121.5s-58.333 55.5 -103 65.5c36 16.667 63 37.667 81 63s27 56.666 27 93.999c0 53.333 -17.167 95 -51.5 125
s-78.166 45 -131.499 45c-68.667 0 -120 -23 -154 -69s-51 -110.667 -51 -194v-231c0 -68.667 17.167 -124.834 51.5 -168.501zM156.998 481.002c0 44.667 10.168 83.167 30.501 115.5s51.166 48.5 92.499 48.5c34.667 0 61.167 -9.5 79.5 -28.5s27.5 -45.833 27.5 -80.5
c0 -38 -12.333 -66.5 -37 -85.5s-58 -32.167 -100 -39.5l-93 -16v86zM254.999 341.002c11.333 2 21.667 3.00098 31 3.00098c40 0 71.667 -13.333 95 -40s35 -62.334 35 -107.001c0 -40.667 -11.5 -74.167 -34.5 -100.5s-54.5 -39.5 -94.5 -39.5
c-41.333 0 -73.333 14.667 -96 44s-34 65.333 -34 108v116z" />
    <glyph glyph-name="uni0433" unicode="&#x433;" horiz-adv-x="446" 
d="M238 57c-30 0 -54.834 6.49902 -74.501 19.499s-29.5 33.833 -29.5 62.5c0 24 8.66699 42.5 26 55.5s42.333 24.5 75 34.5c34 11.333 61.333 22 82 32s37.834 24.333 51.501 43s20.5 43 20.5 73c0 46.667 -16.667 81.834 -50 105.501s-74.666 35.5 -123.999 35.5
c-21.333 0 -43.5 -2.66699 -66.5 -8s-43.833 -12.666 -62.5 -21.999l-1 -81c40 25.333 83.333 38 130 38c29.333 0 52 -5.83301 68 -17.5s24 -27.5 24 -47.5c0 -18 -5.16699 -32.667 -15.5 -44s-21.833 -19.833 -34.5 -25.5s-32 -12.834 -58 -21.501
c-31.333 -10.667 -56.833 -21 -76.5 -31s-36.667 -24.833 -51 -44.5s-21.5 -45.167 -21.5 -76.5c0 -47.333 17.333 -84.333 52 -111s79.667 -40 135 -40c52 0 104.333 11 157 33l2 83c-42.667 -30 -95.334 -45 -158.001 -45z" />
    <glyph glyph-name="uni0434" unicode="&#x434;" horiz-adv-x="568" 
d="M412 445l7 59.002h69v-504c0 -67.333 -19 -119.5 -57 -156.5s-92.333 -55.5 -163 -55.5c-60.667 0 -112.667 13 -156 39v84c22 -18.667 45.5 -31.834 70.5 -39.501s53.5 -11.5 85.5 -11.5c44.667 0 79.667 12.167 105 36.5s38 58.833 38 103.5v81
c-37.333 -47.333 -86 -71 -146 -71c-50 0 -90.5 12.667 -121.5 38s-53.167 57.166 -66.5 95.499s-20 78.5 -20 120.5c0 72.667 17.833 133.167 53.5 181.5s88.5 72.5 158.5 72.5c58 0 105.667 -24.333 143 -73zM198.5 421.002
c-20.333 -18.667 -35.1641 -42.166 -44.4971 -70.499s-14 -57.166 -14 -86.499s4.66699 -58.333 14 -87s24.166 -52.334 44.499 -71.001s45.833 -28 76.5 -28c31.333 0 57.166 9.16699 77.499 27.5s35.166 41.666 44.499 69.999s14 57.833 14 88.5
c0 49.333 -11.333 92.5 -34 129.5s-56.667 55.5 -102 55.5c-30.667 0 -56.167 -9.33301 -76.5 -28z" />
    <glyph glyph-name="uni0435" unicode="&#x435;" horiz-adv-x="518" 
d="M418.5 455.5c31 -41.667 46.502 -94.167 46.502 -157.5c0 -18.667 -1.66699 -39 -5 -61h-323c2 -52.667 14.5 -96 37.5 -130s59.5 -51 109.5 -51c29.333 0 56.666 4.83301 81.999 14.5s50.666 24.5 75.999 44.5l-1 -81c-43.333 -32 -94.333 -48 -153 -48
c-48.667 0 -90.334 11.167 -125.001 33.5s-61 53.333 -79 93s-27 85.167 -27 136.5c0 79.333 18.833 144 56.5 194s91.834 75 162.501 75c64 0 111.5 -20.833 142.5 -62.5zM388.002 308c-1.33301 92.667 -38.999 139 -112.999 139c-38.667 0 -68.834 -13 -90.501 -39
s-36.167 -59.333 -43.5 -100h247z" />
    <glyph glyph-name="uni0436" unicode="&#x436;" horiz-adv-x="741" 
d="M409 700v-700h-77v700h77zM119 0h-99l209 268l-183 236h95l171 -223v-30zM601 504h95l-183 -236l208 -268h-98l-194 251v30z" />
    <glyph glyph-name="uni0437" unicode="&#x437;" horiz-adv-x="472" 
d="M185 137c45.333 0 80.1621 -11.667 104.495 -35s36.5 -57.333 36.5 -102c0 -42.667 -14.167 -76.5 -42.5 -101.5s-64.833 -37.5 -109.5 -37.5c-25.333 0 -50.166 4.66699 -74.499 14s-45.166 21.333 -62.499 36v-91c48 -20.667 97.333 -31 148 -31
c68.667 0 124.334 18.5 167.001 55.5s64 88.833 64 155.5c0 43.333 -11.167 81.833 -33.5 115.5s-53.5 54.5 -93.5 62.5c34.667 16 60.667 36.333 78 61s26 56 26 94s-8.66699 71 -26 99s-41.166 49.333 -71.499 64s-64.166 22 -101.499 22
c-24.667 0 -49.667 -3.16699 -75 -9.5s-47.666 -15.833 -66.999 -28.5v-82c18 13.333 39.333 24.833 64 34.5s48.334 14.5 71.001 14.5c35.333 0 64.166 -11.167 86.499 -33.5s33.5 -50.833 33.5 -85.5c0.666992 -36 -10.333 -64.667 -33 -86s-52.334 -32 -89.001 -32h-74
v-73h74z" />
    <glyph glyph-name="uni0438" unicode="&#x438;" 
d="M465 0l-70.0029 -0.000976562l-6 53c-17.333 -20.667 -38.166 -37 -62.499 -49s-50.5 -18 -78.5 -18c-55.333 0 -97.666 15.5 -126.999 46.5s-44 73.167 -44 126.5v345h77v-345c0 -31.333 9.33301 -56.666 28 -75.999s44.334 -29 77.001 -29c40 0 71.5 14.5 94.5 43.5
s34.5 63.833 34.5 104.5v302h77v-504z" />
    <glyph glyph-name="uni0439" unicode="&#x439;" 
d="M272 650c-43.333 0 -84 8 -122 24l4 -70c34 -15.333 73.333 -23 118 -23s84 7.66699 118 23l2 69c-38.667 -15.333 -78.667 -23 -120 -23zM465 0l-70.0029 -0.000976562l-6 53c-17.333 -20.667 -38.166 -37 -62.499 -49s-50.5 -18 -78.5 -18
c-55.333 0 -97.666 15.5 -126.999 46.5s-44 73.167 -44 126.5v345h77v-345c0 -31.333 9.33301 -56.666 28 -75.999s44.334 -29 77.001 -29c40 0 71.5 14.5 94.5 43.5s34.5 63.833 34.5 104.5v302h77v-504z" />
    <glyph glyph-name="uni043A" unicode="&#x43a;" horiz-adv-x="509" 
d="M80 0v700h77v-700h-77zM369 504h95l-204 -236l229 -268h-98l-214 252v27z" />
    <glyph glyph-name="uni043B" unicode="&#x43b;" horiz-adv-x="501" 
d="M190 200l-84 -200h-86l218 518h25l218 -518h-88l-83 200l-60 174z" />
    <glyph glyph-name="uni043C" unicode="&#x43c;" horiz-adv-x="684" 
d="M153 236l-51 -236h-82l114 518h23l185 -350l186 350h23l113 -518h-81l-51 236l-18 108l-161 -306h-22l-160 306z" />
    <glyph glyph-name="uni043D" unicode="&#x43d;" horiz-adv-x="548" 
d="M468 0h-77v228h-234v-228h-77v504h77v-205h234v205h77v-504z" />
    <glyph glyph-name="uni043E" unicode="&#x43e;" horiz-adv-x="562" 
d="M411.5 478c33.667 -26.667 57.667 -60.167 72 -100.5s21.5 -82.166 21.5 -125.499s-7.16699 -85.166 -21.5 -125.499s-38.333 -73.833 -72 -100.5s-77.167 -40 -130.5 -40s-96.833 13.333 -130.5 40s-57.667 60.167 -72 100.5s-21.5 82.166 -21.5 125.499
s7.16699 85.166 21.5 125.499s38.333 73.833 72 100.5s77.167 40 130.5 40s96.833 -13.333 130.5 -40zM172.5 388c-21.667 -40 -32.498 -85.333 -32.498 -136s11 -96 33 -136s58 -60 108 -60s86 20 108 60s33 85.333 33 136s-10.833 96 -32.5 136s-57.834 60 -108.501 60
s-86.834 -20 -108.501 -60z" />
    <glyph glyph-name="uni043F" unicode="&#x43f;" 
d="M80 504l70.002 0.000976562l6 -53c17.333 20.667 38.166 37 62.499 49s50.5 18 78.5 18c55.333 0 97.666 -15.5 126.999 -46.5s44 -73.167 44 -126.5v-345h-77v345c0 31.333 -9.33301 56.666 -28 75.999s-44.334 29 -77.001 29c-39.333 0 -70.666 -14.5 -93.999 -43.5
s-35 -63.833 -35 -104.5v-302h-77v504z" />
    <glyph glyph-name="uni0440" unicode="&#x440;" horiz-adv-x="569" 
d="M80 -196l77 0.000976562v259c36.667 -51.333 84.334 -77 143.001 -77c47.333 0 86.833 12.333 118.5 37s55.167 57.167 70.5 97.5s23 84.166 23 131.499c0 42.667 -7 84.167 -21 124.5s-37 74 -69 101s-73.667 40.5 -125 40.5c-56.667 0 -103.334 -25.667 -140.001 -77
v63h-77v-700zM396 390.501c22.667 -40.333 34 -86.502 34 -138.502c0 -31.333 -4.5 -62.166 -13.5 -92.499s-23.833 -55.666 -44.5 -75.999s-47 -30.5 -79 -30.5c-46 0 -80.167 20.167 -102.5 60.5s-33.5 86.5 -33.5 138.5s11.167 98.167 33.5 138.5s56.5 60.5 102.5 60.5
s80.333 -20.167 103 -60.5z" />
    <glyph glyph-name="uni0441" unicode="&#x441;" horiz-adv-x="455" 
d="M84 385.5c18 40.333 44.6689 72.5 80.002 96.5s77.666 36 126.999 36c39.333 0 74.666 -8 105.999 -24l2 -81c-11.333 10.667 -25.833 19 -43.5 25s-35.834 9 -54.501 9c-51.333 0 -91 -18.167 -119 -54.5s-42 -82.833 -42 -139.5c0 -55.333 12.667 -101.833 38 -139.5
s64 -56.5 116 -56.5c20.667 0 41.834 3.16699 63.501 9.5s41.5 14.833 59.5 25.5l-4 -80c-38.667 -17.333 -81.667 -26 -129 -26c-49.333 0 -91 12 -125 36s-59.5 56 -76.5 96s-25.5 84.667 -25.5 134c0 48.667 9 93.167 27 133.5z" />
    <glyph glyph-name="uni0442" unicode="&#x442;" horiz-adv-x="807" 
d="M80 504h70.0039l6 -50c17.333 20.667 37.833 36.5 61.5 47.5s49.167 16.5 76.5 16.5c31.333 0 57.5 -6.5 78.5 -19.5s38.167 -33.167 51.5 -60.5c19.333 26.667 40.666 46.667 63.999 60s51 20 83 20c51.333 0 90.666 -14.667 117.999 -44s41 -69.333 41 -120v-354h-77
v342c0 28.667 -8.5 53.667 -25.5 75s-39.833 32 -68.5 32c-36 0 -63.833 -14.333 -83.5 -43s-30.167 -62 -31.5 -100v-306h-77v341c-0.666992 29.333 -8.83398 54.5 -24.501 75.5s-38.5 31.5 -68.5 31.5c-38.667 0 -67.834 -14.5 -87.501 -43.5s-29.5 -64.167 -29.5 -105.5
v-299h-77v504z" />
    <glyph glyph-name="uni0443" unicode="&#x443;" horiz-adv-x="517" 
d="M408 504l-75.999 -202l-63 -182l-73 182l-85 202h-86l205 -478l-42 -112c-5.33301 -16 -13 -27.833 -23 -35.5s-23 -11.5 -39 -11.5c-10 0 -21 1.66699 -33 5s-23.333 7.66602 -34 12.999v-70c10 -7.33301 21.667 -12.666 35 -15.999s26 -5 38 -5
c31.333 0 58.666 10.167 81.999 30.5s40.333 45.833 51 76.5l226 603h-83z" />
    <glyph glyph-name="uni0444" unicode="&#x444;" horiz-adv-x="701" 
d="M312 -13c-92.667 6.66699 -158.334 35.167 -197.001 85.5s-58 110.166 -58 179.499c0 68.667 19.333 128.167 58 178.5s104.334 78.833 197.001 85.5v184h77v-184c92.667 -6.66699 158.334 -35.167 197.001 -85.5s58 -109.833 58 -178.5
c0 -69.333 -19.333 -129.166 -58 -179.499s-104.334 -78.833 -197.001 -85.5v-193h-77v193zM177.5 381c-25.667 -36.667 -38.5 -79.665 -38.5 -128.998s12.833 -92.333 38.5 -129s70.5 -58.334 134.5 -65.001v388c-64 -6.66699 -108.833 -28.334 -134.5 -65.001z
M524 123.002c25.333 36.667 38 79.665 38 128.998s-12.667 92.333 -38 129s-70.333 58.334 -135 65.001v-388c64.667 6.66699 109.667 28.334 135 65.001z" />
    <glyph glyph-name="uni0445" unicode="&#x445;" horiz-adv-x="500" 
d="M383 0h94l-178 270l152 234h-94l-107 -172l-105 172h-95l152 -234l-179 -270h94l133 213z" />
    <glyph glyph-name="uni0446" unicode="&#x446;" horiz-adv-x="575" 
d="M465 504l-77.001 -0.00195312v-305c0 -40 -11.833 -74.167 -35.5 -102.5s-55.167 -42.5 -94.5 -42.5c-32.667 0 -58.167 9.5 -76.5 28.5s-27.5 44.5 -27.5 76.5v345h-77v-345c0 -53.333 14.667 -95.5 44 -126.5s71.666 -46.5 126.999 -46.5c30.667 0 59 7 85 21
s47.333 33.333 64 58c3.33301 -19.333 10.333 -35.666 21 -48.999s25.334 -22 44.001 -26l7 -127h65v173c-19.333 0 -35.666 6.83301 -48.999 20.5s-20 29.834 -20 48.501v399z" />
    <glyph glyph-name="uni0447" unicode="&#x447;" horiz-adv-x="511" 
d="M354 189c-16 -11.333 -34.668 -20.168 -56.001 -26.501s-43.666 -9.5 -66.999 -9.5c-55.333 0 -99 15.333 -131 46s-48 73.334 -48 128.001v177h77v-177c0 -36 11.5 -62.667 34.5 -80s51.5 -26 85.5 -26c19.333 0 38.333 3.66699 57 11s34.667 17.333 48 30v242h77v-504
h-77v189z" />
    <glyph glyph-name="uni0448" unicode="&#x448;" horiz-adv-x="807" 
d="M727 0h-70.0029l-6 49c-17.333 -20.667 -37.833 -36.334 -61.5 -47.001s-49.167 -16 -76.5 -16c-31.333 0 -57.5 6.5 -78.5 19.5s-38.167 32.833 -51.5 59.5c-19.333 -26 -40.833 -45.667 -64.5 -59s-51.167 -20 -82.5 -20c-51.333 0 -90.666 14.667 -117.999 44
s-41 69 -41 119v355h77v-343c0 -28.667 8.5 -53.667 25.5 -75s39.833 -32 68.5 -32c36 0 63.833 14.333 83.5 43s30.167 62.334 31.5 101.001v306h77v-342c0.666992 -29.333 8.83398 -54.333 24.501 -75s38.5 -31 68.5 -31c38.667 0 67.834 14.333 87.501 43
s29.5 63.667 29.5 105v300h77v-504z" />
    <glyph glyph-name="uni0449" unicode="&#x449;" horiz-adv-x="837" 
d="M726 105c0 -18.667 6.66504 -34.834 19.998 -48.501s30 -20.5 50 -20.5v-173h-66l-7 127c-17.333 4 -31.333 12.333 -42 25s-18 28 -22 46c-17.333 -24 -38.666 -42.5 -63.999 -55.5s-53 -19.5 -83 -19.5c-30.667 0 -56.5 6.5 -77.5 19.5s-38.167 32.833 -51.5 59.5
c-19.333 -26 -40.833 -45.667 -64.5 -59s-51.5 -20 -83.5 -20c-52.667 0 -92.167 14.833 -118.5 44.5s-39.5 70.5 -39.5 122.5v351h77v-343c-0.666992 -28.667 7.5 -53.667 24.5 -75s39.833 -32 68.5 -32c36.667 0 64.834 14.333 84.501 43s30.167 62.334 31.5 101.001v306
h77v-342c0.666992 -29.333 8.83398 -54.333 24.501 -75s38.167 -31 67.5 -31c39.333 0 68.666 14.333 87.999 43s29 63.667 29 105v300h77v-399z" />
    <glyph glyph-name="uni044A" unicode="&#x44a;" horiz-adv-x="579" 
d="M5 504v-70h126l-1 -242c0 -62.667 17 -112.667 51 -150s82.333 -56 145 -56c47.333 0 85.5 10 114.5 30s49.833 45.333 62.5 76s19 62.334 19 95.001c0 59.333 -16.333 107.666 -49 144.999s-78.667 56 -138 56c-50 0 -92.667 -18.667 -128 -56v172h-202zM236.5 284
c20.333 25.333 49.168 38 86.501 38c38 0 66.833 -12.5 86.5 -37.5s29.5 -56.833 29.5 -95.5s-10 -70.5 -30 -95.5s-48.667 -37.5 -86 -37.5c-36.667 0 -65.334 12.833 -86.001 38.5s-31 57.167 -31 94.5c0 38 10.167 69.667 30.5 95z" />
    <glyph glyph-name="uni044B" unicode="&#x44b;" horiz-adv-x="691" 
d="M77 192c0 -62.667 16.832 -112.667 50.499 -150s81.834 -56 144.501 -56c47.333 0 85.5 10 114.5 30s49.833 45.333 62.5 76s19 62.334 19 95.001c0 59.333 -16.333 107.666 -49 144.999s-78.667 56 -138 56c-25.333 0 -48.833 -4.83301 -70.5 -14.5
s-40.5 -23.5 -56.5 -41.5v172h-77v-312zM533.999 504h77v-504h-77v504zM182.499 284c20.333 25.333 49.168 38 86.501 38c38 0 66.833 -12.5 86.5 -37.5s29.5 -56.833 29.5 -95.5s-10 -70.5 -30 -95.5s-48.667 -37.5 -86 -37.5c-36.667 0 -65.334 12.833 -86.001 38.5
s-31 57.167 -31 94.5c0 38 10.167 69.667 30.5 95z" />
    <glyph glyph-name="uni044C" unicode="&#x44c;" horiz-adv-x="525" 
d="M77 192c0 -62.667 16.832 -112.667 50.499 -150s81.834 -56 144.501 -56c47.333 0 85.5 10 114.5 30s49.833 45.333 62.5 76s19 62.334 19 95.001c0 59.333 -16.333 107.666 -49 144.999s-78.667 56 -138 56c-25.333 0 -48.833 -4.83301 -70.5 -14.5
s-40.5 -23.5 -56.5 -41.5v172h-77v-312zM182.499 284c20.333 25.333 49.168 38 86.501 38c38 0 66.833 -12.5 86.5 -37.5s29.5 -56.833 29.5 -95.5s-10 -70.5 -30 -95.5s-48.667 -37.5 -86 -37.5c-36.667 0 -65.334 12.833 -86.001 38.5s-31 57.167 -31 94.5
c0 38 10.167 69.667 30.5 95z" />
    <glyph glyph-name="uni044D" unicode="&#x44d;" horiz-adv-x="455" 
d="M291 482c35.333 -24 62.002 -56.167 80.002 -96.5s27 -84.833 27 -133.5c0 -49.333 -8.5 -94 -25.5 -134s-42.5 -72 -76.5 -96s-75.667 -36 -125 -36c-38.667 0 -75 6 -109 18l-4 77c34 -16 68.333 -24 103 -24c46 0 81.667 15 107 45s40.333 68.333 45 115h-187v70h187
c-5.33301 48 -21.666 86.667 -48.999 116s-64 44 -110 44c-18.667 0 -36.834 -3 -54.501 -9s-32.167 -14.333 -43.5 -25l2 81c31.333 16 66.666 24 105.999 24c49.333 0 91.666 -12 126.999 -36z" />
    <glyph glyph-name="uni044E" unicode="&#x44e;" horiz-adv-x="745" 
d="M80 700l77 -0.00195312v-399h87c8 61.333 29.667 112.833 65 154.5s87.333 62.5 156 62.5c53.333 0 96.666 -13.333 129.999 -40s57.166 -60.167 71.499 -100.5s21.5 -82.166 21.5 -125.499s-7.16699 -85.166 -21.5 -125.499s-38.166 -73.833 -71.499 -100.5
s-76.666 -40 -129.999 -40c-74 0 -128.833 24.167 -164.5 72.5s-55.167 105.833 -58.5 172.5h-85v-231h-77v700zM358 385.498c-21.333 -39 -32 -83.499 -32 -133.499s10.667 -94.667 32 -134s57 -59 107 -59c49.333 0 84.833 19.667 106.5 59s32.5 84 32.5 134
c0 49.333 -10.833 93.666 -32.5 132.999s-57.167 59 -106.5 59c-50 0 -85.667 -19.5 -107 -58.5z" />
    <glyph glyph-name="uni044F" unicode="&#x44f;" horiz-adv-x="511" 
d="M431 0h-77v433h-100c-27.333 0 -50 -6.33301 -68 -19s-27 -32.334 -27 -59.001c0 -27.333 9.83301 -47.833 29.5 -61.5s43.834 -20.5 72.501 -20.5h57v-26l-183 -247h-94l163 214c-38.667 6 -69.667 21.333 -93 46s-35 56.334 -35 95.001c0 50 16.667 87.333 50 112
s75.666 37 126.999 37h178v-504z" />
    <glyph glyph-name="uni0451" unicode="&#x451;" horiz-adv-x="518" 
d="M418.5 455.5c31 -41.667 46.502 -94.167 46.502 -157.5c0 -18.667 -1.66699 -39 -5 -61h-323c2 -52.667 14.5 -96 37.5 -130s59.5 -51 109.5 -51c29.333 0 56.666 4.83301 81.999 14.5s50.666 24.5 75.999 44.5l-1 -81c-43.333 -32 -94.333 -48 -153 -48
c-48.667 0 -90.334 11.167 -125.001 33.5s-61 53.333 -79 93s-27 85.167 -27 136.5c0 79.333 18.833 144 56.5 194s91.834 75 162.501 75c64 0 111.5 -20.833 142.5 -62.5zM388.002 308c-1.33301 92.667 -38.999 139 -112.999 139c-38.667 0 -68.834 -13 -90.501 -39
s-36.167 -59.333 -43.5 -100h247zM146.003 611c-8 5.33301 -12 16.666 -12 33.999c0 16 4.33301 27 13 33s20.667 9 36 9s27.333 -3 36 -9s13 -17 13 -33c0 -17.333 -4 -28.666 -12 -33.999s-20.333 -8 -37 -8s-29 2.66699 -37 8zM331.003 611
c-8 5.33301 -12 16.666 -12 33.999c0 16 4.33301 27 13 33s20.667 9 36 9s27.5 -3 36.5 -9s13.5 -17 13.5 -33c0 -17.333 -4.16699 -28.666 -12.5 -33.999s-20.833 -8 -37.5 -8s-29 2.66699 -37 8z" />
    <glyph glyph-name="Wgrave" unicode="&#x1e80;" horiz-adv-x="944" 
d="M255 -13l-227 713h89l156 -511l185 478h28l186 -478l155 511h89l-226 -713h-20l-198 508l-198 -508h-19zM403 908l136 -117l-36 -41l-148 102z" />
    <glyph glyph-name="wgrave" unicode="&#x1e81;" horiz-adv-x="776" 
d="M186 299l-73 205h-84l187 -518h23l149 355l149 -355h24l186 518h-83l-74 -205l-44 -151l-145 344h-25l-146 -344zM320 712l136 -117l-36 -41l-148 102z" />
    <glyph glyph-name="Wacute" unicode="&#x1e82;" horiz-adv-x="944" 
d="M255 -13l-227 713h89l156 -511l185 478h28l186 -478l155 511h89l-226 -713h-20l-198 508l-198 -508h-19zM599 851l-147 -103l-36 41l136 117z" />
    <glyph glyph-name="wacute" unicode="&#x1e83;" horiz-adv-x="776" 
d="M186 299l-73 205h-84l187 -518h23l149 355l149 -355h24l186 518h-83l-74 -205l-44 -151l-145 344h-25l-146 -344zM516 655l-147 -103l-36 41l136 117z" />
    </font>
</defs>
</svg>
